<mxfile host="Electron" agent="Mozilla/5.0 (Windows NT 10.0; Win64; x64) AppleWebKit/537.36 (KHTML, like Gecko) draw.io/24.7.17 Chrome/128.0.6613.36 Electron/32.0.1 Safari/537.36" version="24.7.17">
  <diagram name="to-be" id="KkLNxIWUcx0tddE59iRF">
    <mxGraphModel dx="4100" dy="1742" grid="0" gridSize="10" guides="1" tooltips="1" connect="1" arrows="1" fold="1" page="0" pageScale="1" pageWidth="827" pageHeight="1169" math="0" shadow="0">
      <root>
        <mxCell id="0" />
        <mxCell id="1" parent="0" />
        <mxCell id="xm-ctFpzYZ5bEvGxBskp-23" value="&lt;div style=&quot;font-size: 1px&quot;&gt;&lt;font style=&quot;font-size:22.58px;font-family:Arial;color:#000000;direction:ltr;letter-spacing:0px;line-height:120%;opacity:1&quot;&gt;Зона доступности 3&lt;br&gt;&lt;/font&gt;&lt;/div&gt;" style="verticalAlign=bottom;align=center;overflow=width;vsdxID=5;fillColor=#e3ebff;gradientColor=none;shape=stencil(vVNBDsIgEHwNRwxCjHqu+g9iaUtEaBa09fdSwdpi9dBDb8vOwOwsGcQyW/FaIEqsA3MRjcxdhdgBUSp1JUA6XyF2RCwrDIgSzE3n4VzzjtlVV3PvXmjDPdLdoOQRTrvtavNqnAKXw9mDELkBIhDJaxrJZIy/YRLfbjFvpcVgHHfS6JGu4lAK7GVwoXg5gmwjRP3VjoMpqQcm9tPKs0z0Y6crWcBHqt0PN8tJspXFfmNKdpaBH8tYwML/VPjiE6dCKhXSOMTT+PlWiC47PgE=);strokeColor=none;spacingTop=-3;spacingBottom=-3;spacingLeft=-3;spacingRight=-3;points=[];labelBackgroundColor=none;rounded=0;html=1;whiteSpace=wrap;container=0;" parent="1" vertex="1">
          <mxGeometry x="597" y="370" width="690" height="639" as="geometry" />
        </mxCell>
        <mxCell id="xm-ctFpzYZ5bEvGxBskp-39" style="vsdxID=6;fillColor=none;gradientColor=none;shape=stencil(vVNdD4IgFP01POIQms1nq//BEpVF4q6U9u/DoFJxPdjm2/04cO65cBDL2oo3AlHSGtAX0cncVIgdEKWyrgRIYyPEjohlhQZRgr7VucsbPiCH6Krvww29O0eGE5Q8XJaSaPcqnByWw9k2wWNZRFMHhzc+SlwhQHhATDxBj3kvWwzacCN1PSFXHEqBLRcuFC8nrbYTognKfjol65GSNIn28SL5SjGf2efL2UBMwO1nWykl3M1mzxJ8ib/eZHkrG8j47RMbfA1WSKWcP8f9uSFtyZmZHZ8=);strokeColor=#5282ff;spacingTop=-3;spacingBottom=-3;spacingLeft=-3;spacingRight=-3;points=[];labelBackgroundColor=none;rounded=0;html=1;whiteSpace=wrap;container=0;" parent="1" vertex="1">
          <mxGeometry x="618" y="397" width="644" height="385" as="geometry" />
        </mxCell>
        <mxCell id="mW3zMy_77x5YiZytnxg1-15" value="" style="vsdxID=5;fillColor=none;gradientColor=none;shape=stencil(vVPLEoIgFP0aljgEVuPa6j+YRGUica6U9vdhUKk4LWzG3X0cOPdcOIilTclrgShpDOiLaGVmSsQOiFJZlQKksRFiR8TSXIMoQN+qzOU175F9dNX3/obOnSP9CUoeLktIFL8KJ4flcLZN8NhtRJiDwxsf7VwhQHjAhniCDvNONhi04UbqakSuOBQCWy6cK16MWk0rRB2U/XRKVgMlSRwl+1nyhWI+s0+Xs4KYgNvPtlBKuJvVniX4En+9yfxWVpDx2yc2+Bosl0o5fw77U0PakjMzOz4B);strokeColor=#ff5958;spacingTop=-3;spacingBottom=-3;spacingLeft=-3;spacingRight=-3;points=[];labelBackgroundColor=none;rounded=0;html=1;whiteSpace=wrap;movable=1;resizable=1;rotatable=1;deletable=1;editable=1;locked=0;connectable=1;" parent="1" vertex="1">
          <mxGeometry x="768" y="437" width="471" height="125" as="geometry" />
        </mxCell>
        <mxCell id="mW3zMy_77x5YiZytnxg1-44" value="&lt;div style=&quot;font-size: 1px&quot;&gt;&lt;font style=&quot;font-size:22.58px;font-family:Arial;color:#000000;direction:ltr;letter-spacing:0px;line-height:120%;opacity:1&quot;&gt;Зона доступности 1&lt;br&gt;&lt;/font&gt;&lt;/div&gt;" style="verticalAlign=bottom;align=center;overflow=width;vsdxID=5;fillColor=#e3ebff;gradientColor=none;shape=stencil(vVNBDsIgEHwNRwxCjHqu+g9iaUtEaBa09fdSwdpi9dBDb8vOwOwsGcQyW/FaIEqsA3MRjcxdhdgBUSp1JUA6XyF2RCwrDIgSzE3n4VzzjtlVV3PvXmjDPdLdoOQRTrvtavNqnAKXw9mDELkBIhDJaxrJZIy/YRLfbjFvpcVgHHfS6JGu4lAK7GVwoXg5gmwjRP3VjoMpqQcm9tPKs0z0Y6crWcBHqt0PN8tJspXFfmNKdpaBH8tYwML/VPjiE6dCKhXSOMTT+PlWiC47PgE=);strokeColor=none;spacingTop=-3;spacingBottom=-3;spacingLeft=-3;spacingRight=-3;points=[];labelBackgroundColor=none;rounded=0;html=1;whiteSpace=wrap;container=0;" parent="1" vertex="1">
          <mxGeometry x="-182" y="370" width="690" height="639" as="geometry" />
        </mxCell>
        <mxCell id="mW3zMy_77x5YiZytnxg1-60" style="vsdxID=6;fillColor=none;gradientColor=none;shape=stencil(vVNdD4IgFP01POIQms1nq//BEpVF4q6U9u/DoFJxPdjm2/04cO65cBDL2oo3AlHSGtAX0cncVIgdEKWyrgRIYyPEjohlhQZRgr7VucsbPiCH6Krvww29O0eGE5Q8XJaSaPcqnByWw9k2wWNZRFMHhzc+SlwhQHhATDxBj3kvWwzacCN1PSFXHEqBLRcuFC8nrbYTognKfjol65GSNIn28SL5SjGf2efL2UBMwO1nWykl3M1mzxJ8ib/eZHkrG8j47RMbfA1WSKWcP8f9uSFtyZmZHZ8=);strokeColor=#5282ff;spacingTop=-3;spacingBottom=-3;spacingLeft=-3;spacingRight=-3;points=[];labelBackgroundColor=none;rounded=0;html=1;whiteSpace=wrap;container=0;movable=1;resizable=1;rotatable=1;deletable=1;editable=1;locked=0;connectable=1;" parent="1" vertex="1">
          <mxGeometry x="-161" y="397" width="644" height="385" as="geometry" />
        </mxCell>
        <mxCell id="mW3zMy_77x5YiZytnxg1-80" value="" style="vsdxID=5;fillColor=none;gradientColor=none;shape=stencil(vVPLEoIgFP0aljgEVuPa6j+YRGUica6U9vdhUKk4LWzG3X0cOPdcOIilTclrgShpDOiLaGVmSsQOiFJZlQKksRFiR8TSXIMoQN+qzOU175F9dNX3/obOnSP9CUoeLktIFL8KJ4flcLZN8NhtRJiDwxsf7VwhQHjAhniCDvNONhi04UbqakSuOBQCWy6cK16MWk0rRB2U/XRKVgMlSRwl+1nyhWI+s0+Xs4KYgNvPtlBKuJvVniX4En+9yfxWVpDx2yc2+Bosl0o5fw77U0PakjMzOz4B);strokeColor=#ff5958;spacingTop=-3;spacingBottom=-3;spacingLeft=-3;spacingRight=-3;points=[];labelBackgroundColor=none;rounded=0;html=1;whiteSpace=wrap;movable=1;resizable=1;rotatable=1;deletable=1;editable=1;locked=0;connectable=1;" parent="1" vertex="1">
          <mxGeometry x="-11" y="437" width="471" height="125" as="geometry" />
        </mxCell>
        <mxCell id="mW3zMy_77x5YiZytnxg1-88" value="&lt;div style=&quot;font-size: 1px&quot;&gt;&lt;font style=&quot;font-size:22.58px;font-family:Arial;color:#000000;direction:ltr;letter-spacing:0px;line-height:120%;opacity:1&quot;&gt;Зона доступности 2&lt;br&gt;&lt;/font&gt;&lt;/div&gt;" style="verticalAlign=bottom;align=center;overflow=width;vsdxID=5;fillColor=#e3ebff;gradientColor=none;shape=stencil(vVNBDsIgEHwNRwxCjHqu+g9iaUtEaBa09fdSwdpi9dBDb8vOwOwsGcQyW/FaIEqsA3MRjcxdhdgBUSp1JUA6XyF2RCwrDIgSzE3n4VzzjtlVV3PvXmjDPdLdoOQRTrvtavNqnAKXw9mDELkBIhDJaxrJZIy/YRLfbjFvpcVgHHfS6JGu4lAK7GVwoXg5gmwjRP3VjoMpqQcm9tPKs0z0Y6crWcBHqt0PN8tJspXFfmNKdpaBH8tYwML/VPjiE6dCKhXSOMTT+PlWiC47PgE=);strokeColor=none;spacingTop=-3;spacingBottom=-3;spacingLeft=-3;spacingRight=-3;points=[];labelBackgroundColor=none;rounded=0;html=1;whiteSpace=wrap;container=0;" parent="1" vertex="1">
          <mxGeometry x="-961" y="370" width="690" height="639" as="geometry" />
        </mxCell>
        <mxCell id="mW3zMy_77x5YiZytnxg1-104" style="vsdxID=6;fillColor=none;gradientColor=none;shape=stencil(vVNdD4IgFP01POIQms1nq//BEpVF4q6U9u/DoFJxPdjm2/04cO65cBDL2oo3AlHSGtAX0cncVIgdEKWyrgRIYyPEjohlhQZRgr7VucsbPiCH6Krvww29O0eGE5Q8XJaSaPcqnByWw9k2wWNZRFMHhzc+SlwhQHhATDxBj3kvWwzacCN1PSFXHEqBLRcuFC8nrbYTognKfjol65GSNIn28SL5SjGf2efL2UBMwO1nWykl3M1mzxJ8ib/eZHkrG8j47RMbfA1WSKWcP8f9uSFtyZmZHZ8=);strokeColor=#5282ff;spacingTop=-3;spacingBottom=-3;spacingLeft=-3;spacingRight=-3;points=[];labelBackgroundColor=none;rounded=0;html=1;whiteSpace=wrap;container=0;movable=1;resizable=1;rotatable=1;deletable=1;editable=1;locked=0;connectable=1;" parent="1" vertex="1">
          <mxGeometry x="-940" y="397" width="644" height="385" as="geometry" />
        </mxCell>
        <mxCell id="mW3zMy_77x5YiZytnxg1-124" value="" style="vsdxID=5;fillColor=none;gradientColor=none;shape=stencil(vVPLEoIgFP0aljgEVuPa6j+YRGUica6U9vdhUKk4LWzG3X0cOPdcOIilTclrgShpDOiLaGVmSsQOiFJZlQKksRFiR8TSXIMoQN+qzOU175F9dNX3/obOnSP9CUoeLktIFL8KJ4flcLZN8NhtRJiDwxsf7VwhQHjAhniCDvNONhi04UbqakSuOBQCWy6cK16MWk0rRB2U/XRKVgMlSRwl+1nyhWI+s0+Xs4KYgNvPtlBKuJvVniX4En+9yfxWVpDx2yc2+Bosl0o5fw77U0PakjMzOz4B);strokeColor=#ff5958;spacingTop=-3;spacingBottom=-3;spacingLeft=-3;spacingRight=-3;points=[];labelBackgroundColor=none;rounded=0;html=1;whiteSpace=wrap;movable=1;resizable=1;rotatable=1;deletable=1;editable=1;locked=0;connectable=1;" parent="1" vertex="1">
          <mxGeometry x="-790" y="437" width="471" height="125" as="geometry" />
        </mxCell>
        <mxCell id="xm-ctFpzYZ5bEvGxBskp-83" value="&lt;div style=&quot;font-size: 1px&quot;&gt;&lt;font style=&quot;font-size:22.58px;font-family:Arial;color:#000000;direction:ltr;letter-spacing:0px;line-height:120%;opacity:1&quot;&gt;&lt;br&gt;&lt;/font&gt;&lt;/div&gt;" style="verticalAlign=middle;align=center;overflow=width;vsdxID=5;fillColor=#e3ebff;gradientColor=none;shape=stencil(vVNBDsIgEHwNRwxCjHqu+g9iaUtEaBa09fdSwdpi9dBDb8vOwOwsGcQyW/FaIEqsA3MRjcxdhdgBUSp1JUA6XyF2RCwrDIgSzE3n4VzzjtlVV3PvXmjDPdLdoOQRTrvtavNqnAKXw9mDELkBIhDJaxrJZIy/YRLfbjFvpcVgHHfS6JGu4lAK7GVwoXg5gmwjRP3VjoMpqQcm9tPKs0z0Y6crWcBHqt0PN8tJspXFfmNKdpaBH8tYwML/VPjiE6dCKhXSOMTT+PlWiC47PgE=);strokeColor=none;spacingTop=-3;spacingBottom=-3;spacingLeft=-3;spacingRight=-3;points=[];labelBackgroundColor=none;rounded=0;html=1;whiteSpace=wrap;" parent="1" vertex="1">
          <mxGeometry x="-958" y="125" width="2244" height="174" as="geometry" />
        </mxCell>
        <mxCell id="mW3zMy_77x5YiZytnxg1-31" value="&lt;div style=&quot;font-size: 22.58px;&quot;&gt;&lt;font face=&quot;Arial&quot;&gt;Health Check&lt;/font&gt;&lt;/div&gt;" style="verticalAlign=bottom;align=center;overflow=width;vsdxID=6;fillColor=none;gradientColor=none;strokeColor=none;spacingTop=-3;spacingBottom=-3;spacingLeft=-3;spacingRight=-3;points=[];labelBackgroundColor=none;rounded=0;html=1;whiteSpace=wrap;container=0;" parent="1" vertex="1">
          <mxGeometry x="409" y="202" width="130" height="54" as="geometry" />
        </mxCell>
        <mxCell id="mW3zMy_77x5YiZytnxg1-32" value="" style="image;aspect=fixed;html=1;points=[];align=center;fontSize=12;image=img/lib/azure2/general/Service_Health.svg;" parent="1" vertex="1">
          <mxGeometry x="458.59000000000003" y="169" width="28.69" height="27" as="geometry" />
        </mxCell>
        <mxCell id="xm-ctFpzYZ5bEvGxBskp-87" style="vsdxID=5;fillColor=none;gradientColor=none;shape=stencil(vVPLEoIgFP0aljgEVuPa6j+YRGUica6U9vdhUKk4LWzG3X0cOPdcOIilTclrgShpDOiLaGVmSsQOiFJZlQKksRFiR8TSXIMoQN+qzOU175F9dNX3/obOnSP9CUoeLktIFL8KJ4flcLZN8NhtRJiDwxsf7VwhQHjAhniCDvNONhi04UbqakSuOBQCWy6cK16MWk0rRB2U/XRKVgMlSRwl+1nyhWI+s0+Xs4KYgNvPtlBKuJvVniX4En+9yfxWVpDx2yc2+Bosl0o5fw77U0PakjMzOz4B);strokeColor=#ff5958;spacingTop=-3;spacingBottom=-3;spacingLeft=-3;spacingRight=-3;points=[];labelBackgroundColor=none;rounded=0;html=1;whiteSpace=wrap;" parent="1" vertex="1">
          <mxGeometry x="-938" y="142" width="2194" height="135.5" as="geometry" />
        </mxCell>
        <mxCell id="xm-ctFpzYZ5bEvGxBskp-88" value="&lt;div style=&quot;font-size: 1px&quot;&gt;&lt;font style=&quot;font-size:22.58px;font-family:Arial;color:#000000;direction:ltr;letter-spacing:0px;line-height:120%;opacity:1&quot;&gt;Global Load Balancer&amp;nbsp;&lt;/font&gt;&lt;/div&gt;&lt;div style=&quot;font-size: 1px&quot;&gt;&lt;font style=&quot;font-size:22.58px;font-family:Arial;color:#000000;direction:ltr;letter-spacing:0px;line-height:120%;opacity:1&quot;&gt;(GeoDNS / AWS Global Accelerator / CF)&lt;br&gt;&lt;/font&gt;&lt;/div&gt;" style="verticalAlign=bottom;align=center;overflow=width;vsdxID=6;fillColor=none;gradientColor=none;strokeColor=none;spacingTop=-3;spacingBottom=-3;spacingLeft=-3;spacingRight=-3;points=[];labelBackgroundColor=none;rounded=0;html=1;whiteSpace=wrap;" parent="1" vertex="1">
          <mxGeometry x="-179" y="179" width="654" height="55" as="geometry" />
        </mxCell>
        <mxCell id="xm-ctFpzYZ5bEvGxBskp-82" value="" style="group" parent="1" vertex="1" connectable="0">
          <mxGeometry x="100" y="-314" width="152" height="130" as="geometry" />
        </mxCell>
        <mxCell id="xm-ctFpzYZ5bEvGxBskp-11" value="" style="aspect=fixed;sketch=0;html=1;dashed=0;whitespace=wrap;verticalLabelPosition=bottom;verticalAlign=top;fillColor=#2875E2;strokeColor=#ffffff;points=[[0.005,0.63,0],[0.1,0.2,0],[0.9,0.2,0],[0.5,0,0],[0.995,0.63,0],[0.72,0.99,0],[0.5,1,0],[0.28,0.99,0]];shape=mxgraph.kubernetes.icon2;prIcon=group;container=0;" parent="xm-ctFpzYZ5bEvGxBskp-82" vertex="1">
          <mxGeometry x="84" y="10" width="50" height="48" as="geometry" />
        </mxCell>
        <mxCell id="xm-ctFpzYZ5bEvGxBskp-12" style="vsdxID=5;fillColor=none;gradientColor=none;shape=stencil(vVPLEoIgFP0aljgEVuPa6j+YRGUica6U9vdhUKk4LWzG3X0cOPdcOIilTclrgShpDOiLaGVmSsQOiFJZlQKksRFiR8TSXIMoQN+qzOU175F9dNX3/obOnSP9CUoeLktIFL8KJ4flcLZN8NhtRJiDwxsf7VwhQHjAhniCDvNONhi04UbqakSuOBQCWy6cK16MWk0rRB2U/XRKVgMlSRwl+1nyhWI+s0+Xs4KYgNvPtlBKuJvVniX4En+9yfxWVpDx2yc2+Bosl0o5fw77U0PakjMzOz4B);strokeColor=#ff5958;spacingTop=-3;spacingBottom=-3;spacingLeft=-3;spacingRight=-3;points=[];labelBackgroundColor=none;rounded=0;html=1;whiteSpace=wrap;container=0;" parent="xm-ctFpzYZ5bEvGxBskp-82" vertex="1">
          <mxGeometry width="152" height="130" as="geometry" />
        </mxCell>
        <mxCell id="xm-ctFpzYZ5bEvGxBskp-13" value="&lt;div style=&quot;font-size: 1px&quot;&gt;&lt;font style=&quot;font-size:22.58px;font-family:Arial;color:#000000;direction:ltr;letter-spacing:0px;line-height:120%;opacity:1&quot;&gt;Браузер&amp;nbsp;&lt;/font&gt;&lt;/div&gt;&lt;div style=&quot;font-size: 1px&quot;&gt;&lt;font style=&quot;font-size:22.58px;font-family:Arial;color:#000000;direction:ltr;letter-spacing:0px;line-height:120%;opacity:1&quot;&gt;пользователя&lt;/font&gt;&lt;/div&gt;" style="verticalAlign=bottom;align=center;overflow=width;vsdxID=6;fillColor=none;gradientColor=none;strokeColor=none;spacingTop=-3;spacingBottom=-3;spacingLeft=-3;spacingRight=-3;points=[];labelBackgroundColor=none;rounded=0;html=1;whiteSpace=wrap;container=0;" parent="xm-ctFpzYZ5bEvGxBskp-82" vertex="1">
          <mxGeometry y="67" width="152" height="53" as="geometry" />
        </mxCell>
        <mxCell id="xm-ctFpzYZ5bEvGxBskp-101" value="&lt;p class=&quot;MsoNormal&quot;&gt;&lt;b&gt;Почему выбраны несколько независимых кластеров Kubernetes?&lt;/b&gt;&lt;/p&gt;&lt;p class=&quot;MsoNormal&quot;&gt;В данном проекте выбрана архитектура с &lt;b&gt;несколькими&lt;br&gt;независимыми кластерами Kubernetes&lt;/b&gt;, развернутыми в разных регионах. Для&lt;br&gt;обеспечения согласованности данных и высокой производительности была также&lt;br&gt;реализована &lt;b&gt;репликация базы данных PostgreSQL с одной мастер-базой&lt;/b&gt;. Это&lt;br&gt;решение позволяет эффективно управлять данными и запросами в географически&lt;br&gt;распределённой системе. Вот основные плюсы и минусы данного подхода, а также&lt;br&gt;способы компенсации недостатков.&lt;/p&gt;&lt;div class=&quot;MsoNormal&quot; align=&quot;center&quot; style=&quot;text-align:center&quot;&gt;&lt;br&gt;&lt;hr size=&quot;2&quot; width=&quot;100%&quot; align=&quot;center&quot;&gt;&lt;/div&gt;&lt;p class=&quot;MsoNormal&quot;&gt;&lt;b&gt;&lt;br&gt;&lt;/b&gt;&lt;/p&gt;&lt;p class=&quot;MsoNormal&quot;&gt;&lt;b&gt;Плюсы архитектуры с независимыми кластерами&lt;/b&gt;&lt;/p&gt;&lt;ol style=&quot;margin-top:0cm&quot; start=&quot;1&quot; type=&quot;1&quot;&gt;&lt;br&gt; &lt;li class=&quot;MsoNormal&quot; style=&quot;mso-list:l1 level1 lfo1;tab-stops:list 36.0pt&quot;&gt;&lt;b&gt;Географическая доступность:&lt;/b&gt;&lt;/li&gt; &lt;ul style=&quot;margin-top:0cm&quot; type=&quot;circle&quot;&gt;&lt;br&gt;  &lt;li class=&quot;MsoNormal&quot; style=&quot;mso-list:l1 level2 lfo1;tab-stops:list 72.0pt&quot;&gt;Каждый кластер обслуживает пользователей, находящихся ближе всего к нему, что&lt;br&gt;      минимизирует задержки при обработке запросов.&lt;/li&gt;&lt;br&gt;  &lt;li class=&quot;MsoNormal&quot; style=&quot;mso-list:l1 level2 lfo1;tab-stops:list 72.0pt&quot;&gt;Одинаковое время отклика страниц для всех пользователей достигается за счёт&lt;br&gt;      локализации обработки запросов.&lt;/li&gt; &lt;/ul&gt;&lt;br&gt; &lt;li class=&quot;MsoNormal&quot; style=&quot;mso-list:l1 level1 lfo1;tab-stops:list 36.0pt&quot;&gt;&lt;b&gt;Изоляция отказов:&lt;/b&gt;&lt;/li&gt;&lt;ul style=&quot;margin-top:0cm&quot; type=&quot;circle&quot;&gt;&lt;br&gt;  &lt;li class=&quot;MsoNormal&quot; style=&quot;mso-list:l1 level2 lfo1;tab-stops:list 72.0pt&quot;&gt;Сбой&amp;nbsp;в одном кластере (например, в московском регионе) не влияет на&lt;br&gt;      доступность приложений в других регионах (например, Новосибирск или&lt;br&gt;      Владивосток).&lt;/li&gt;&lt;br&gt;  &lt;li class=&quot;MsoNormal&quot; style=&quot;mso-list:l1 level2 lfo1;tab-stops:list 72.0pt&quot;&gt;Это повышает отказоустойчивость всей системы.&lt;/li&gt; &lt;/ul&gt;&lt;br&gt; &lt;li class=&quot;MsoNormal&quot; style=&quot;mso-list:l1 level1 lfo1;tab-stops:list 36.0pt&quot;&gt;&lt;b&gt;Масштабируемость:&lt;/b&gt;&lt;/li&gt; &lt;ul style=&quot;margin-top:0cm&quot; type=&quot;circle&quot;&gt;&lt;br&gt;  &lt;li class=&quot;MsoNormal&quot; style=&quot;mso-list:l1 level2 lfo1;tab-stops:list 72.0pt&quot;&gt;Кластеры могут масштабироваться независимо друг от друга в зависимости от нагрузки в конкретном регионе.&lt;/li&gt;&lt;br&gt;  &lt;li class=&quot;MsoNormal&quot; style=&quot;mso-list:l1 level2 lfo1;tab-stops:list 72.0pt&quot;&gt;Например, кластер в Москве может быть масштабирован сильнее из-за большей&lt;br&gt;      пользовательской активности, чем кластер в других регионах.&lt;/li&gt; &lt;/ul&gt;&lt;br&gt; &lt;li class=&quot;MsoNormal&quot; style=&quot;mso-list:l1 level1 lfo1;tab-stops:list 36.0pt&quot;&gt;&lt;b&gt;Облегчённое обновление и тестирование:&lt;/b&gt;&lt;/li&gt;&lt;ul style=&quot;margin-top:0cm&quot; type=&quot;circle&quot;&gt;&lt;br&gt;  &lt;li class=&quot;MsoNormal&quot; style=&quot;mso-list:l1 level2 lfo1;tab-stops:list 72.0pt&quot;&gt;Обновления и новые функции можно развёртывать постепенно, начиная с одного региона. Это снижает риск одновременного сбоя во всех кластерах.&lt;/li&gt;&lt;/ul&gt;&lt;br&gt; &lt;li class=&quot;MsoNormal&quot; style=&quot;mso-list:l1 level1 lfo1;tab-stops:list 36.0pt&quot;&gt;&lt;b&gt;Эффективная репликация данных:&lt;/b&gt;&lt;/li&gt;&lt;ul style=&quot;margin-top:0cm&quot; type=&quot;circle&quot;&gt;&lt;br&gt;  &lt;li class=&quot;MsoNormal&quot; style=&quot;mso-list:l1 level2 lfo1;tab-stops:list 72.0pt&quot;&gt;Используется схема с одной мастер-базой PostgreSQL, расположенной в Москве, которая обрабатывает все запросы на запись.&lt;/li&gt;&lt;br&gt;  &lt;li class=&quot;MsoNormal&quot; style=&quot;mso-list:l1 level2 lfo1;tab-stops:list 72.0pt&quot;&gt;Локальные реплики в регионах обрабатывают запросы на чтение, что минимизирует задержки для большинства операций.&lt;/li&gt;&lt;/ul&gt;&lt;/ol&gt;&lt;div class=&quot;MsoNormal&quot; align=&quot;center&quot; style=&quot;text-align:center&quot;&gt;&lt;br&gt;&lt;br&gt;&lt;hr size=&quot;2&quot; width=&quot;100%&quot; align=&quot;center&quot;&gt;&lt;br&gt;&lt;/div&gt;&lt;p class=&quot;MsoNormal&quot;&gt;&lt;b&gt;Минусы архитектуры с независимыми кластерами и способы их компенсации&lt;/b&gt;&lt;/p&gt;&lt;ol style=&quot;margin-top:0cm&quot; start=&quot;1&quot; type=&quot;1&quot;&gt;&lt;li class=&quot;MsoNormal&quot; style=&quot;mso-list:l0 level1 lfo2;tab-stops:list 36.0pt&quot;&gt;&lt;b&gt;Усложнённое управление&lt;/b&gt;:&lt;/li&gt;&lt;ul style=&quot;margin-top:0cm&quot; type=&quot;circle&quot;&gt;&lt;br&gt;  &lt;li class=&quot;MsoNormal&quot; style=&quot;mso-list:l0 level2 lfo2;tab-stops:list 72.0pt&quot;&gt;&lt;b&gt;Проблема&lt;/b&gt;:&lt;br&gt;      &lt;/li&gt;&lt;ul style=&quot;margin-top:0cm&quot; type=&quot;square&quot;&gt;&lt;br&gt;   &lt;li class=&quot;MsoNormal&quot; style=&quot;mso-list:l0 level3 lfo2;tab-stops:list 108.0pt&quot;&gt;Наличие нескольких кластеров требует дополнительных усилий по их мониторингу, настройке и синхронизации.&lt;/li&gt;&lt;/ul&gt;&lt;br&gt;  &lt;li class=&quot;MsoNormal&quot; style=&quot;mso-list:l0 level2 lfo2;tab-stops:list 72.0pt&quot;&gt;&lt;b&gt;Компенсация&lt;/b&gt;:&lt;br&gt;      &lt;/li&gt;&lt;ul style=&quot;margin-top:0cm&quot; type=&quot;square&quot;&gt;&lt;br&gt;   &lt;li class=&quot;MsoNormal&quot; style=&quot;mso-list:l0 level3 lfo2;tab-stops:list 108.0pt&quot;&gt;Использование инструментов управления мультикластерами, таких как &lt;b&gt;Rancher&lt;/b&gt;, &lt;b&gt;Anthos&amp;nbsp;&lt;/b&gt;или &lt;b&gt;OpenShift&lt;/b&gt;, для централизованного управления всеми кластерами.&lt;/li&gt;&lt;br&gt;   &lt;li class=&quot;MsoNormal&quot; style=&quot;mso-list:l0 level3 lfo2;tab-stops:list 108.0pt&quot;&gt;Автоматизацияра звертывания и синхронизации конфигураций через &lt;b&gt;GitOps&amp;nbsp;&lt;/b&gt;(например, с использованием &lt;b&gt;ArgoCD&lt;/b&gt; или &lt;b&gt;FluxCD&lt;/b&gt;).&lt;/li&gt;&lt;/ul&gt;&lt;br&gt;  &lt;li class=&quot;MsoNormal&quot; style=&quot;mso-list:l0 level2 lfo2;tab-stops:list 72.0pt&quot;&gt;&lt;b&gt;Почему это приемлемо?&lt;/b&gt; &lt;/li&gt;&lt;br&gt;  &lt;ul style=&quot;margin-top:0cm&quot; type=&quot;square&quot;&gt;&lt;li class=&quot;MsoNormal&quot; style=&quot;mso-list:l0 level3 lfo2;tab-stops:list 108.0pt&quot;&gt;Затраты на управление компенсируются улучшением отказоустойчивости и&lt;br&gt;       возможностью независимо адаптировать кластеры под региональные нагрузки.&lt;/li&gt;&lt;br&gt;  &lt;/ul&gt;&lt;/ul&gt;&lt;br&gt; &lt;li class=&quot;MsoNormal&quot; style=&quot;mso-list:l0 level1 lfo2;tab-stops:list 36.0pt&quot;&gt;&lt;b&gt;Увеличенное время записи&lt;/b&gt;:&lt;/li&gt;&lt;br&gt; &lt;ul style=&quot;margin-top:0cm&quot; type=&quot;circle&quot;&gt;&lt;li class=&quot;MsoNormal&quot; style=&quot;mso-list:l0 level2 lfo2;tab-stops:list 72.0pt&quot;&gt;&lt;b&gt;Проблема&lt;/b&gt;:&lt;br&gt;      &lt;/li&gt;&lt;ul style=&quot;margin-top:0cm&quot; type=&quot;square&quot;&gt;&lt;br&gt;   &lt;li class=&quot;MsoNormal&quot; style=&quot;mso-list:l0 level3 lfo2;tab-stops:list 108.0pt&quot;&gt;Операции записи в мастер-базу, находящуюся в Москве, требуют дополнительного времени из-за сетевых задержек между регионами, что увеличивает время выполнения записи.&lt;/li&gt;&lt;br&gt;  &lt;/ul&gt;&lt;li class=&quot;MsoNormal&quot; style=&quot;mso-list:l0 level2 lfo2;tab-stops:list 72.0pt&quot;&gt;&lt;b&gt;Компенсация&lt;/b&gt;:&lt;br&gt;      &lt;/li&gt;&lt;br&gt;  &lt;ul style=&quot;margin-top:0cm&quot; type=&quot;square&quot;&gt;&lt;li class=&quot;MsoNormal&quot; style=&quot;mso-list:l0 level3 lfo2;tab-stops:list 108.0pt&quot;&gt;Операции чтения, которые составляют большинство пользовательских запросов, выполняются быстрее, так как запросы направляются на локальные реплики, находящиеся в том же регионе. Это минимизирует задержки для наиболее частых операций.&lt;/li&gt;&lt;br&gt;  &lt;/ul&gt;&lt;li class=&quot;MsoNormal&quot; style=&quot;mso-list:l0 level2 lfo2;tab-stops:list 72.0pt&quot;&gt;&lt;b&gt;Почему это приемлемо?&lt;/b&gt; &lt;/li&gt;&lt;br&gt;  &lt;ul style=&quot;margin-top:0cm&quot; type=&quot;square&quot;&gt;&lt;li class=&quot;MsoNormal&quot; style=&quot;mso-list:l0 level3 lfo2;tab-stops:list 108.0pt&quot;&gt;Баланс между сокращением времени чтения и увеличением времени записи оправдан, поскольку чтения происходят значительно чаще и критичнее для пользовательского опыта.&lt;/li&gt;&lt;br&gt;  &lt;/ul&gt;&lt;/ul&gt;&lt;br&gt; &lt;li class=&quot;MsoNormal&quot; style=&quot;mso-list:l0 level1 lfo2;tab-stops:list 36.0pt&quot;&gt;&lt;b&gt;Дублирование ресурсов&lt;/b&gt;:&lt;/li&gt;&lt;br&gt; &lt;ul style=&quot;margin-top:0cm&quot; type=&quot;circle&quot;&gt;&lt;li class=&quot;MsoNormal&quot; style=&quot;mso-list:l0 level2 lfo2;tab-stops:list 72.0pt&quot;&gt;&lt;b&gt;Проблема&lt;/b&gt;:&lt;br&gt;      &lt;/li&gt;&lt;ul style=&quot;margin-top:0cm&quot; type=&quot;square&quot;&gt;&lt;br&gt;   &lt;li class=&quot;MsoNormal&quot; style=&quot;mso-list:l0 level3 lfo2;tab-stops:list 108.0pt&quot;&gt;Некоторые сервисы (например, балансировщики, ingress-контроллеры) дублируются в каждом кластере, что увеличивает затраты на инфраструктуру.&lt;/li&gt;&lt;/ul&gt;&lt;br&gt;  &lt;li class=&quot;MsoNormal&quot; style=&quot;mso-list:l0 level2 lfo2;tab-stops:list 72.0pt&quot;&gt;&lt;b&gt;Компенсация&lt;/b&gt;:&lt;br&gt;      &lt;/li&gt;&lt;br&gt;  &lt;ul style=&quot;margin-top:0cm&quot; type=&quot;square&quot;&gt;&lt;li class=&quot;MsoNormal&quot; style=&quot;mso-list:l0 level3 lfo2;tab-stops:list 108.0pt&quot;&gt;Централизованный DNS-балансировщик (например, &lt;b&gt;Cloudflare&lt;/b&gt;, &lt;b&gt;AWS Route 53&lt;/b&gt;) позволяет минимизировать количество локальных балансировщиков.&lt;/li&gt;&lt;br&gt;   &lt;li class=&quot;MsoNormal&quot; style=&quot;mso-list:l0 level3 lfo2;tab-stops:list 108.0pt&quot;&gt;Шаблоны инфраструктуры и автоматизация развертывания через &lt;b&gt;Terraform&lt;/b&gt; или &lt;b&gt;Pulumi&amp;nbsp;&lt;/b&gt;помогают стандартизировать конфигурации и сократить затраты.&lt;/li&gt;&lt;/ul&gt;&lt;br&gt;  &lt;li class=&quot;MsoNormal&quot; style=&quot;mso-list:l0 level2 lfo2;tab-stops:list 72.0pt&quot;&gt;&lt;b&gt;Почему это приемлемо?&lt;/b&gt; &lt;/li&gt;&lt;br&gt;  &lt;ul style=&quot;margin-top:0cm&quot; type=&quot;square&quot;&gt;&lt;li class=&quot;MsoNormal&quot; style=&quot;mso-list:l0 level3 lfo2;tab-stops:list 108.0pt&quot;&gt;Дублирование ресурсов оправдано для повышения отказоустойчивости и минимизации времени простоя при сбоях.&lt;/li&gt;&lt;/ul&gt;&lt;/ul&gt;&lt;br&gt; &lt;li class=&quot;MsoNormal&quot; style=&quot;mso-list:l0 level1 lfo2;tab-stops:list 36.0pt&quot;&gt;&lt;b&gt;Сложность глобальной синхронизации&lt;/b&gt;:&lt;/li&gt;&lt;br&gt; &lt;ul style=&quot;margin-top:0cm&quot; type=&quot;circle&quot;&gt;&lt;li class=&quot;MsoNormal&quot; style=&quot;mso-list:l0 level2 lfo2;tab-stops:list 72.0pt&quot;&gt;&lt;b&gt;Проблема&lt;/b&gt;:&lt;br&gt;      &lt;/li&gt;&lt;ul style=&quot;margin-top:0cm&quot; type=&quot;square&quot;&gt;&lt;br&gt;   &lt;li class=&quot;MsoNormal&quot; style=&quot;mso-list:l0 level3 lfo2;tab-stops:list 108.0pt&quot;&gt;Если данные или настройки приложений должны быть согласованы между регионами, это требует дополнительных механизмов репликации и координации.&lt;/li&gt;&lt;br&gt;  &lt;/ul&gt;&lt;li class=&quot;MsoNormal&quot; style=&quot;mso-list:l0 level2 lfo2;tab-stops:list 72.0pt&quot;&gt;&lt;b&gt;Компенсация&lt;/b&gt;:&lt;br&gt;      &lt;/li&gt;&lt;br&gt;  &lt;ul style=&quot;margin-top:0cm&quot; type=&quot;square&quot;&gt;&lt;li class=&quot;MsoNormal&quot; style=&quot;mso-list:l0 level3 lfo2;tab-stops:list 108.0pt&quot;&gt;Использование распределённых инструментов конфигурации (например, &lt;b&gt;Helm&lt;/b&gt;, &lt;b&gt;ArgoCD&lt;/b&gt;) для синхронизации версий приложений.&lt;/li&gt;&lt;br&gt;   &lt;li class=&quot;MsoNormal&quot; style=&quot;mso-list:l0 level3 lfo2;tab-stops:list 108.0pt&quot;&gt;Репликация данных через очереди сообщений (например, &lt;b&gt;Kafka&lt;/b&gt;, &lt;b&gt;RabbitMQ&lt;/b&gt;) или базу данных с асинхронной репликацией (например, &lt;b&gt;PostgreSQL Streaming Replication&lt;/b&gt;).&lt;/li&gt;&lt;br&gt;  &lt;/ul&gt;&lt;br&gt;  &lt;li class=&quot;MsoNormal&quot; style=&quot;mso-list:l0 level2 lfo2;tab-stops:list 72.0pt&quot;&gt;&lt;b&gt;Почему это приемлемо?&lt;/b&gt; &lt;/li&gt;&lt;br&gt;  &lt;ul style=&quot;margin-top:0cm&quot; type=&quot;square&quot;&gt;&lt;li class=&quot;MsoNormal&quot; style=&quot;mso-list:l0 level3 lfo2;tab-stops:list 108.0pt&quot;&gt;Сложность синхронизации компенсируется возможностью локализовать данные и запросы, что улучшает производительность и надёжность.&lt;/li&gt;&lt;/ul&gt;&lt;/ul&gt;&lt;/ol&gt;&lt;div class=&quot;MsoNormal&quot; align=&quot;center&quot; style=&quot;text-align:center&quot;&gt;&lt;br&gt;&lt;hr size=&quot;2&quot; width=&quot;100%&quot; align=&quot;center&quot;&gt;&lt;/div&gt;&lt;p class=&quot;MsoNormal&quot;&gt;&lt;b&gt;&lt;br&gt;&lt;/b&gt;&lt;/p&gt;&lt;p class=&quot;MsoNormal&quot;&gt;&lt;b&gt;Заключение:&lt;/b&gt;&lt;/p&gt;&lt;p class=&quot;MsoNormal&quot;&gt;Архитектура с &lt;b&gt;несколькими независимыми кластерами Kubernetes&lt;/b&gt; и &lt;b&gt;репликацией базы данных PostgreSQL с одной мастер-базой&amp;nbsp;&lt;/b&gt;позволяет достичь высокой отказоустойчивости, производительности и равномерного распределения нагрузки. Такой подход оптимален для систем с высокой нагрузкой и географическим распределением пользователей. Компенсация недостатков с помощью современных инструментов управления и автоматизации делает этот выбор оправданным и соответствующим бизнес-требованиям.&lt;/p&gt;" style="text;whiteSpace=wrap;html=1;" parent="1" vertex="1">
          <mxGeometry x="-954" y="1156.9999694824219" width="550" height="4114" as="geometry" />
        </mxCell>
        <mxCell id="mW3zMy_77x5YiZytnxg1-102" style="rounded=0;orthogonalLoop=1;jettySize=auto;html=1;exitX=0.14;exitY=1.002;exitDx=0;exitDy=0;exitPerimeter=0;" parent="1" edge="1">
          <mxGeometry relative="1" as="geometry">
            <mxPoint x="-552" y="563" as="sourcePoint" />
            <mxPoint x="-552" y="611" as="targetPoint" />
          </mxGeometry>
        </mxCell>
        <mxCell id="mW3zMy_77x5YiZytnxg1-103" style="rounded=0;orthogonalLoop=1;jettySize=auto;html=1;exitX=0.14;exitY=1.002;exitDx=0;exitDy=0;exitPerimeter=0;" parent="1" edge="1">
          <mxGeometry relative="1" as="geometry">
            <mxPoint x="-382" y="563" as="sourcePoint" />
            <mxPoint x="-382" y="611" as="targetPoint" />
          </mxGeometry>
        </mxCell>
        <mxCell id="mW3zMy_77x5YiZytnxg1-105" value="" style="shape=image;verticalLabelPosition=bottom;verticalAlign=top;imageAspect=0;aspect=fixed;image=data:image/svg+xml,PHN2ZyB4bWxucz0iaHR0cDovL3d3dy53My5vcmcvMjAwMC9zdmciIHdpZHRoPSIzMiIgaGVpZ2h0PSIzMiIgdmlld0JveD0iMCAwIDMyIDMyIiBmaWxsPSJub25lIj4mI3hhOzxwYXRoIGQ9Ik0wIDE2QzAgNy4xNjM0NCA3LjE2MzQ0IDAgMTYgMFYwQzI0LjgzNjYgMCAzMiA3LjE2MzQ0IDMyIDE2VjE2QzMyIDI0LjgzNjYgMjQuODM2NiAzMiAxNiAzMlYzMkM3LjE2MzQ0IDMyIDAgMjQuODM2NiAwIDE2VjE2WiIgZmlsbD0iIzUyODJGRiIvPiYjeGE7PHBhdGggZD0iTTExLjk5NSAyNEw3LjAwMDk4IDE3LjczOEw4Ljc4MTk4IDkuOTI3TDE2IDYuNDUzTDIzLjIxOCA5LjkyOEwyNC45OTkgMTcuNzM5TDIwLjAwNSAyNEgxMS45OTVaTTIwIDEzLjE5NkwxNS45OTkgMTAuODk5TDEyIDEzLjE5NlYxOC4xTDE2IDIwLjQwMUwyMCAxOC4xVjEzLjE5NlpNMTguNzggMTMuODk2SDE4Ljc4N0wxNiAxNS40OTlMMTMuMjE0IDEzLjg5NUgxMy4yMTlMMTUuOTk5IDEyLjI5OUwxOC43OCAxMy44OTZaIiBmaWxsPSJ3aGl0ZSIvPiYjeGE7PC9zdmc+;container=0;" parent="1" vertex="1">
          <mxGeometry x="-895.3812951562873" y="496.15" width="27.69545454545455" height="27.69545454545455" as="geometry" />
        </mxCell>
        <mxCell id="mW3zMy_77x5YiZytnxg1-106" value="&lt;div style=&quot;font-size: 1px&quot;&gt;&lt;font style=&quot;font-size:22.58px;font-family:Arial;color:#000000;direction:ltr;letter-spacing:0px;line-height:120%;opacity:1&quot;&gt;Kubernetes&lt;br&gt;&lt;/font&gt;&lt;/div&gt;&lt;div style=&quot;font-size: 1px&quot;&gt;&lt;font style=&quot;font-size:22.58px;font-family:Arial;color:#000000;direction:ltr;letter-spacing:0px;line-height:120%;opacity:1&quot;&gt;cluster 2&lt;/font&gt;&lt;/div&gt;" style="verticalAlign=middle;align=center;overflow=width;vsdxID=7;fillColor=none;gradientColor=none;shape=stencil(nZBLDoAgDERP0z3SIyjew0SURgSD+Lu9kMZoXLhwN9O+tukAlrNpJg1SzDH4QW/URgNYgZTkjA4UkwJUgGXng+6DX1zLfmoymdXo17xh5zmRJ6Q42BWCfc2oJfdAr+Yv+AP9Cb7OJ3H/2JG1HNGz/84klThPVCc=);strokeColor=none;points=[];labelBackgroundColor=none;rounded=0;html=1;whiteSpace=wrap;container=0;" parent="1" vertex="1">
          <mxGeometry x="-930.1655929372465" y="410" width="118.01288475304223" height="86.13999999999999" as="geometry" />
        </mxCell>
        <mxCell id="mW3zMy_77x5YiZytnxg1-107" value="" style="group" parent="1" vertex="1" connectable="0">
          <mxGeometry x="-616" y="610" width="130" height="100" as="geometry" />
        </mxCell>
        <mxCell id="mW3zMy_77x5YiZytnxg1-108" value="" style="group" parent="mW3zMy_77x5YiZytnxg1-107" vertex="1" connectable="0">
          <mxGeometry x="-2" width="130" height="100" as="geometry" />
        </mxCell>
        <mxCell id="mW3zMy_77x5YiZytnxg1-109" value="" style="group" parent="mW3zMy_77x5YiZytnxg1-108" vertex="1" connectable="0">
          <mxGeometry width="130" height="100" as="geometry" />
        </mxCell>
        <mxCell id="mW3zMy_77x5YiZytnxg1-110" style="vsdxID=5;fillColor=none;gradientColor=none;shape=stencil(vVPLEoIgFP0aljgEVuPa6j+YRGUica6U9vdhUKk4LWzG3X0cOPdcOIilTclrgShpDOiLaGVmSsQOiFJZlQKksRFiR8TSXIMoQN+qzOU175F9dNX3/obOnSP9CUoeLktIFL8KJ4flcLZN8NhtRJiDwxsf7VwhQHjAhniCDvNONhi04UbqakSuOBQCWy6cK16MWk0rRB2U/XRKVgMlSRwl+1nyhWI+s0+Xs4KYgNvPtlBKuJvVniX4En+9yfxWVpDx2yc2+Bosl0o5fw77U0PakjMzOz4B);strokeColor=#ff5958;spacingTop=-3;spacingBottom=-3;spacingLeft=-3;spacingRight=-3;points=[];labelBackgroundColor=none;rounded=0;html=1;whiteSpace=wrap;container=0;movable=0;resizable=0;rotatable=0;deletable=0;editable=0;locked=1;connectable=0;" parent="mW3zMy_77x5YiZytnxg1-109" vertex="1">
          <mxGeometry width="130" height="100" as="geometry" />
        </mxCell>
        <mxCell id="mW3zMy_77x5YiZytnxg1-111" value="&lt;div style=&quot;font-size: 22.58px;&quot;&gt;&lt;font style=&quot;font-family: Arial; color: rgb(0, 0, 0); direction: ltr; letter-spacing: 0px; line-height: 120%; opacity: 1; font-size: 22.58px;&quot;&gt;InsureTech&lt;/font&gt;&lt;/div&gt;&lt;div style=&quot;font-size: 22.58px;&quot;&gt;&lt;font style=&quot;font-family: Arial; color: rgb(0, 0, 0); direction: ltr; letter-spacing: 0px; line-height: 120%; opacity: 1; font-size: 22.58px;&quot;&gt;namespace&lt;/font&gt;&lt;/div&gt;" style="verticalAlign=bottom;align=center;overflow=width;vsdxID=6;fillColor=none;gradientColor=none;strokeColor=none;spacingTop=-3;spacingBottom=-3;spacingLeft=-3;spacingRight=-3;points=[];labelBackgroundColor=none;rounded=0;html=1;whiteSpace=wrap;container=0;" parent="mW3zMy_77x5YiZytnxg1-109" vertex="1">
          <mxGeometry y="40" width="130" height="54" as="geometry" />
        </mxCell>
        <mxCell id="mW3zMy_77x5YiZytnxg1-112" value="" style="shape=image;verticalLabelPosition=bottom;verticalAlign=top;imageAspect=0;aspect=fixed;image=data:image/svg+xml,PHN2ZyB4bWxucz0iaHR0cDovL3d3dy53My5vcmcvMjAwMC9zdmciIHdpZHRoPSIzMiIgaGVpZ2h0PSIzMiIgdmlld0JveD0iMCAwIDMyIDMyIiBmaWxsPSJub25lIj4mI3hhOzxwYXRoIGQ9Ik0wIDE2QzAgNy4xNjM0NCA3LjE2MzQ0IDAgMTYgMFYwQzI0LjgzNjYgMCAzMiA3LjE2MzQ0IDMyIDE2VjE2QzMyIDI0LjgzNjYgMjQuODM2NiAzMiAxNiAzMlYzMkM3LjE2MzQ0IDMyIDAgMjQuODM2NiAwIDE2VjE2WiIgZmlsbD0iIzUyODJGRiIvPiYjeGE7PHBhdGggZD0iTTExLjk5NSAyNEw3LjAwMDk4IDE3LjczOEw4Ljc4MTk4IDkuOTI3TDE2IDYuNDUzTDIzLjIxOCA5LjkyOEwyNC45OTkgMTcuNzM5TDIwLjAwNSAyNEgxMS45OTVaTTIwIDEzLjE5NkwxNS45OTkgMTAuODk5TDEyIDEzLjE5NlYxOC4xTDE2IDIwLjQwMUwyMCAxOC4xVjEzLjE5NlpNMTguNzggMTMuODk2SDE4Ljc4N0wxNiAxNS40OTlMMTMuMjE0IDEzLjg5NUgxMy4yMTlMMTUuOTk5IDEyLjI5OUwxOC43OCAxMy44OTZaIiBmaWxsPSJ3aGl0ZSIvPiYjeGE7PC9zdmc+;container=0;" parent="mW3zMy_77x5YiZytnxg1-108" vertex="1">
          <mxGeometry x="64" y="10" width="28.571428571428573" height="28.571428571428573" as="geometry" />
        </mxCell>
        <mxCell id="mW3zMy_77x5YiZytnxg1-113" value="" style="group" parent="1" vertex="1" connectable="0">
          <mxGeometry x="-790" y="610" width="130" height="100" as="geometry" />
        </mxCell>
        <mxCell id="mW3zMy_77x5YiZytnxg1-114" value="" style="group" parent="mW3zMy_77x5YiZytnxg1-113" vertex="1" connectable="0">
          <mxGeometry width="130" height="100" as="geometry" />
        </mxCell>
        <mxCell id="mW3zMy_77x5YiZytnxg1-115" style="vsdxID=5;fillColor=none;gradientColor=none;shape=stencil(vVPLEoIgFP0aljgEVuPa6j+YRGUica6U9vdhUKk4LWzG3X0cOPdcOIilTclrgShpDOiLaGVmSsQOiFJZlQKksRFiR8TSXIMoQN+qzOU175F9dNX3/obOnSP9CUoeLktIFL8KJ4flcLZN8NhtRJiDwxsf7VwhQHjAhniCDvNONhi04UbqakSuOBQCWy6cK16MWk0rRB2U/XRKVgMlSRwl+1nyhWI+s0+Xs4KYgNvPtlBKuJvVniX4En+9yfxWVpDx2yc2+Bosl0o5fw77U0PakjMzOz4B);strokeColor=#ff5958;spacingTop=-3;spacingBottom=-3;spacingLeft=-3;spacingRight=-3;points=[];labelBackgroundColor=none;rounded=0;html=1;whiteSpace=wrap;container=0;movable=0;resizable=0;rotatable=0;deletable=0;editable=0;locked=1;connectable=0;" parent="mW3zMy_77x5YiZytnxg1-114" vertex="1">
          <mxGeometry width="130" height="100" as="geometry" />
        </mxCell>
        <mxCell id="mW3zMy_77x5YiZytnxg1-116" value="&lt;div style=&quot;font-size: 1px&quot;&gt;&lt;font style=&quot;font-size:22.58px;font-family:Arial;color:#000000;direction:ltr;letter-spacing:0px;line-height:120%;opacity:1&quot;&gt;InsureTech&lt;/font&gt;&lt;/div&gt;&lt;div style=&quot;font-size: 1px&quot;&gt;&lt;font style=&quot;font-size:22.58px;font-family:Arial;color:#000000;direction:ltr;letter-spacing:0px;line-height:120%;opacity:1&quot;&gt;namespace&lt;/font&gt;&lt;/div&gt;" style="verticalAlign=bottom;align=center;overflow=width;vsdxID=6;fillColor=none;gradientColor=none;strokeColor=none;spacingTop=-3;spacingBottom=-3;spacingLeft=-3;spacingRight=-3;points=[];labelBackgroundColor=none;rounded=0;html=1;whiteSpace=wrap;container=0;" parent="mW3zMy_77x5YiZytnxg1-114" vertex="1">
          <mxGeometry y="40" width="130" height="54" as="geometry" />
        </mxCell>
        <mxCell id="mW3zMy_77x5YiZytnxg1-117" style="rounded=0;orthogonalLoop=1;jettySize=auto;html=1;exitX=0.14;exitY=1.002;exitDx=0;exitDy=0;exitPerimeter=0;" parent="mW3zMy_77x5YiZytnxg1-114" source="mW3zMy_77x5YiZytnxg1-124" edge="1">
          <mxGeometry relative="1" as="geometry">
            <mxPoint x="67" y="-66" as="sourcePoint" />
            <mxPoint x="66" as="targetPoint" />
          </mxGeometry>
        </mxCell>
        <mxCell id="mW3zMy_77x5YiZytnxg1-118" value="" style="shape=image;verticalLabelPosition=bottom;verticalAlign=top;imageAspect=0;aspect=fixed;image=data:image/svg+xml,PHN2ZyB4bWxucz0iaHR0cDovL3d3dy53My5vcmcvMjAwMC9zdmciIHdpZHRoPSIzMiIgaGVpZ2h0PSIzMiIgdmlld0JveD0iMCAwIDMyIDMyIiBmaWxsPSJub25lIj4mI3hhOzxwYXRoIGQ9Ik0wIDE2QzAgNy4xNjM0NCA3LjE2MzQ0IDAgMTYgMFYwQzI0LjgzNjYgMCAzMiA3LjE2MzQ0IDMyIDE2VjE2QzMyIDI0LjgzNjYgMjQuODM2NiAzMiAxNiAzMlYzMkM3LjE2MzQ0IDMyIDAgMjQuODM2NiAwIDE2VjE2WiIgZmlsbD0iIzUyODJGRiIvPiYjeGE7PHBhdGggZD0iTTExLjk5NSAyNEw3LjAwMDk4IDE3LjczOEw4Ljc4MTk4IDkuOTI3TDE2IDYuNDUzTDIzLjIxOCA5LjkyOEwyNC45OTkgMTcuNzM5TDIwLjAwNSAyNEgxMS45OTVaTTIwIDEzLjE5NkwxNS45OTkgMTAuODk5TDEyIDEzLjE5NlYxOC4xTDE2IDIwLjQwMUwyMCAxOC4xVjEzLjE5NlpNMTguNzggMTMuODk2SDE4Ljc4N0wxNiAxNS40OTlMMTMuMjE0IDEzLjg5NUgxMy4yMTlMMTUuOTk5IDEyLjI5OUwxOC43OCAxMy44OTZaIiBmaWxsPSJ3aGl0ZSIvPiYjeGE7PC9zdmc+;container=0;" parent="mW3zMy_77x5YiZytnxg1-113" vertex="1">
          <mxGeometry x="65" y="10" width="28.571428571428573" height="28.571428571428573" as="geometry" />
        </mxCell>
        <mxCell id="mW3zMy_77x5YiZytnxg1-119" value="" style="group" parent="1" vertex="1" connectable="0">
          <mxGeometry x="-450" y="610" width="130" height="100" as="geometry" />
        </mxCell>
        <mxCell id="mW3zMy_77x5YiZytnxg1-120" value="" style="group" parent="mW3zMy_77x5YiZytnxg1-119" vertex="1" connectable="0">
          <mxGeometry width="130" height="100" as="geometry" />
        </mxCell>
        <mxCell id="mW3zMy_77x5YiZytnxg1-121" style="vsdxID=5;fillColor=none;gradientColor=none;shape=stencil(vVPLEoIgFP0aljgEVuPa6j+YRGUica6U9vdhUKk4LWzG3X0cOPdcOIilTclrgShpDOiLaGVmSsQOiFJZlQKksRFiR8TSXIMoQN+qzOU175F9dNX3/obOnSP9CUoeLktIFL8KJ4flcLZN8NhtRJiDwxsf7VwhQHjAhniCDvNONhi04UbqakSuOBQCWy6cK16MWk0rRB2U/XRKVgMlSRwl+1nyhWI+s0+Xs4KYgNvPtlBKuJvVniX4En+9yfxWVpDx2yc2+Bosl0o5fw77U0PakjMzOz4B);strokeColor=#ff5958;spacingTop=-3;spacingBottom=-3;spacingLeft=-3;spacingRight=-3;points=[];labelBackgroundColor=none;rounded=0;html=1;whiteSpace=wrap;container=0;movable=0;resizable=0;rotatable=0;deletable=0;editable=0;locked=1;connectable=0;" parent="mW3zMy_77x5YiZytnxg1-120" vertex="1">
          <mxGeometry width="130" height="100" as="geometry" />
        </mxCell>
        <mxCell id="mW3zMy_77x5YiZytnxg1-122" value="&lt;div style=&quot;font-size: 1px&quot;&gt;&lt;font style=&quot;font-size:22.58px;font-family:Arial;color:#000000;direction:ltr;letter-spacing:0px;line-height:120%;opacity:1&quot;&gt;InsureTech&lt;/font&gt;&lt;/div&gt;&lt;div style=&quot;font-size: 1px&quot;&gt;&lt;font style=&quot;font-size:22.58px;font-family:Arial;color:#000000;direction:ltr;letter-spacing:0px;line-height:120%;opacity:1&quot;&gt;namespace&lt;/font&gt;&lt;/div&gt;" style="verticalAlign=bottom;align=center;overflow=width;vsdxID=6;fillColor=none;gradientColor=none;strokeColor=none;spacingTop=-3;spacingBottom=-3;spacingLeft=-3;spacingRight=-3;points=[];labelBackgroundColor=none;rounded=0;html=1;whiteSpace=wrap;container=0;" parent="mW3zMy_77x5YiZytnxg1-120" vertex="1">
          <mxGeometry y="40" width="130" height="54" as="geometry" />
        </mxCell>
        <mxCell id="mW3zMy_77x5YiZytnxg1-123" value="" style="shape=image;verticalLabelPosition=bottom;verticalAlign=top;imageAspect=0;aspect=fixed;image=data:image/svg+xml,PHN2ZyB4bWxucz0iaHR0cDovL3d3dy53My5vcmcvMjAwMC9zdmciIHdpZHRoPSIzMiIgaGVpZ2h0PSIzMiIgdmlld0JveD0iMCAwIDMyIDMyIiBmaWxsPSJub25lIj4mI3hhOzxwYXRoIGQ9Ik0wIDE2QzAgNy4xNjM0NCA3LjE2MzQ0IDAgMTYgMFYwQzI0LjgzNjYgMCAzMiA3LjE2MzQ0IDMyIDE2VjE2QzMyIDI0LjgzNjYgMjQuODM2NiAzMiAxNiAzMlYzMkM3LjE2MzQ0IDMyIDAgMjQuODM2NiAwIDE2VjE2WiIgZmlsbD0iIzUyODJGRiIvPiYjeGE7PHBhdGggZD0iTTExLjk5NSAyNEw3LjAwMDk4IDE3LjczOEw4Ljc4MTk4IDkuOTI3TDE2IDYuNDUzTDIzLjIxOCA5LjkyOEwyNC45OTkgMTcuNzM5TDIwLjAwNSAyNEgxMS45OTVaTTIwIDEzLjE5NkwxNS45OTkgMTAuODk5TDEyIDEzLjE5NlYxOC4xTDE2IDIwLjQwMUwyMCAxOC4xVjEzLjE5NlpNMTguNzggMTMuODk2SDE4Ljc4N0wxNiAxNS40OTlMMTMuMjE0IDEzLjg5NUgxMy4yMTlMMTUuOTk5IDEyLjI5OUwxOC43OCAxMy44OTZaIiBmaWxsPSJ3aGl0ZSIvPiYjeGE7PC9zdmc+;container=0;" parent="mW3zMy_77x5YiZytnxg1-119" vertex="1">
          <mxGeometry x="65" y="10" width="28.571428571428573" height="28.571428571428573" as="geometry" />
        </mxCell>
        <mxCell id="mW3zMy_77x5YiZytnxg1-125" value="" style="shape=image;verticalLabelPosition=bottom;verticalAlign=top;imageAspect=0;aspect=fixed;image=data:image/svg+xml,PHN2ZyB4bWxucz0iaHR0cDovL3d3dy53My5vcmcvMjAwMC9zdmciIHdpZHRoPSIzMiIgaGVpZ2h0PSIzMiIgdmlld0JveD0iMCAwIDMyIDMyIiBmaWxsPSJub25lIj4mI3hhOzxwYXRoIGQ9Ik0wIDE2QzAgNy4xNjM0NCA3LjE2MzQ0IDAgMTYgMEMyNC44MzY2IDAgMzIgNy4xNjM0NCAzMiAxNkMzMiAyNC44MzY2IDI0LjgzNjYgMzIgMTYgMzJDNy4xNjM0NCAzMiAwIDI0LjgzNjYgMCAxNloiIGZpbGw9IiM1MjgyRkYiLz4mI3hhOzxwYXRoIGZpbGwtcnVsZT0iZXZlbm9kZCIgY2xpcC1ydWxlPSJldmVub2RkIiBkPSJNMTYgMjRWMjMuOTg3QzE1LjkwMTcgMjMuOTg3MyAxNS44MDQzIDIzLjk2ODEgMTUuNzEzNCAyMy45MzA3QzE1LjYyMjUgMjMuODkzMyAxNS41Mzk4IDIzLjgzODQgMTUuNDcwMSAyMy43NjlDMTUuNDAwNSAyMy42OTk2IDE1LjM0NTIgMjMuNjE3MiAxNS4zMDc0IDIzLjUyNjRDMTUuMjY5NiAyMy40MzU2IDE1LjI1MDEgMjMuMzM4MyAxNS4yNSAyMy4yNFYyMC43NkMxNS4yNSAyMC4zNDcgMTUuNTg1IDIwLjAxMyAxNiAyMC4wMTNDMTYuNDEzIDIwLjAxMyAxNi43NSAyMC4zNDcgMTYuNzUgMjAuNzZWMjIuNTQ3QzE4LjM1NTEgMjIuMzU5IDE5LjgzNTMgMjEuNTg4NiAyMC45MTAzIDIwLjM4MTlDMjEuOTg1MiAxOS4xNzUyIDIyLjU4IDE3LjYxNiAyMi41ODIgMTZDMjIuNTgyIDE0LjQ0IDIyLjAzMiAxMyAyMS4xMTggMTEuODY3QzIwLjkxNDEgMTEuOTU5MSAyMC42OTIzIDEyLjAwNDQgMjAuNDY4NiAxMS45OTk3QzIwLjI0NSAxMS45OTQ5IDIwLjAyNTMgMTEuOTQwMiAxOS44MjU1IDExLjgzOTVDMTkuNjI1NyAxMS43Mzg5IDE5LjQ1MSAxMS41OTQ4IDE5LjMxNDEgMTEuNDE3OUMxOS4xNzczIDExLjI0MSAxOS4wODE3IDExLjAzNTcgMTkuMDM0NCAxMC44MTdDMTguOTg3MSAxMC41OTg0IDE4Ljk4OTMgMTAuMzcyIDE5LjA0MDkgMTAuMTU0M0MxOS4wOTI0IDkuOTM2NjQgMTkuMTkyIDkuNzMzMjYgMTkuMzMyMyA5LjU1OTA1QzE5LjQ3MjcgOS4zODQ4NSAxOS42NTAyIDkuMjQ0MjMgMTkuODUxOCA5LjE0NzVDMjAuMDUzNSA5LjA1MDc3IDIwLjI3NDMgOS4wMDAzNyAyMC40OTggOUMyMC43MTI4IDguOTk5MTcgMjAuOTI1MyA5LjA0NDU4IDIxLjEyMSA5LjEzMzE1QzIxLjMxNjcgOS4yMjE3MiAyMS40OTExIDkuMzUxMzggMjEuNjMyMyA5LjUxMzMyQzIxLjc3MzQgOS42NzUyNSAyMS44NzgxIDkuODY1NjcgMjEuOTM5MSAxMC4wNzE2QzIyLjAwMDEgMTAuMjc3NiAyMi4wMTYxIDEwLjQ5NDMgMjEuOTg2IDEwLjcwN0MyMy4yODUyIDEyLjE2MzcgMjQuMDAxOSAxNC4wNDgxIDIzLjk5OSAxNkMyMy45OTkgMjAuNDEzIDIwLjQxNCAyNCAxNiAyNFpNOS44OCAyMS40MjdDOS44OCAyMS4zMzMgOS44ODYgMjEuMjUzIDkuOSAyMS4xNzNDOC42NzIyNCAxOS43MjkxIDcuOTk4NjkgMTcuODk1MyA4IDE2QzggMTEuNTg3IDExLjU4NSA4IDE1Ljk5OSA4VjguMDEzQzE2LjE5ODggOC4wMTU2MyAxNi4zODk2IDguMDk2ODYgMTYuNTMgOC4yMzkxQzE2LjY3MDMgOC4zODEzNSAxNi43NDkgOC41NzMxNiAxNi43NDkgOC43NzNWMTEuMjRDMTYuNzQ5IDExLjQzODkgMTYuNjcgMTEuNjI5NyAxNi41MjkzIDExLjc3MDNDMTYuMzg4NyAxMS45MTEgMTYuMTk3OSAxMS45OSAxNS45OTkgMTEuOTlDMTUuODAwMSAxMS45OSAxNS42MDkzIDExLjkxMSAxNS40Njg3IDExLjc3MDNDMTUuMzI4IDExLjYyOTcgMTUuMjQ5IDExLjQzODkgMTUuMjQ5IDExLjI0TDE1LjI0NyA5LjQ1M0MxMy42NDIxIDkuNjQxMDggMTIuMTYyMSAxMC40MTE1IDExLjA4NzUgMTEuNjE4M0MxMC4wMTI5IDEyLjgyNSA5LjQxODUxIDE0LjM4NDIgOS40MTcgMTZDOS40MTcgMTcuNTIgOS45MzMgMTguOTIgMTAuNzk5IDIwLjA0QzExLjAwMzkgMTkuOTUyNyAxMS4yMjU3IDE5LjkxMjIgMTEuNDQ4MiAxOS45MjEzQzExLjY3MDcgMTkuOTMwNCAxMS44ODg0IDE5Ljk4ODkgMTIuMDg1NSAyMC4wOTI3QzEyLjI4MjYgMjAuMTk2NCAxMi40NTQxIDIwLjM0MjcgMTIuNTg3NiAyMC41MjFDMTIuNzIxMSAyMC42OTkzIDEyLjgxMzIgMjAuOTA1MSAxMi44NTcyIDIxLjEyMzRDMTIuOTAxMyAyMS4zNDE3IDEyLjg5NjEgMjEuNTY3MSAxMi44NDIyIDIxLjc4MzJDMTIuNzg4MyAyMS45OTkzIDEyLjY4NjkgMjIuMjAwNiAxMi41NDU1IDIyLjM3MjdDMTIuNDA0IDIyLjU0NDcgMTIuMjI2IDIyLjY4MzEgMTIuMDI0NSAyMi43Nzc4QzExLjgyMjkgMjIuODcyNCAxMS42MDI3IDIyLjkyMSAxMS4zOCAyMi45MkMxMC45ODMxIDIyLjkyMDggMTAuNjAyMiAyMi43NjQgMTAuMzIwOSAyMi40ODRDMTAuMDM5NyAyMi4yMDQxIDkuODgxMDYgMjEuODIzOSA5Ljg4IDIxLjQyN1pNMTMuNSAxNkMxMy40OTQyIDE1LjY2NzYgMTMuNTU0OCAxNS4zMzczIDEzLjY3ODIgMTUuMDI4NkMxMy44MDE1IDE0LjcxOTggMTMuOTg1MyAxNC40Mzg4IDE0LjIxODYgMTQuMjAyQzE0LjQ1MTkgMTMuOTY1MSAxNC43MzAxIDEzLjc3NzEgMTUuMDM3IDEzLjY0OTFDMTUuMzQzOCAxMy41MjExIDE1LjY3MzEgMTMuNDU1NiAxNi4wMDU2IDEzLjQ1NjRDMTYuMzM4MSAxMy40NTcyIDE2LjY2NzEgMTMuNTI0MyAxNi45NzMzIDEzLjY1MzhDMTcuMjc5NSAxMy43ODMzIDE3LjU1NjkgMTMuOTcyNSAxNy43ODkgMTQuMjEwNUMxOC4wMjEyIDE0LjQ0ODUgMTguMjAzNiAxNC43MzA0IDE4LjMyNTUgMTUuMDM5N0MxOC40NDc0IDE1LjM0OTEgMTguNTA2NCAxNS42Nzk2IDE4LjQ5OSAxNi4wMTJDMTguNDg0NCAxNi42NjYzIDE4LjIxMzkgMTcuMjg4OCAxNy43NDU1IDE3Ljc0NThDMTcuMjc3IDE4LjIwMjggMTYuNjQ4MSAxOC40NTc5IDE1Ljk5MzYgMTguNDU2NEMxNS4zMzkyIDE4LjQ1NDggMTQuNzExNCAxOC4xOTY3IDE0LjI0NTIgMTcuNzM3NEMxMy43NzkgMTcuMjc4MSAxMy41MTE0IDE2LjY1NDMgMTMuNSAxNloiIGZpbGw9IndoaXRlIi8+JiN4YTs8L3N2Zz4=;" parent="1" vertex="1">
          <mxGeometry x="-752" y="482" width="32" height="32" as="geometry" />
        </mxCell>
        <mxCell id="mW3zMy_77x5YiZytnxg1-126" value="&lt;font style=&quot;font-size: 22.58px;&quot;&gt;Cluster LB&lt;/font&gt;&lt;div&gt;&lt;font style=&quot;&quot;&gt;&lt;span style=&quot;font-size: 22.58px;&quot;&gt;(HAProxy)&lt;/span&gt;&lt;br&gt;&lt;/font&gt;&lt;/div&gt;" style="text;html=1;align=center;verticalAlign=middle;whiteSpace=wrap;rounded=0;fontSize=22.58;" parent="1" vertex="1">
          <mxGeometry x="-743" y="483" width="202" height="30" as="geometry" />
        </mxCell>
        <mxCell id="mW3zMy_77x5YiZytnxg1-127" style="rounded=0;orthogonalLoop=1;jettySize=auto;html=1;edgeStyle=orthogonalEdgeStyle;endArrow=none;endFill=0;" parent="1" edge="1">
          <mxGeometry relative="1" as="geometry">
            <mxPoint x="-723" y="710" as="sourcePoint" />
            <mxPoint x="-526" y="841" as="targetPoint" />
            <Array as="points">
              <mxPoint x="-723" y="711" />
              <mxPoint x="-724" y="711" />
              <mxPoint x="-724" y="751" />
              <mxPoint x="-526" y="751" />
              <mxPoint x="-526" y="841" />
            </Array>
          </mxGeometry>
        </mxCell>
        <mxCell id="mW3zMy_77x5YiZytnxg1-128" style="rounded=0;orthogonalLoop=1;jettySize=auto;html=1;edgeStyle=orthogonalEdgeStyle;endArrow=none;endFill=0;" parent="1" edge="1">
          <mxGeometry relative="1" as="geometry">
            <mxPoint x="-553" y="710" as="sourcePoint" />
            <mxPoint x="-526" y="843" as="targetPoint" />
            <Array as="points">
              <mxPoint x="-553" y="711" />
              <mxPoint x="-554" y="711" />
              <mxPoint x="-554" y="751" />
              <mxPoint x="-526" y="751" />
              <mxPoint x="-526" y="843" />
            </Array>
          </mxGeometry>
        </mxCell>
        <mxCell id="mW3zMy_77x5YiZytnxg1-132" style="rounded=0;orthogonalLoop=1;jettySize=auto;html=1;exitX=0.155;exitY=1;exitDx=0;exitDy=0;exitPerimeter=0;entryX=0.53;entryY=-0.001;entryDx=0;entryDy=0;entryPerimeter=0;horizontal=1;" parent="1" source="xm-ctFpzYZ5bEvGxBskp-87" target="mW3zMy_77x5YiZytnxg1-104" edge="1">
          <mxGeometry relative="1" as="geometry">
            <mxPoint x="-600" y="279" as="sourcePoint" />
            <mxPoint x="-599" y="367" as="targetPoint" />
          </mxGeometry>
        </mxCell>
        <mxCell id="mW3zMy_77x5YiZytnxg1-94" style="vsdxID=5;fillColor=none;gradientColor=none;shape=stencil(vVPLEoIgFP0aljgEVuPa6j+YRGUica6U9vdhUKk4LWzG3X0cOPdcOIilTclrgShpDOiLaGVmSsQOiFJZlQKksRFiR8TSXIMoQN+qzOU175F9dNX3/obOnSP9CUoeLktIFL8KJ4flcLZN8NhtRJiDwxsf7VwhQHjAhniCDvNONhi04UbqakSuOBQCWy6cK16MWk0rRB2U/XRKVgMlSRwl+1nyhWI+s0+Xs4KYgNvPtlBKuJvVniX4En+9yfxWVpDx2yc2+Bosl0o5fw77U0PakjMzOz4B);strokeColor=#ff5958;spacingTop=-3;spacingBottom=-3;spacingLeft=-3;spacingRight=-3;points=[];labelBackgroundColor=none;rounded=0;html=1;whiteSpace=wrap;container=0;" parent="1" vertex="1">
          <mxGeometry x="-605" y="863.11" width="130" height="105.5" as="geometry" />
        </mxCell>
        <mxCell id="mW3zMy_77x5YiZytnxg1-93" style="vsdxID=6;fillColor=none;gradientColor=none;shape=stencil(vVNdD4IgFP01POIQms1nq//BEpVF4q6U9u/DoFJxPdjm2/04cO65cBDL2oo3AlHSGtAX0cncVIgdEKWyrgRIYyPEjohlhQZRgr7VucsbPiCH6Krvww29O0eGE5Q8XJaSaPcqnByWw9k2wWNZRFMHhzc+SlwhQHhATDxBj3kvWwzacCN1PSFXHEqBLRcuFC8nrbYTognKfjol65GSNIn28SL5SjGf2efL2UBMwO1nWykl3M1mzxJ8ib/eZHkrG8j47RMbfA1WSKWcP8f9uSFtyZmZHZ8=);strokeColor=#5282ff;spacingTop=-3;spacingBottom=-3;spacingLeft=-3;spacingRight=-3;points=[];labelBackgroundColor=none;rounded=0;html=1;whiteSpace=wrap;container=0;movable=0;resizable=0;rotatable=0;deletable=0;editable=0;locked=1;connectable=0;" parent="1" vertex="1">
          <mxGeometry x="-788" y="844" width="320" height="133.70999999999998" as="geometry" />
        </mxCell>
        <mxCell id="mW3zMy_77x5YiZytnxg1-95" value="&lt;div style=&quot;font-size: 1px&quot;&gt;&lt;font style=&quot;font-size:22.58px;font-family:Arial;color:#000000;direction:ltr;letter-spacing:0px;line-height:120%;opacity:1&quot;&gt;PosrgreSQL&lt;br&gt;&lt;/font&gt;&lt;/div&gt;&lt;div style=&quot;font-size: 1px&quot;&gt;&lt;font style=&quot;font-size:22.58px;font-family:Arial;color:#000000;direction:ltr;letter-spacing:0px;line-height:120%;opacity:1&quot;&gt;(replica)&lt;/font&gt;&lt;/div&gt;" style="verticalAlign=bottom;align=center;overflow=width;vsdxID=6;fillColor=none;gradientColor=none;strokeColor=none;spacingTop=-3;spacingBottom=-3;spacingLeft=-3;spacingRight=-3;points=[];labelBackgroundColor=none;rounded=0;html=1;whiteSpace=wrap;container=0;" parent="1" vertex="1">
          <mxGeometry x="-605" y="908.11" width="130" height="53.21" as="geometry" />
        </mxCell>
        <mxCell id="mW3zMy_77x5YiZytnxg1-96" value="" style="shape=image;verticalLabelPosition=bottom;verticalAlign=top;imageAspect=0;aspect=fixed;image=data:image/svg+xml,PHN2ZyB4bWxucz0iaHR0cDovL3d3dy53My5vcmcvMjAwMC9zdmciIHdpZHRoPSIzMiIgaGVpZ2h0PSIzMiIgdmlld0JveD0iMCAwIDMyIDMyIiBmaWxsPSJub25lIj4mI3hhOzxwYXRoIGQ9Ik0wIDE2QzAgNy4xNjM0NCA3LjE2MzQ0IDAgMTYgMFYwQzI0LjgzNjYgMCAzMiA3LjE2MzQ0IDMyIDE2VjE2QzMyIDI0LjgzNjYgMjQuODM2NiAzMiAxNiAzMlYzMkM3LjE2MzQ0IDMyIDAgMjQuODM2NiAwIDE2VjE2WiIgZmlsbD0iIzUyODJGRiIvPiYjeGE7PHBhdGggZmlsbC1ydWxlPSJldmVub2RkIiBjbGlwLXJ1bGU9ImV2ZW5vZGQiIGQ9Ik0xMyA4SDE4QzIxLjMgOCAyNCAxMC43IDI0IDE0VjI0SDIwVjIwSDIyVjE5SDE4LjZDMTUuNSAxOSAxMyAxNi41IDEzIDEzLjRWOFpNMTkgMTdIMjFWMTVIMTlWMTdaTTEyIDkuMDk5OThWMTMuNEMxMiAxNi44IDE0LjYgMTkuNyAxOCAyMC4xVjIwLjZDMTggMjIgMTUuOCAyMy4xIDEzIDIzLjFDMTAuMiAyMy4xIDggMjIgOCAyMC42VjExLjZDOCAxMC4zIDkuNyA5LjI5OTk4IDEyIDkuMDk5OThaIiBmaWxsPSJ3aGl0ZSIvPiYjeGE7PC9zdmc+;container=0;" parent="1" vertex="1">
          <mxGeometry x="-560.5" y="867.11" width="36.26923076923077" height="36.26923076923077" as="geometry" />
        </mxCell>
        <mxCell id="mW3zMy_77x5YiZytnxg1-91" value="" style="shape=image;verticalLabelPosition=bottom;verticalAlign=top;imageAspect=0;aspect=fixed;image=data:image/svg+xml,PHN2ZyB4bWxucz0iaHR0cDovL3d3dy53My5vcmcvMjAwMC9zdmciIHdpZHRoPSIzMiIgaGVpZ2h0PSIzMiIgdmlld0JveD0iMCAwIDMyIDMyIiBmaWxsPSJub25lIj4mI3hhOzxwYXRoIGQ9Ik0wIDE2QzAgNy4xNjM0NCA3LjE2MzQ0IDAgMTYgMFYwQzI0LjgzNjYgMCAzMiA3LjE2MzQ0IDMyIDE2VjE2QzMyIDI0LjgzNjYgMjQuODM2NiAzMiAxNiAzMlYzMkM3LjE2MzQ0IDMyIDAgMjQuODM2NiAwIDE2VjE2WiIgZmlsbD0iIzUyODJGRiIvPiYjeGE7PHBhdGggZD0iTTI0IDE1VjEzSDIyVjExQzIyIDEwLjQgMjEuNiAxMCAyMSAxMEgxOVY4SDE3VjEwSDE1VjhIMTNWMTBIMTFDMTAuNCAxMCAxMCAxMC40IDEwIDExVjEzSDhWMTVIMTBWMTdIOFYxOUgxMFYyMUMxMCAyMS42IDEwLjQgMjIgMTEgMjJIMTNWMjRIMTVWMjJIMTdWMjRIMTlWMjJIMjFDMjEuNiAyMiAyMiAyMS42IDIyIDIxVjE5SDI0VjE3SDIyVjE1SDI0Wk0xOSAxOUgxM1YxM0gxOVYxOVoiIGZpbGw9IndoaXRlIi8+JiN4YTs8L3N2Zz4=;container=0;" parent="1" vertex="1">
          <mxGeometry x="-749.4448484848485" y="884.11" width="25.09090909090909" height="25.09090909090909" as="geometry" />
        </mxCell>
        <mxCell id="mW3zMy_77x5YiZytnxg1-92" value="&lt;div style=&quot;font-size: 1px&quot;&gt;&lt;font style=&quot;font-size:22.58px;font-family:Arial;color:#000000;direction:ltr;letter-spacing:0px;line-height:120%;opacity:1&quot;&gt;VM 2&lt;br&gt;&lt;/font&gt;&lt;/div&gt;" style="verticalAlign=middle;align=center;overflow=width;vsdxID=7;fillColor=none;gradientColor=none;shape=stencil(nZBLDoAgDERP0z3SIyjew0SURgSD+Lu9kMZoXLhwN9O+tukAlrNpJg1SzDH4QW/URgNYgZTkjA4UkwJUgGXng+6DX1zLfmoymdXo17xh5zmRJ6Q42BWCfc2oJfdAr+Yv+AP9Cb7OJ3H/2JG1HNGz/84klThPVCc=);strokeColor=none;points=[];labelBackgroundColor=none;rounded=0;html=1;whiteSpace=wrap;container=0;" parent="1" vertex="1">
          <mxGeometry x="-779.369696969697" y="843" width="93.29454545454544" height="45.88999999999999" as="geometry" />
        </mxCell>
        <mxCell id="mW3zMy_77x5YiZytnxg1-36" style="rounded=0;orthogonalLoop=1;jettySize=auto;html=1;exitX=0.14;exitY=1.002;exitDx=0;exitDy=0;exitPerimeter=0;" parent="1" edge="1">
          <mxGeometry relative="1" as="geometry">
            <mxPoint x="1006" y="563" as="sourcePoint" />
            <mxPoint x="1006" y="611" as="targetPoint" />
          </mxGeometry>
        </mxCell>
        <mxCell id="mW3zMy_77x5YiZytnxg1-37" style="rounded=0;orthogonalLoop=1;jettySize=auto;html=1;exitX=0.14;exitY=1.002;exitDx=0;exitDy=0;exitPerimeter=0;" parent="1" edge="1">
          <mxGeometry relative="1" as="geometry">
            <mxPoint x="1176" y="563" as="sourcePoint" />
            <mxPoint x="1176" y="611" as="targetPoint" />
          </mxGeometry>
        </mxCell>
        <mxCell id="xm-ctFpzYZ5bEvGxBskp-37" value="" style="shape=image;verticalLabelPosition=bottom;verticalAlign=top;imageAspect=0;aspect=fixed;image=data:image/svg+xml,PHN2ZyB4bWxucz0iaHR0cDovL3d3dy53My5vcmcvMjAwMC9zdmciIHdpZHRoPSIzMiIgaGVpZ2h0PSIzMiIgdmlld0JveD0iMCAwIDMyIDMyIiBmaWxsPSJub25lIj4mI3hhOzxwYXRoIGQ9Ik0wIDE2QzAgNy4xNjM0NCA3LjE2MzQ0IDAgMTYgMFYwQzI0LjgzNjYgMCAzMiA3LjE2MzQ0IDMyIDE2VjE2QzMyIDI0LjgzNjYgMjQuODM2NiAzMiAxNiAzMlYzMkM3LjE2MzQ0IDMyIDAgMjQuODM2NiAwIDE2VjE2WiIgZmlsbD0iIzUyODJGRiIvPiYjeGE7PHBhdGggZD0iTTExLjk5NSAyNEw3LjAwMDk4IDE3LjczOEw4Ljc4MTk4IDkuOTI3TDE2IDYuNDUzTDIzLjIxOCA5LjkyOEwyNC45OTkgMTcuNzM5TDIwLjAwNSAyNEgxMS45OTVaTTIwIDEzLjE5NkwxNS45OTkgMTAuODk5TDEyIDEzLjE5NlYxOC4xTDE2IDIwLjQwMUwyMCAxOC4xVjEzLjE5NlpNMTguNzggMTMuODk2SDE4Ljc4N0wxNiAxNS40OTlMMTMuMjE0IDEzLjg5NUgxMy4yMTlMMTUuOTk5IDEyLjI5OUwxOC43OCAxMy44OTZaIiBmaWxsPSJ3aGl0ZSIvPiYjeGE7PC9zdmc+;container=0;" parent="1" vertex="1">
          <mxGeometry x="662.6187048437127" y="496.15" width="27.69545454545455" height="27.69545454545455" as="geometry" />
        </mxCell>
        <mxCell id="xm-ctFpzYZ5bEvGxBskp-38" value="&lt;div style=&quot;font-size: 1px&quot;&gt;&lt;font style=&quot;font-size:22.58px;font-family:Arial;color:#000000;direction:ltr;letter-spacing:0px;line-height:120%;opacity:1&quot;&gt;Kubernetes&lt;br&gt;&lt;/font&gt;&lt;/div&gt;&lt;div style=&quot;font-size: 1px&quot;&gt;&lt;font style=&quot;font-size:22.58px;font-family:Arial;color:#000000;direction:ltr;letter-spacing:0px;line-height:120%;opacity:1&quot;&gt;cluster 3&lt;/font&gt;&lt;/div&gt;" style="verticalAlign=middle;align=center;overflow=width;vsdxID=7;fillColor=none;gradientColor=none;shape=stencil(nZBLDoAgDERP0z3SIyjew0SURgSD+Lu9kMZoXLhwN9O+tukAlrNpJg1SzDH4QW/URgNYgZTkjA4UkwJUgGXng+6DX1zLfmoymdXo17xh5zmRJ6Q42BWCfc2oJfdAr+Yv+AP9Cb7OJ3H/2JG1HNGz/84klThPVCc=);strokeColor=none;points=[];labelBackgroundColor=none;rounded=0;html=1;whiteSpace=wrap;container=0;" parent="1" vertex="1">
          <mxGeometry x="627.8344070627535" y="410" width="118.01288475304223" height="86.13999999999999" as="geometry" />
        </mxCell>
        <mxCell id="mW3zMy_77x5YiZytnxg1-4" value="" style="group" parent="1" vertex="1" connectable="0">
          <mxGeometry x="942" y="610" width="130" height="100" as="geometry" />
        </mxCell>
        <mxCell id="mW3zMy_77x5YiZytnxg1-35" value="" style="group" parent="mW3zMy_77x5YiZytnxg1-4" vertex="1" connectable="0">
          <mxGeometry x="-2" width="130" height="100" as="geometry" />
        </mxCell>
        <mxCell id="mW3zMy_77x5YiZytnxg1-5" value="" style="group" parent="mW3zMy_77x5YiZytnxg1-35" vertex="1" connectable="0">
          <mxGeometry width="130" height="100" as="geometry" />
        </mxCell>
        <mxCell id="mW3zMy_77x5YiZytnxg1-6" style="vsdxID=5;fillColor=none;gradientColor=none;shape=stencil(vVPLEoIgFP0aljgEVuPa6j+YRGUica6U9vdhUKk4LWzG3X0cOPdcOIilTclrgShpDOiLaGVmSsQOiFJZlQKksRFiR8TSXIMoQN+qzOU175F9dNX3/obOnSP9CUoeLktIFL8KJ4flcLZN8NhtRJiDwxsf7VwhQHjAhniCDvNONhi04UbqakSuOBQCWy6cK16MWk0rRB2U/XRKVgMlSRwl+1nyhWI+s0+Xs4KYgNvPtlBKuJvVniX4En+9yfxWVpDx2yc2+Bosl0o5fw77U0PakjMzOz4B);strokeColor=#ff5958;spacingTop=-3;spacingBottom=-3;spacingLeft=-3;spacingRight=-3;points=[];labelBackgroundColor=none;rounded=0;html=1;whiteSpace=wrap;container=0;movable=0;resizable=0;rotatable=0;deletable=0;editable=0;locked=1;connectable=0;" parent="mW3zMy_77x5YiZytnxg1-5" vertex="1">
          <mxGeometry width="130" height="100" as="geometry" />
        </mxCell>
        <mxCell id="mW3zMy_77x5YiZytnxg1-7" value="&lt;div style=&quot;font-size: 22.58px;&quot;&gt;&lt;font style=&quot;font-family: Arial; color: rgb(0, 0, 0); direction: ltr; letter-spacing: 0px; line-height: 120%; opacity: 1; font-size: 22.58px;&quot;&gt;InsureTech&lt;/font&gt;&lt;/div&gt;&lt;div style=&quot;font-size: 22.58px;&quot;&gt;&lt;font style=&quot;font-family: Arial; color: rgb(0, 0, 0); direction: ltr; letter-spacing: 0px; line-height: 120%; opacity: 1; font-size: 22.58px;&quot;&gt;namespace&lt;/font&gt;&lt;/div&gt;" style="verticalAlign=bottom;align=center;overflow=width;vsdxID=6;fillColor=none;gradientColor=none;strokeColor=none;spacingTop=-3;spacingBottom=-3;spacingLeft=-3;spacingRight=-3;points=[];labelBackgroundColor=none;rounded=0;html=1;whiteSpace=wrap;container=0;" parent="mW3zMy_77x5YiZytnxg1-5" vertex="1">
          <mxGeometry y="40" width="130" height="54" as="geometry" />
        </mxCell>
        <mxCell id="mW3zMy_77x5YiZytnxg1-8" value="" style="shape=image;verticalLabelPosition=bottom;verticalAlign=top;imageAspect=0;aspect=fixed;image=data:image/svg+xml,PHN2ZyB4bWxucz0iaHR0cDovL3d3dy53My5vcmcvMjAwMC9zdmciIHdpZHRoPSIzMiIgaGVpZ2h0PSIzMiIgdmlld0JveD0iMCAwIDMyIDMyIiBmaWxsPSJub25lIj4mI3hhOzxwYXRoIGQ9Ik0wIDE2QzAgNy4xNjM0NCA3LjE2MzQ0IDAgMTYgMFYwQzI0LjgzNjYgMCAzMiA3LjE2MzQ0IDMyIDE2VjE2QzMyIDI0LjgzNjYgMjQuODM2NiAzMiAxNiAzMlYzMkM3LjE2MzQ0IDMyIDAgMjQuODM2NiAwIDE2VjE2WiIgZmlsbD0iIzUyODJGRiIvPiYjeGE7PHBhdGggZD0iTTExLjk5NSAyNEw3LjAwMDk4IDE3LjczOEw4Ljc4MTk4IDkuOTI3TDE2IDYuNDUzTDIzLjIxOCA5LjkyOEwyNC45OTkgMTcuNzM5TDIwLjAwNSAyNEgxMS45OTVaTTIwIDEzLjE5NkwxNS45OTkgMTAuODk5TDEyIDEzLjE5NlYxOC4xTDE2IDIwLjQwMUwyMCAxOC4xVjEzLjE5NlpNMTguNzggMTMuODk2SDE4Ljc4N0wxNiAxNS40OTlMMTMuMjE0IDEzLjg5NUgxMy4yMTlMMTUuOTk5IDEyLjI5OUwxOC43OCAxMy44OTZaIiBmaWxsPSJ3aGl0ZSIvPiYjeGE7PC9zdmc+;container=0;" parent="mW3zMy_77x5YiZytnxg1-35" vertex="1">
          <mxGeometry x="64" y="10" width="28.571428571428573" height="28.571428571428573" as="geometry" />
        </mxCell>
        <mxCell id="mW3zMy_77x5YiZytnxg1-14" value="" style="group" parent="1" vertex="1" connectable="0">
          <mxGeometry x="768" y="610" width="130" height="100" as="geometry" />
        </mxCell>
        <mxCell id="mW3zMy_77x5YiZytnxg1-10" value="" style="group" parent="mW3zMy_77x5YiZytnxg1-14" vertex="1" connectable="0">
          <mxGeometry width="130" height="100" as="geometry" />
        </mxCell>
        <mxCell id="mW3zMy_77x5YiZytnxg1-11" style="vsdxID=5;fillColor=none;gradientColor=none;shape=stencil(vVPLEoIgFP0aljgEVuPa6j+YRGUica6U9vdhUKk4LWzG3X0cOPdcOIilTclrgShpDOiLaGVmSsQOiFJZlQKksRFiR8TSXIMoQN+qzOU175F9dNX3/obOnSP9CUoeLktIFL8KJ4flcLZN8NhtRJiDwxsf7VwhQHjAhniCDvNONhi04UbqakSuOBQCWy6cK16MWk0rRB2U/XRKVgMlSRwl+1nyhWI+s0+Xs4KYgNvPtlBKuJvVniX4En+9yfxWVpDx2yc2+Bosl0o5fw77U0PakjMzOz4B);strokeColor=#ff5958;spacingTop=-3;spacingBottom=-3;spacingLeft=-3;spacingRight=-3;points=[];labelBackgroundColor=none;rounded=0;html=1;whiteSpace=wrap;container=0;movable=0;resizable=0;rotatable=0;deletable=0;editable=0;locked=1;connectable=0;" parent="mW3zMy_77x5YiZytnxg1-10" vertex="1">
          <mxGeometry width="130" height="100" as="geometry" />
        </mxCell>
        <mxCell id="mW3zMy_77x5YiZytnxg1-12" value="&lt;div style=&quot;font-size: 1px&quot;&gt;&lt;font style=&quot;font-size:22.58px;font-family:Arial;color:#000000;direction:ltr;letter-spacing:0px;line-height:120%;opacity:1&quot;&gt;InsureTech&lt;/font&gt;&lt;/div&gt;&lt;div style=&quot;font-size: 1px&quot;&gt;&lt;font style=&quot;font-size:22.58px;font-family:Arial;color:#000000;direction:ltr;letter-spacing:0px;line-height:120%;opacity:1&quot;&gt;namespace&lt;/font&gt;&lt;/div&gt;" style="verticalAlign=bottom;align=center;overflow=width;vsdxID=6;fillColor=none;gradientColor=none;strokeColor=none;spacingTop=-3;spacingBottom=-3;spacingLeft=-3;spacingRight=-3;points=[];labelBackgroundColor=none;rounded=0;html=1;whiteSpace=wrap;container=0;" parent="mW3zMy_77x5YiZytnxg1-10" vertex="1">
          <mxGeometry y="40" width="130" height="54" as="geometry" />
        </mxCell>
        <mxCell id="mW3zMy_77x5YiZytnxg1-33" style="rounded=0;orthogonalLoop=1;jettySize=auto;html=1;exitX=0.14;exitY=1.002;exitDx=0;exitDy=0;exitPerimeter=0;" parent="mW3zMy_77x5YiZytnxg1-10" source="mW3zMy_77x5YiZytnxg1-15" edge="1">
          <mxGeometry relative="1" as="geometry">
            <mxPoint x="67" y="-66" as="sourcePoint" />
            <mxPoint x="66" as="targetPoint" />
          </mxGeometry>
        </mxCell>
        <mxCell id="mW3zMy_77x5YiZytnxg1-13" value="" style="shape=image;verticalLabelPosition=bottom;verticalAlign=top;imageAspect=0;aspect=fixed;image=data:image/svg+xml,PHN2ZyB4bWxucz0iaHR0cDovL3d3dy53My5vcmcvMjAwMC9zdmciIHdpZHRoPSIzMiIgaGVpZ2h0PSIzMiIgdmlld0JveD0iMCAwIDMyIDMyIiBmaWxsPSJub25lIj4mI3hhOzxwYXRoIGQ9Ik0wIDE2QzAgNy4xNjM0NCA3LjE2MzQ0IDAgMTYgMFYwQzI0LjgzNjYgMCAzMiA3LjE2MzQ0IDMyIDE2VjE2QzMyIDI0LjgzNjYgMjQuODM2NiAzMiAxNiAzMlYzMkM3LjE2MzQ0IDMyIDAgMjQuODM2NiAwIDE2VjE2WiIgZmlsbD0iIzUyODJGRiIvPiYjeGE7PHBhdGggZD0iTTExLjk5NSAyNEw3LjAwMDk4IDE3LjczOEw4Ljc4MTk4IDkuOTI3TDE2IDYuNDUzTDIzLjIxOCA5LjkyOEwyNC45OTkgMTcuNzM5TDIwLjAwNSAyNEgxMS45OTVaTTIwIDEzLjE5NkwxNS45OTkgMTAuODk5TDEyIDEzLjE5NlYxOC4xTDE2IDIwLjQwMUwyMCAxOC4xVjEzLjE5NlpNMTguNzggMTMuODk2SDE4Ljc4N0wxNiAxNS40OTlMMTMuMjE0IDEzLjg5NUgxMy4yMTlMMTUuOTk5IDEyLjI5OUwxOC43OCAxMy44OTZaIiBmaWxsPSJ3aGl0ZSIvPiYjeGE7PC9zdmc+;container=0;" parent="mW3zMy_77x5YiZytnxg1-14" vertex="1">
          <mxGeometry x="65" y="10" width="28.571428571428573" height="28.571428571428573" as="geometry" />
        </mxCell>
        <mxCell id="mW3zMy_77x5YiZytnxg1-3" value="" style="group" parent="1" vertex="1" connectable="0">
          <mxGeometry x="1108" y="610" width="130" height="100" as="geometry" />
        </mxCell>
        <mxCell id="mW3zMy_77x5YiZytnxg1-2" value="" style="group" parent="mW3zMy_77x5YiZytnxg1-3" vertex="1" connectable="0">
          <mxGeometry width="130" height="100" as="geometry" />
        </mxCell>
        <mxCell id="xm-ctFpzYZ5bEvGxBskp-27" style="vsdxID=5;fillColor=none;gradientColor=none;shape=stencil(vVPLEoIgFP0aljgEVuPa6j+YRGUica6U9vdhUKk4LWzG3X0cOPdcOIilTclrgShpDOiLaGVmSsQOiFJZlQKksRFiR8TSXIMoQN+qzOU175F9dNX3/obOnSP9CUoeLktIFL8KJ4flcLZN8NhtRJiDwxsf7VwhQHjAhniCDvNONhi04UbqakSuOBQCWy6cK16MWk0rRB2U/XRKVgMlSRwl+1nyhWI+s0+Xs4KYgNvPtlBKuJvVniX4En+9yfxWVpDx2yc2+Bosl0o5fw77U0PakjMzOz4B);strokeColor=#ff5958;spacingTop=-3;spacingBottom=-3;spacingLeft=-3;spacingRight=-3;points=[];labelBackgroundColor=none;rounded=0;html=1;whiteSpace=wrap;container=0;movable=0;resizable=0;rotatable=0;deletable=0;editable=0;locked=1;connectable=0;" parent="mW3zMy_77x5YiZytnxg1-2" vertex="1">
          <mxGeometry width="130" height="100" as="geometry" />
        </mxCell>
        <mxCell id="xm-ctFpzYZ5bEvGxBskp-28" value="&lt;div style=&quot;font-size: 1px&quot;&gt;&lt;font style=&quot;font-size:22.58px;font-family:Arial;color:#000000;direction:ltr;letter-spacing:0px;line-height:120%;opacity:1&quot;&gt;InsureTech&lt;/font&gt;&lt;/div&gt;&lt;div style=&quot;font-size: 1px&quot;&gt;&lt;font style=&quot;font-size:22.58px;font-family:Arial;color:#000000;direction:ltr;letter-spacing:0px;line-height:120%;opacity:1&quot;&gt;namespace&lt;/font&gt;&lt;/div&gt;" style="verticalAlign=bottom;align=center;overflow=width;vsdxID=6;fillColor=none;gradientColor=none;strokeColor=none;spacingTop=-3;spacingBottom=-3;spacingLeft=-3;spacingRight=-3;points=[];labelBackgroundColor=none;rounded=0;html=1;whiteSpace=wrap;container=0;" parent="mW3zMy_77x5YiZytnxg1-2" vertex="1">
          <mxGeometry y="40" width="130" height="54" as="geometry" />
        </mxCell>
        <mxCell id="xm-ctFpzYZ5bEvGxBskp-26" value="" style="shape=image;verticalLabelPosition=bottom;verticalAlign=top;imageAspect=0;aspect=fixed;image=data:image/svg+xml,PHN2ZyB4bWxucz0iaHR0cDovL3d3dy53My5vcmcvMjAwMC9zdmciIHdpZHRoPSIzMiIgaGVpZ2h0PSIzMiIgdmlld0JveD0iMCAwIDMyIDMyIiBmaWxsPSJub25lIj4mI3hhOzxwYXRoIGQ9Ik0wIDE2QzAgNy4xNjM0NCA3LjE2MzQ0IDAgMTYgMFYwQzI0LjgzNjYgMCAzMiA3LjE2MzQ0IDMyIDE2VjE2QzMyIDI0LjgzNjYgMjQuODM2NiAzMiAxNiAzMlYzMkM3LjE2MzQ0IDMyIDAgMjQuODM2NiAwIDE2VjE2WiIgZmlsbD0iIzUyODJGRiIvPiYjeGE7PHBhdGggZD0iTTExLjk5NSAyNEw3LjAwMDk4IDE3LjczOEw4Ljc4MTk4IDkuOTI3TDE2IDYuNDUzTDIzLjIxOCA5LjkyOEwyNC45OTkgMTcuNzM5TDIwLjAwNSAyNEgxMS45OTVaTTIwIDEzLjE5NkwxNS45OTkgMTAuODk5TDEyIDEzLjE5NlYxOC4xTDE2IDIwLjQwMUwyMCAxOC4xVjEzLjE5NlpNMTguNzggMTMuODk2SDE4Ljc4N0wxNiAxNS40OTlMMTMuMjE0IDEzLjg5NUgxMy4yMTlMMTUuOTk5IDEyLjI5OUwxOC43OCAxMy44OTZaIiBmaWxsPSJ3aGl0ZSIvPiYjeGE7PC9zdmc+;container=0;" parent="mW3zMy_77x5YiZytnxg1-3" vertex="1">
          <mxGeometry x="65" y="10" width="28.571428571428573" height="28.571428571428573" as="geometry" />
        </mxCell>
        <mxCell id="mW3zMy_77x5YiZytnxg1-16" value="" style="shape=image;verticalLabelPosition=bottom;verticalAlign=top;imageAspect=0;aspect=fixed;image=data:image/svg+xml,PHN2ZyB4bWxucz0iaHR0cDovL3d3dy53My5vcmcvMjAwMC9zdmciIHdpZHRoPSIzMiIgaGVpZ2h0PSIzMiIgdmlld0JveD0iMCAwIDMyIDMyIiBmaWxsPSJub25lIj4mI3hhOzxwYXRoIGQ9Ik0wIDE2QzAgNy4xNjM0NCA3LjE2MzQ0IDAgMTYgMEMyNC44MzY2IDAgMzIgNy4xNjM0NCAzMiAxNkMzMiAyNC44MzY2IDI0LjgzNjYgMzIgMTYgMzJDNy4xNjM0NCAzMiAwIDI0LjgzNjYgMCAxNloiIGZpbGw9IiM1MjgyRkYiLz4mI3hhOzxwYXRoIGZpbGwtcnVsZT0iZXZlbm9kZCIgY2xpcC1ydWxlPSJldmVub2RkIiBkPSJNMTYgMjRWMjMuOTg3QzE1LjkwMTcgMjMuOTg3MyAxNS44MDQzIDIzLjk2ODEgMTUuNzEzNCAyMy45MzA3QzE1LjYyMjUgMjMuODkzMyAxNS41Mzk4IDIzLjgzODQgMTUuNDcwMSAyMy43NjlDMTUuNDAwNSAyMy42OTk2IDE1LjM0NTIgMjMuNjE3MiAxNS4zMDc0IDIzLjUyNjRDMTUuMjY5NiAyMy40MzU2IDE1LjI1MDEgMjMuMzM4MyAxNS4yNSAyMy4yNFYyMC43NkMxNS4yNSAyMC4zNDcgMTUuNTg1IDIwLjAxMyAxNiAyMC4wMTNDMTYuNDEzIDIwLjAxMyAxNi43NSAyMC4zNDcgMTYuNzUgMjAuNzZWMjIuNTQ3QzE4LjM1NTEgMjIuMzU5IDE5LjgzNTMgMjEuNTg4NiAyMC45MTAzIDIwLjM4MTlDMjEuOTg1MiAxOS4xNzUyIDIyLjU4IDE3LjYxNiAyMi41ODIgMTZDMjIuNTgyIDE0LjQ0IDIyLjAzMiAxMyAyMS4xMTggMTEuODY3QzIwLjkxNDEgMTEuOTU5MSAyMC42OTIzIDEyLjAwNDQgMjAuNDY4NiAxMS45OTk3QzIwLjI0NSAxMS45OTQ5IDIwLjAyNTMgMTEuOTQwMiAxOS44MjU1IDExLjgzOTVDMTkuNjI1NyAxMS43Mzg5IDE5LjQ1MSAxMS41OTQ4IDE5LjMxNDEgMTEuNDE3OUMxOS4xNzczIDExLjI0MSAxOS4wODE3IDExLjAzNTcgMTkuMDM0NCAxMC44MTdDMTguOTg3MSAxMC41OTg0IDE4Ljk4OTMgMTAuMzcyIDE5LjA0MDkgMTAuMTU0M0MxOS4wOTI0IDkuOTM2NjQgMTkuMTkyIDkuNzMzMjYgMTkuMzMyMyA5LjU1OTA1QzE5LjQ3MjcgOS4zODQ4NSAxOS42NTAyIDkuMjQ0MjMgMTkuODUxOCA5LjE0NzVDMjAuMDUzNSA5LjA1MDc3IDIwLjI3NDMgOS4wMDAzNyAyMC40OTggOUMyMC43MTI4IDguOTk5MTcgMjAuOTI1MyA5LjA0NDU4IDIxLjEyMSA5LjEzMzE1QzIxLjMxNjcgOS4yMjE3MiAyMS40OTExIDkuMzUxMzggMjEuNjMyMyA5LjUxMzMyQzIxLjc3MzQgOS42NzUyNSAyMS44NzgxIDkuODY1NjcgMjEuOTM5MSAxMC4wNzE2QzIyLjAwMDEgMTAuMjc3NiAyMi4wMTYxIDEwLjQ5NDMgMjEuOTg2IDEwLjcwN0MyMy4yODUyIDEyLjE2MzcgMjQuMDAxOSAxNC4wNDgxIDIzLjk5OSAxNkMyMy45OTkgMjAuNDEzIDIwLjQxNCAyNCAxNiAyNFpNOS44OCAyMS40MjdDOS44OCAyMS4zMzMgOS44ODYgMjEuMjUzIDkuOSAyMS4xNzNDOC42NzIyNCAxOS43MjkxIDcuOTk4NjkgMTcuODk1MyA4IDE2QzggMTEuNTg3IDExLjU4NSA4IDE1Ljk5OSA4VjguMDEzQzE2LjE5ODggOC4wMTU2MyAxNi4zODk2IDguMDk2ODYgMTYuNTMgOC4yMzkxQzE2LjY3MDMgOC4zODEzNSAxNi43NDkgOC41NzMxNiAxNi43NDkgOC43NzNWMTEuMjRDMTYuNzQ5IDExLjQzODkgMTYuNjcgMTEuNjI5NyAxNi41MjkzIDExLjc3MDNDMTYuMzg4NyAxMS45MTEgMTYuMTk3OSAxMS45OSAxNS45OTkgMTEuOTlDMTUuODAwMSAxMS45OSAxNS42MDkzIDExLjkxMSAxNS40Njg3IDExLjc3MDNDMTUuMzI4IDExLjYyOTcgMTUuMjQ5IDExLjQzODkgMTUuMjQ5IDExLjI0TDE1LjI0NyA5LjQ1M0MxMy42NDIxIDkuNjQxMDggMTIuMTYyMSAxMC40MTE1IDExLjA4NzUgMTEuNjE4M0MxMC4wMTI5IDEyLjgyNSA5LjQxODUxIDE0LjM4NDIgOS40MTcgMTZDOS40MTcgMTcuNTIgOS45MzMgMTguOTIgMTAuNzk5IDIwLjA0QzExLjAwMzkgMTkuOTUyNyAxMS4yMjU3IDE5LjkxMjIgMTEuNDQ4MiAxOS45MjEzQzExLjY3MDcgMTkuOTMwNCAxMS44ODg0IDE5Ljk4ODkgMTIuMDg1NSAyMC4wOTI3QzEyLjI4MjYgMjAuMTk2NCAxMi40NTQxIDIwLjM0MjcgMTIuNTg3NiAyMC41MjFDMTIuNzIxMSAyMC42OTkzIDEyLjgxMzIgMjAuOTA1MSAxMi44NTcyIDIxLjEyMzRDMTIuOTAxMyAyMS4zNDE3IDEyLjg5NjEgMjEuNTY3MSAxMi44NDIyIDIxLjc4MzJDMTIuNzg4MyAyMS45OTkzIDEyLjY4NjkgMjIuMjAwNiAxMi41NDU1IDIyLjM3MjdDMTIuNDA0IDIyLjU0NDcgMTIuMjI2IDIyLjY4MzEgMTIuMDI0NSAyMi43Nzc4QzExLjgyMjkgMjIuODcyNCAxMS42MDI3IDIyLjkyMSAxMS4zOCAyMi45MkMxMC45ODMxIDIyLjkyMDggMTAuNjAyMiAyMi43NjQgMTAuMzIwOSAyMi40ODRDMTAuMDM5NyAyMi4yMDQxIDkuODgxMDYgMjEuODIzOSA5Ljg4IDIxLjQyN1pNMTMuNSAxNkMxMy40OTQyIDE1LjY2NzYgMTMuNTU0OCAxNS4zMzczIDEzLjY3ODIgMTUuMDI4NkMxMy44MDE1IDE0LjcxOTggMTMuOTg1MyAxNC40Mzg4IDE0LjIxODYgMTQuMjAyQzE0LjQ1MTkgMTMuOTY1MSAxNC43MzAxIDEzLjc3NzEgMTUuMDM3IDEzLjY0OTFDMTUuMzQzOCAxMy41MjExIDE1LjY3MzEgMTMuNDU1NiAxNi4wMDU2IDEzLjQ1NjRDMTYuMzM4MSAxMy40NTcyIDE2LjY2NzEgMTMuNTI0MyAxNi45NzMzIDEzLjY1MzhDMTcuMjc5NSAxMy43ODMzIDE3LjU1NjkgMTMuOTcyNSAxNy43ODkgMTQuMjEwNUMxOC4wMjEyIDE0LjQ0ODUgMTguMjAzNiAxNC43MzA0IDE4LjMyNTUgMTUuMDM5N0MxOC40NDc0IDE1LjM0OTEgMTguNTA2NCAxNS42Nzk2IDE4LjQ5OSAxNi4wMTJDMTguNDg0NCAxNi42NjYzIDE4LjIxMzkgMTcuMjg4OCAxNy43NDU1IDE3Ljc0NThDMTcuMjc3IDE4LjIwMjggMTYuNjQ4MSAxOC40NTc5IDE1Ljk5MzYgMTguNDU2NEMxNS4zMzkyIDE4LjQ1NDggMTQuNzExNCAxOC4xOTY3IDE0LjI0NTIgMTcuNzM3NEMxMy43NzkgMTcuMjc4MSAxMy41MTE0IDE2LjY1NDMgMTMuNSAxNloiIGZpbGw9IndoaXRlIi8+JiN4YTs8L3N2Zz4=;" parent="1" vertex="1">
          <mxGeometry x="806" y="482" width="32" height="32" as="geometry" />
        </mxCell>
        <mxCell id="mW3zMy_77x5YiZytnxg1-25" value="&lt;font style=&quot;font-size: 22.58px;&quot;&gt;Cluster LB&lt;/font&gt;&lt;div&gt;&lt;span style=&quot;font-size: 22.58px;&quot;&gt;(HAProxy)&lt;/span&gt;&lt;/div&gt;" style="text;html=1;align=center;verticalAlign=middle;whiteSpace=wrap;rounded=0;fontSize=22.58;" parent="1" vertex="1">
          <mxGeometry x="806" y="486" width="202" height="30" as="geometry" />
        </mxCell>
        <mxCell id="mW3zMy_77x5YiZytnxg1-38" style="rounded=0;orthogonalLoop=1;jettySize=auto;html=1;edgeStyle=orthogonalEdgeStyle;endArrow=none;endFill=0;" parent="1" edge="1">
          <mxGeometry relative="1" as="geometry">
            <mxPoint x="834" y="710" as="sourcePoint" />
            <mxPoint x="1004" y="842" as="targetPoint" />
            <Array as="points">
              <mxPoint x="834" y="751" />
              <mxPoint x="1004" y="751" />
              <mxPoint x="1004" y="842" />
              <mxPoint x="1004" y="842" />
            </Array>
          </mxGeometry>
        </mxCell>
        <mxCell id="mW3zMy_77x5YiZytnxg1-39" style="rounded=0;orthogonalLoop=1;jettySize=auto;html=1;edgeStyle=orthogonalEdgeStyle;entryX=0.392;entryY=0.008;entryDx=0;entryDy=0;entryPerimeter=0;" parent="1" target="xm-ctFpzYZ5bEvGxBskp-29" edge="1">
          <mxGeometry relative="1" as="geometry">
            <mxPoint x="1016" y="710" as="sourcePoint" />
            <mxPoint x="1003.9999999999999" y="844" as="targetPoint" />
            <Array as="points">
              <mxPoint x="1016" y="751" />
              <mxPoint x="1004" y="751" />
            </Array>
          </mxGeometry>
        </mxCell>
        <mxCell id="mW3zMy_77x5YiZytnxg1-40" style="rounded=0;orthogonalLoop=1;jettySize=auto;html=1;edgeStyle=orthogonalEdgeStyle;endArrow=none;endFill=0;entryX=0.392;entryY=0.006;entryDx=0;entryDy=0;entryPerimeter=0;" parent="1" target="xm-ctFpzYZ5bEvGxBskp-29" edge="1">
          <mxGeometry relative="1" as="geometry">
            <mxPoint x="1170" y="710" as="sourcePoint" />
            <mxPoint x="1004" y="841" as="targetPoint" />
            <Array as="points">
              <mxPoint x="1170" y="751" />
              <mxPoint x="1004" y="751" />
            </Array>
          </mxGeometry>
        </mxCell>
        <mxCell id="mW3zMy_77x5YiZytnxg1-41" value="Чтение, TCP" style="edgeLabel;html=1;align=center;verticalAlign=middle;resizable=0;points=[];fontSize=12;" parent="mW3zMy_77x5YiZytnxg1-40" vertex="1" connectable="0">
          <mxGeometry x="0.8054" relative="1" as="geometry">
            <mxPoint x="-3" y="-28" as="offset" />
          </mxGeometry>
        </mxCell>
        <mxCell id="mW3zMy_77x5YiZytnxg1-45" value="" style="group" parent="1" vertex="1" connectable="0">
          <mxGeometry x="-9" y="840" width="320" height="136.71000000000004" as="geometry" />
        </mxCell>
        <mxCell id="mW3zMy_77x5YiZytnxg1-46" value="" style="group" parent="mW3zMy_77x5YiZytnxg1-45" vertex="1" connectable="0">
          <mxGeometry width="320" height="136.70999999999998" as="geometry" />
        </mxCell>
        <mxCell id="mW3zMy_77x5YiZytnxg1-49" style="vsdxID=6;fillColor=none;gradientColor=none;shape=stencil(vVNdD4IgFP01POIQms1nq//BEpVF4q6U9u/DoFJxPdjm2/04cO65cBDL2oo3AlHSGtAX0cncVIgdEKWyrgRIYyPEjohlhQZRgr7VucsbPiCH6Krvww29O0eGE5Q8XJaSaPcqnByWw9k2wWNZRFMHhzc+SlwhQHhATDxBj3kvWwzacCN1PSFXHEqBLRcuFC8nrbYTognKfjol65GSNIn28SL5SjGf2efL2UBMwO1nWykl3M1mzxJ8ib/eZHkrG8j47RMbfA1WSKWcP8f9uSFtyZmZHZ8=);strokeColor=#5282ff;spacingTop=-3;spacingBottom=-3;spacingLeft=-3;spacingRight=-3;points=[];labelBackgroundColor=none;rounded=0;html=1;whiteSpace=wrap;container=0;" parent="mW3zMy_77x5YiZytnxg1-46" vertex="1">
          <mxGeometry y="3" width="320" height="133.70999999999998" as="geometry" />
        </mxCell>
        <mxCell id="mW3zMy_77x5YiZytnxg1-47" value="" style="shape=image;verticalLabelPosition=bottom;verticalAlign=top;imageAspect=0;aspect=fixed;image=data:image/svg+xml,PHN2ZyB4bWxucz0iaHR0cDovL3d3dy53My5vcmcvMjAwMC9zdmciIHdpZHRoPSIzMiIgaGVpZ2h0PSIzMiIgdmlld0JveD0iMCAwIDMyIDMyIiBmaWxsPSJub25lIj4mI3hhOzxwYXRoIGQ9Ik0wIDE2QzAgNy4xNjM0NCA3LjE2MzQ0IDAgMTYgMFYwQzI0LjgzNjYgMCAzMiA3LjE2MzQ0IDMyIDE2VjE2QzMyIDI0LjgzNjYgMjQuODM2NiAzMiAxNiAzMlYzMkM3LjE2MzQ0IDMyIDAgMjQuODM2NiAwIDE2VjE2WiIgZmlsbD0iIzUyODJGRiIvPiYjeGE7PHBhdGggZD0iTTI0IDE1VjEzSDIyVjExQzIyIDEwLjQgMjEuNiAxMCAyMSAxMEgxOVY4SDE3VjEwSDE1VjhIMTNWMTBIMTFDMTAuNCAxMCAxMCAxMC40IDEwIDExVjEzSDhWMTVIMTBWMTdIOFYxOUgxMFYyMUMxMCAyMS42IDEwLjQgMjIgMTEgMjJIMTNWMjRIMTVWMjJIMTdWMjRIMTlWMjJIMjFDMjEuNiAyMiAyMiAyMS42IDIyIDIxVjE5SDI0VjE3SDIyVjE1SDI0Wk0xOSAxOUgxM1YxM0gxOVYxOVoiIGZpbGw9IndoaXRlIi8+JiN4YTs8L3N2Zz4=;container=0;" parent="mW3zMy_77x5YiZytnxg1-46" vertex="1">
          <mxGeometry x="38.55515151515151" y="40" width="25.09090909090909" height="25.09090909090909" as="geometry" />
        </mxCell>
        <mxCell id="mW3zMy_77x5YiZytnxg1-48" value="&lt;div style=&quot;font-size: 1px&quot;&gt;&lt;font style=&quot;font-size:22.58px;font-family:Arial;color:#000000;direction:ltr;letter-spacing:0px;line-height:120%;opacity:1&quot;&gt;VM 1&lt;br&gt;&lt;/font&gt;&lt;/div&gt;" style="verticalAlign=middle;align=center;overflow=width;vsdxID=7;fillColor=none;gradientColor=none;shape=stencil(nZBLDoAgDERP0z3SIyjew0SURgSD+Lu9kMZoXLhwN9O+tukAlrNpJg1SzDH4QW/URgNYgZTkjA4UkwJUgGXng+6DX1zLfmoymdXo17xh5zmRJ6Q42BWCfc2oJfdAr+Yv+AP9Cb7OJ3H/2JG1HNGz/84klThPVCc=);strokeColor=none;points=[];labelBackgroundColor=none;rounded=0;html=1;whiteSpace=wrap;container=0;" parent="mW3zMy_77x5YiZytnxg1-46" vertex="1">
          <mxGeometry x="8.630303030303008" width="93.29454545454544" height="45.88999999999999" as="geometry" />
        </mxCell>
        <mxCell id="mW3zMy_77x5YiZytnxg1-50" style="vsdxID=5;fillColor=none;gradientColor=none;shape=stencil(vVPLEoIgFP0aljgEVuPa6j+YRGUica6U9vdhUKk4LWzG3X0cOPdcOIilTclrgShpDOiLaGVmSsQOiFJZlQKksRFiR8TSXIMoQN+qzOU175F9dNX3/obOnSP9CUoeLktIFL8KJ4flcLZN8NhtRJiDwxsf7VwhQHjAhniCDvNONhi04UbqakSuOBQCWy6cK16MWk0rRB2U/XRKVgMlSRwl+1nyhWI+s0+Xs4KYgNvPtlBKuJvVniX4En+9yfxWVpDx2yc2+Bosl0o5fw77U0PakjMzOz4B);strokeColor=#ff5958;spacingTop=-3;spacingBottom=-3;spacingLeft=-3;spacingRight=-3;points=[];labelBackgroundColor=none;rounded=0;html=1;whiteSpace=wrap;container=0;" parent="mW3zMy_77x5YiZytnxg1-45" vertex="1">
          <mxGeometry x="183" y="22.110000000000014" width="130" height="105.5" as="geometry" />
        </mxCell>
        <mxCell id="mW3zMy_77x5YiZytnxg1-51" value="&lt;div style=&quot;font-size: 1px&quot;&gt;&lt;font style=&quot;font-size:22.58px;font-family:Arial;color:#000000;direction:ltr;letter-spacing:0px;line-height:120%;opacity:1&quot;&gt;PosrgreSQL&lt;br&gt;&lt;/font&gt;&lt;/div&gt;&lt;div style=&quot;font-size: 1px&quot;&gt;&lt;font style=&quot;font-size:22.58px;font-family:Arial;color:#000000;direction:ltr;letter-spacing:0px;line-height:120%;opacity:1&quot;&gt;(master)&lt;/font&gt;&lt;/div&gt;" style="verticalAlign=bottom;align=center;overflow=width;vsdxID=6;fillColor=none;gradientColor=none;strokeColor=none;spacingTop=-3;spacingBottom=-3;spacingLeft=-3;spacingRight=-3;points=[];labelBackgroundColor=none;rounded=0;html=1;whiteSpace=wrap;container=0;" parent="mW3zMy_77x5YiZytnxg1-45" vertex="1">
          <mxGeometry x="183" y="67.11000000000001" width="130" height="53.21" as="geometry" />
        </mxCell>
        <mxCell id="mW3zMy_77x5YiZytnxg1-52" value="" style="shape=image;verticalLabelPosition=bottom;verticalAlign=top;imageAspect=0;aspect=fixed;image=data:image/svg+xml,PHN2ZyB4bWxucz0iaHR0cDovL3d3dy53My5vcmcvMjAwMC9zdmciIHdpZHRoPSIzMiIgaGVpZ2h0PSIzMiIgdmlld0JveD0iMCAwIDMyIDMyIiBmaWxsPSJub25lIj4mI3hhOzxwYXRoIGQ9Ik0wIDE2QzAgNy4xNjM0NCA3LjE2MzQ0IDAgMTYgMFYwQzI0LjgzNjYgMCAzMiA3LjE2MzQ0IDMyIDE2VjE2QzMyIDI0LjgzNjYgMjQuODM2NiAzMiAxNiAzMlYzMkM3LjE2MzQ0IDMyIDAgMjQuODM2NiAwIDE2VjE2WiIgZmlsbD0iIzUyODJGRiIvPiYjeGE7PHBhdGggZmlsbC1ydWxlPSJldmVub2RkIiBjbGlwLXJ1bGU9ImV2ZW5vZGQiIGQ9Ik0xMyA4SDE4QzIxLjMgOCAyNCAxMC43IDI0IDE0VjI0SDIwVjIwSDIyVjE5SDE4LjZDMTUuNSAxOSAxMyAxNi41IDEzIDEzLjRWOFpNMTkgMTdIMjFWMTVIMTlWMTdaTTEyIDkuMDk5OThWMTMuNEMxMiAxNi44IDE0LjYgMTkuNyAxOCAyMC4xVjIwLjZDMTggMjIgMTUuOCAyMy4xIDEzIDIzLjFDMTAuMiAyMy4xIDggMjIgOCAyMC42VjExLjZDOCAxMC4zIDkuNyA5LjI5OTk4IDEyIDkuMDk5OThaIiBmaWxsPSJ3aGl0ZSIvPiYjeGE7PC9zdmc+;container=0;" parent="mW3zMy_77x5YiZytnxg1-45" vertex="1">
          <mxGeometry x="227.5" y="26.110000000000014" width="36.26923076923077" height="36.26923076923077" as="geometry" />
        </mxCell>
        <mxCell id="mW3zMy_77x5YiZytnxg1-85" style="rounded=0;orthogonalLoop=1;jettySize=auto;html=1;edgeStyle=orthogonalEdgeStyle;endArrow=none;endFill=0;" parent="mW3zMy_77x5YiZytnxg1-45" edge="1">
          <mxGeometry relative="1" as="geometry">
            <mxPoint x="400" y="-130.89" as="sourcePoint" />
            <mxPoint x="245" y="21" as="targetPoint" />
            <Array as="points">
              <mxPoint x="400" y="-90" />
              <mxPoint x="245" y="-90" />
              <mxPoint x="245" y="19" />
              <mxPoint x="245" y="19" />
            </Array>
          </mxGeometry>
        </mxCell>
        <mxCell id="mW3zMy_77x5YiZytnxg1-58" style="rounded=0;orthogonalLoop=1;jettySize=auto;html=1;exitX=0.14;exitY=1.002;exitDx=0;exitDy=0;exitPerimeter=0;" parent="1" edge="1">
          <mxGeometry relative="1" as="geometry">
            <mxPoint x="227" y="563" as="sourcePoint" />
            <mxPoint x="227" y="611" as="targetPoint" />
          </mxGeometry>
        </mxCell>
        <mxCell id="mW3zMy_77x5YiZytnxg1-59" style="rounded=0;orthogonalLoop=1;jettySize=auto;html=1;exitX=0.14;exitY=1.002;exitDx=0;exitDy=0;exitPerimeter=0;" parent="1" edge="1">
          <mxGeometry relative="1" as="geometry">
            <mxPoint x="397" y="563" as="sourcePoint" />
            <mxPoint x="397" y="611" as="targetPoint" />
          </mxGeometry>
        </mxCell>
        <mxCell id="mW3zMy_77x5YiZytnxg1-61" value="" style="shape=image;verticalLabelPosition=bottom;verticalAlign=top;imageAspect=0;aspect=fixed;image=data:image/svg+xml,PHN2ZyB4bWxucz0iaHR0cDovL3d3dy53My5vcmcvMjAwMC9zdmciIHdpZHRoPSIzMiIgaGVpZ2h0PSIzMiIgdmlld0JveD0iMCAwIDMyIDMyIiBmaWxsPSJub25lIj4mI3hhOzxwYXRoIGQ9Ik0wIDE2QzAgNy4xNjM0NCA3LjE2MzQ0IDAgMTYgMFYwQzI0LjgzNjYgMCAzMiA3LjE2MzQ0IDMyIDE2VjE2QzMyIDI0LjgzNjYgMjQuODM2NiAzMiAxNiAzMlYzMkM3LjE2MzQ0IDMyIDAgMjQuODM2NiAwIDE2VjE2WiIgZmlsbD0iIzUyODJGRiIvPiYjeGE7PHBhdGggZD0iTTExLjk5NSAyNEw3LjAwMDk4IDE3LjczOEw4Ljc4MTk4IDkuOTI3TDE2IDYuNDUzTDIzLjIxOCA5LjkyOEwyNC45OTkgMTcuNzM5TDIwLjAwNSAyNEgxMS45OTVaTTIwIDEzLjE5NkwxNS45OTkgMTAuODk5TDEyIDEzLjE5NlYxOC4xTDE2IDIwLjQwMUwyMCAxOC4xVjEzLjE5NlpNMTguNzggMTMuODk2SDE4Ljc4N0wxNiAxNS40OTlMMTMuMjE0IDEzLjg5NUgxMy4yMTlMMTUuOTk5IDEyLjI5OUwxOC43OCAxMy44OTZaIiBmaWxsPSJ3aGl0ZSIvPiYjeGE7PC9zdmc+;container=0;" parent="1" vertex="1">
          <mxGeometry x="-116.38129515628725" y="496.15" width="27.69545454545455" height="27.69545454545455" as="geometry" />
        </mxCell>
        <mxCell id="mW3zMy_77x5YiZytnxg1-62" value="&lt;div style=&quot;font-size: 1px&quot;&gt;&lt;font style=&quot;font-size:22.58px;font-family:Arial;color:#000000;direction:ltr;letter-spacing:0px;line-height:120%;opacity:1&quot;&gt;Kubernetes&lt;br&gt;&lt;/font&gt;&lt;/div&gt;&lt;div style=&quot;font-size: 1px&quot;&gt;&lt;font style=&quot;font-size:22.58px;font-family:Arial;color:#000000;direction:ltr;letter-spacing:0px;line-height:120%;opacity:1&quot;&gt;cluster 1&lt;/font&gt;&lt;/div&gt;" style="verticalAlign=middle;align=center;overflow=width;vsdxID=7;fillColor=none;gradientColor=none;shape=stencil(nZBLDoAgDERP0z3SIyjew0SURgSD+Lu9kMZoXLhwN9O+tukAlrNpJg1SzDH4QW/URgNYgZTkjA4UkwJUgGXng+6DX1zLfmoymdXo17xh5zmRJ6Q42BWCfc2oJfdAr+Yv+AP9Cb7OJ3H/2JG1HNGz/84klThPVCc=);strokeColor=none;points=[];labelBackgroundColor=none;rounded=0;html=1;whiteSpace=wrap;container=0;" parent="1" vertex="1">
          <mxGeometry x="-151.16559293724652" y="410" width="118.01288475304223" height="86.13999999999999" as="geometry" />
        </mxCell>
        <mxCell id="mW3zMy_77x5YiZytnxg1-63" value="" style="group" parent="1" vertex="1" connectable="0">
          <mxGeometry x="163" y="610" width="130" height="100" as="geometry" />
        </mxCell>
        <mxCell id="mW3zMy_77x5YiZytnxg1-64" value="" style="group" parent="mW3zMy_77x5YiZytnxg1-63" vertex="1" connectable="0">
          <mxGeometry x="-2" width="130" height="100" as="geometry" />
        </mxCell>
        <mxCell id="mW3zMy_77x5YiZytnxg1-65" value="" style="group" parent="mW3zMy_77x5YiZytnxg1-64" vertex="1" connectable="0">
          <mxGeometry width="130" height="100" as="geometry" />
        </mxCell>
        <mxCell id="mW3zMy_77x5YiZytnxg1-66" style="vsdxID=5;fillColor=none;gradientColor=none;shape=stencil(vVPLEoIgFP0aljgEVuPa6j+YRGUica6U9vdhUKk4LWzG3X0cOPdcOIilTclrgShpDOiLaGVmSsQOiFJZlQKksRFiR8TSXIMoQN+qzOU175F9dNX3/obOnSP9CUoeLktIFL8KJ4flcLZN8NhtRJiDwxsf7VwhQHjAhniCDvNONhi04UbqakSuOBQCWy6cK16MWk0rRB2U/XRKVgMlSRwl+1nyhWI+s0+Xs4KYgNvPtlBKuJvVniX4En+9yfxWVpDx2yc2+Bosl0o5fw77U0PakjMzOz4B);strokeColor=#ff5958;spacingTop=-3;spacingBottom=-3;spacingLeft=-3;spacingRight=-3;points=[];labelBackgroundColor=none;rounded=0;html=1;whiteSpace=wrap;container=0;movable=0;resizable=0;rotatable=0;deletable=0;editable=0;locked=1;connectable=0;" parent="mW3zMy_77x5YiZytnxg1-65" vertex="1">
          <mxGeometry width="130" height="100" as="geometry" />
        </mxCell>
        <mxCell id="mW3zMy_77x5YiZytnxg1-67" value="&lt;div style=&quot;font-size: 22.58px;&quot;&gt;&lt;font style=&quot;font-family: Arial; color: rgb(0, 0, 0); direction: ltr; letter-spacing: 0px; line-height: 120%; opacity: 1; font-size: 22.58px;&quot;&gt;InsureTech&lt;/font&gt;&lt;/div&gt;&lt;div style=&quot;font-size: 22.58px;&quot;&gt;&lt;font style=&quot;font-family: Arial; color: rgb(0, 0, 0); direction: ltr; letter-spacing: 0px; line-height: 120%; opacity: 1; font-size: 22.58px;&quot;&gt;namespace&lt;/font&gt;&lt;/div&gt;" style="verticalAlign=bottom;align=center;overflow=width;vsdxID=6;fillColor=none;gradientColor=none;strokeColor=none;spacingTop=-3;spacingBottom=-3;spacingLeft=-3;spacingRight=-3;points=[];labelBackgroundColor=none;rounded=0;html=1;whiteSpace=wrap;container=0;" parent="mW3zMy_77x5YiZytnxg1-65" vertex="1">
          <mxGeometry y="40" width="130" height="54" as="geometry" />
        </mxCell>
        <mxCell id="mW3zMy_77x5YiZytnxg1-68" value="" style="shape=image;verticalLabelPosition=bottom;verticalAlign=top;imageAspect=0;aspect=fixed;image=data:image/svg+xml,PHN2ZyB4bWxucz0iaHR0cDovL3d3dy53My5vcmcvMjAwMC9zdmciIHdpZHRoPSIzMiIgaGVpZ2h0PSIzMiIgdmlld0JveD0iMCAwIDMyIDMyIiBmaWxsPSJub25lIj4mI3hhOzxwYXRoIGQ9Ik0wIDE2QzAgNy4xNjM0NCA3LjE2MzQ0IDAgMTYgMFYwQzI0LjgzNjYgMCAzMiA3LjE2MzQ0IDMyIDE2VjE2QzMyIDI0LjgzNjYgMjQuODM2NiAzMiAxNiAzMlYzMkM3LjE2MzQ0IDMyIDAgMjQuODM2NiAwIDE2VjE2WiIgZmlsbD0iIzUyODJGRiIvPiYjeGE7PHBhdGggZD0iTTExLjk5NSAyNEw3LjAwMDk4IDE3LjczOEw4Ljc4MTk4IDkuOTI3TDE2IDYuNDUzTDIzLjIxOCA5LjkyOEwyNC45OTkgMTcuNzM5TDIwLjAwNSAyNEgxMS45OTVaTTIwIDEzLjE5NkwxNS45OTkgMTAuODk5TDEyIDEzLjE5NlYxOC4xTDE2IDIwLjQwMUwyMCAxOC4xVjEzLjE5NlpNMTguNzggMTMuODk2SDE4Ljc4N0wxNiAxNS40OTlMMTMuMjE0IDEzLjg5NUgxMy4yMTlMMTUuOTk5IDEyLjI5OUwxOC43OCAxMy44OTZaIiBmaWxsPSJ3aGl0ZSIvPiYjeGE7PC9zdmc+;container=0;" parent="mW3zMy_77x5YiZytnxg1-64" vertex="1">
          <mxGeometry x="64" y="10" width="28.571428571428573" height="28.571428571428573" as="geometry" />
        </mxCell>
        <mxCell id="mW3zMy_77x5YiZytnxg1-69" value="" style="group" parent="1" vertex="1" connectable="0">
          <mxGeometry x="-11" y="610" width="130" height="100" as="geometry" />
        </mxCell>
        <mxCell id="mW3zMy_77x5YiZytnxg1-70" value="" style="group" parent="mW3zMy_77x5YiZytnxg1-69" vertex="1" connectable="0">
          <mxGeometry width="130" height="100" as="geometry" />
        </mxCell>
        <mxCell id="mW3zMy_77x5YiZytnxg1-71" style="vsdxID=5;fillColor=none;gradientColor=none;shape=stencil(vVPLEoIgFP0aljgEVuPa6j+YRGUica6U9vdhUKk4LWzG3X0cOPdcOIilTclrgShpDOiLaGVmSsQOiFJZlQKksRFiR8TSXIMoQN+qzOU175F9dNX3/obOnSP9CUoeLktIFL8KJ4flcLZN8NhtRJiDwxsf7VwhQHjAhniCDvNONhi04UbqakSuOBQCWy6cK16MWk0rRB2U/XRKVgMlSRwl+1nyhWI+s0+Xs4KYgNvPtlBKuJvVniX4En+9yfxWVpDx2yc2+Bosl0o5fw77U0PakjMzOz4B);strokeColor=#ff5958;spacingTop=-3;spacingBottom=-3;spacingLeft=-3;spacingRight=-3;points=[];labelBackgroundColor=none;rounded=0;html=1;whiteSpace=wrap;container=0;movable=0;resizable=0;rotatable=0;deletable=0;editable=0;locked=1;connectable=0;" parent="mW3zMy_77x5YiZytnxg1-70" vertex="1">
          <mxGeometry width="130" height="100" as="geometry" />
        </mxCell>
        <mxCell id="mW3zMy_77x5YiZytnxg1-72" value="&lt;div style=&quot;font-size: 1px&quot;&gt;&lt;font style=&quot;font-size:22.58px;font-family:Arial;color:#000000;direction:ltr;letter-spacing:0px;line-height:120%;opacity:1&quot;&gt;InsureTech&lt;/font&gt;&lt;/div&gt;&lt;div style=&quot;font-size: 1px&quot;&gt;&lt;font style=&quot;font-size:22.58px;font-family:Arial;color:#000000;direction:ltr;letter-spacing:0px;line-height:120%;opacity:1&quot;&gt;namespace&lt;/font&gt;&lt;/div&gt;" style="verticalAlign=bottom;align=center;overflow=width;vsdxID=6;fillColor=none;gradientColor=none;strokeColor=none;spacingTop=-3;spacingBottom=-3;spacingLeft=-3;spacingRight=-3;points=[];labelBackgroundColor=none;rounded=0;html=1;whiteSpace=wrap;container=0;" parent="mW3zMy_77x5YiZytnxg1-70" vertex="1">
          <mxGeometry y="40" width="130" height="54" as="geometry" />
        </mxCell>
        <mxCell id="mW3zMy_77x5YiZytnxg1-73" style="rounded=0;orthogonalLoop=1;jettySize=auto;html=1;exitX=0.14;exitY=1.002;exitDx=0;exitDy=0;exitPerimeter=0;" parent="mW3zMy_77x5YiZytnxg1-70" source="mW3zMy_77x5YiZytnxg1-80" edge="1">
          <mxGeometry relative="1" as="geometry">
            <mxPoint x="67" y="-66" as="sourcePoint" />
            <mxPoint x="66" as="targetPoint" />
          </mxGeometry>
        </mxCell>
        <mxCell id="mW3zMy_77x5YiZytnxg1-74" value="" style="shape=image;verticalLabelPosition=bottom;verticalAlign=top;imageAspect=0;aspect=fixed;image=data:image/svg+xml,PHN2ZyB4bWxucz0iaHR0cDovL3d3dy53My5vcmcvMjAwMC9zdmciIHdpZHRoPSIzMiIgaGVpZ2h0PSIzMiIgdmlld0JveD0iMCAwIDMyIDMyIiBmaWxsPSJub25lIj4mI3hhOzxwYXRoIGQ9Ik0wIDE2QzAgNy4xNjM0NCA3LjE2MzQ0IDAgMTYgMFYwQzI0LjgzNjYgMCAzMiA3LjE2MzQ0IDMyIDE2VjE2QzMyIDI0LjgzNjYgMjQuODM2NiAzMiAxNiAzMlYzMkM3LjE2MzQ0IDMyIDAgMjQuODM2NiAwIDE2VjE2WiIgZmlsbD0iIzUyODJGRiIvPiYjeGE7PHBhdGggZD0iTTExLjk5NSAyNEw3LjAwMDk4IDE3LjczOEw4Ljc4MTk4IDkuOTI3TDE2IDYuNDUzTDIzLjIxOCA5LjkyOEwyNC45OTkgMTcuNzM5TDIwLjAwNSAyNEgxMS45OTVaTTIwIDEzLjE5NkwxNS45OTkgMTAuODk5TDEyIDEzLjE5NlYxOC4xTDE2IDIwLjQwMUwyMCAxOC4xVjEzLjE5NlpNMTguNzggMTMuODk2SDE4Ljc4N0wxNiAxNS40OTlMMTMuMjE0IDEzLjg5NUgxMy4yMTlMMTUuOTk5IDEyLjI5OUwxOC43OCAxMy44OTZaIiBmaWxsPSJ3aGl0ZSIvPiYjeGE7PC9zdmc+;container=0;" parent="mW3zMy_77x5YiZytnxg1-69" vertex="1">
          <mxGeometry x="65" y="10" width="28.571428571428573" height="28.571428571428573" as="geometry" />
        </mxCell>
        <mxCell id="mW3zMy_77x5YiZytnxg1-75" value="" style="group" parent="1" vertex="1" connectable="0">
          <mxGeometry x="329" y="610" width="130" height="100" as="geometry" />
        </mxCell>
        <mxCell id="mW3zMy_77x5YiZytnxg1-76" value="" style="group" parent="mW3zMy_77x5YiZytnxg1-75" vertex="1" connectable="0">
          <mxGeometry width="130" height="100" as="geometry" />
        </mxCell>
        <mxCell id="mW3zMy_77x5YiZytnxg1-77" style="vsdxID=5;fillColor=none;gradientColor=none;shape=stencil(vVPLEoIgFP0aljgEVuPa6j+YRGUica6U9vdhUKk4LWzG3X0cOPdcOIilTclrgShpDOiLaGVmSsQOiFJZlQKksRFiR8TSXIMoQN+qzOU175F9dNX3/obOnSP9CUoeLktIFL8KJ4flcLZN8NhtRJiDwxsf7VwhQHjAhniCDvNONhi04UbqakSuOBQCWy6cK16MWk0rRB2U/XRKVgMlSRwl+1nyhWI+s0+Xs4KYgNvPtlBKuJvVniX4En+9yfxWVpDx2yc2+Bosl0o5fw77U0PakjMzOz4B);strokeColor=#ff5958;spacingTop=-3;spacingBottom=-3;spacingLeft=-3;spacingRight=-3;points=[];labelBackgroundColor=none;rounded=0;html=1;whiteSpace=wrap;container=0;movable=0;resizable=0;rotatable=0;deletable=0;editable=0;locked=1;connectable=0;" parent="mW3zMy_77x5YiZytnxg1-76" vertex="1">
          <mxGeometry width="130" height="100" as="geometry" />
        </mxCell>
        <mxCell id="mW3zMy_77x5YiZytnxg1-78" value="&lt;div style=&quot;font-size: 1px&quot;&gt;&lt;font style=&quot;font-size:22.58px;font-family:Arial;color:#000000;direction:ltr;letter-spacing:0px;line-height:120%;opacity:1&quot;&gt;InsureTech&lt;/font&gt;&lt;/div&gt;&lt;div style=&quot;font-size: 1px&quot;&gt;&lt;font style=&quot;font-size:22.58px;font-family:Arial;color:#000000;direction:ltr;letter-spacing:0px;line-height:120%;opacity:1&quot;&gt;namespace&lt;/font&gt;&lt;/div&gt;" style="verticalAlign=bottom;align=center;overflow=width;vsdxID=6;fillColor=none;gradientColor=none;strokeColor=none;spacingTop=-3;spacingBottom=-3;spacingLeft=-3;spacingRight=-3;points=[];labelBackgroundColor=none;rounded=0;html=1;whiteSpace=wrap;container=0;" parent="mW3zMy_77x5YiZytnxg1-76" vertex="1">
          <mxGeometry y="40" width="130" height="54" as="geometry" />
        </mxCell>
        <mxCell id="mW3zMy_77x5YiZytnxg1-79" value="" style="shape=image;verticalLabelPosition=bottom;verticalAlign=top;imageAspect=0;aspect=fixed;image=data:image/svg+xml,PHN2ZyB4bWxucz0iaHR0cDovL3d3dy53My5vcmcvMjAwMC9zdmciIHdpZHRoPSIzMiIgaGVpZ2h0PSIzMiIgdmlld0JveD0iMCAwIDMyIDMyIiBmaWxsPSJub25lIj4mI3hhOzxwYXRoIGQ9Ik0wIDE2QzAgNy4xNjM0NCA3LjE2MzQ0IDAgMTYgMFYwQzI0LjgzNjYgMCAzMiA3LjE2MzQ0IDMyIDE2VjE2QzMyIDI0LjgzNjYgMjQuODM2NiAzMiAxNiAzMlYzMkM3LjE2MzQ0IDMyIDAgMjQuODM2NiAwIDE2VjE2WiIgZmlsbD0iIzUyODJGRiIvPiYjeGE7PHBhdGggZD0iTTExLjk5NSAyNEw3LjAwMDk4IDE3LjczOEw4Ljc4MTk4IDkuOTI3TDE2IDYuNDUzTDIzLjIxOCA5LjkyOEwyNC45OTkgMTcuNzM5TDIwLjAwNSAyNEgxMS45OTVaTTIwIDEzLjE5NkwxNS45OTkgMTAuODk5TDEyIDEzLjE5NlYxOC4xTDE2IDIwLjQwMUwyMCAxOC4xVjEzLjE5NlpNMTguNzggMTMuODk2SDE4Ljc4N0wxNiAxNS40OTlMMTMuMjE0IDEzLjg5NUgxMy4yMTlMMTUuOTk5IDEyLjI5OUwxOC43OCAxMy44OTZaIiBmaWxsPSJ3aGl0ZSIvPiYjeGE7PC9zdmc+;container=0;" parent="mW3zMy_77x5YiZytnxg1-75" vertex="1">
          <mxGeometry x="65" y="10" width="28.571428571428573" height="28.571428571428573" as="geometry" />
        </mxCell>
        <mxCell id="mW3zMy_77x5YiZytnxg1-81" value="" style="shape=image;verticalLabelPosition=bottom;verticalAlign=top;imageAspect=0;aspect=fixed;image=data:image/svg+xml,PHN2ZyB4bWxucz0iaHR0cDovL3d3dy53My5vcmcvMjAwMC9zdmciIHdpZHRoPSIzMiIgaGVpZ2h0PSIzMiIgdmlld0JveD0iMCAwIDMyIDMyIiBmaWxsPSJub25lIj4mI3hhOzxwYXRoIGQ9Ik0wIDE2QzAgNy4xNjM0NCA3LjE2MzQ0IDAgMTYgMEMyNC44MzY2IDAgMzIgNy4xNjM0NCAzMiAxNkMzMiAyNC44MzY2IDI0LjgzNjYgMzIgMTYgMzJDNy4xNjM0NCAzMiAwIDI0LjgzNjYgMCAxNloiIGZpbGw9IiM1MjgyRkYiLz4mI3hhOzxwYXRoIGZpbGwtcnVsZT0iZXZlbm9kZCIgY2xpcC1ydWxlPSJldmVub2RkIiBkPSJNMTYgMjRWMjMuOTg3QzE1LjkwMTcgMjMuOTg3MyAxNS44MDQzIDIzLjk2ODEgMTUuNzEzNCAyMy45MzA3QzE1LjYyMjUgMjMuODkzMyAxNS41Mzk4IDIzLjgzODQgMTUuNDcwMSAyMy43NjlDMTUuNDAwNSAyMy42OTk2IDE1LjM0NTIgMjMuNjE3MiAxNS4zMDc0IDIzLjUyNjRDMTUuMjY5NiAyMy40MzU2IDE1LjI1MDEgMjMuMzM4MyAxNS4yNSAyMy4yNFYyMC43NkMxNS4yNSAyMC4zNDcgMTUuNTg1IDIwLjAxMyAxNiAyMC4wMTNDMTYuNDEzIDIwLjAxMyAxNi43NSAyMC4zNDcgMTYuNzUgMjAuNzZWMjIuNTQ3QzE4LjM1NTEgMjIuMzU5IDE5LjgzNTMgMjEuNTg4NiAyMC45MTAzIDIwLjM4MTlDMjEuOTg1MiAxOS4xNzUyIDIyLjU4IDE3LjYxNiAyMi41ODIgMTZDMjIuNTgyIDE0LjQ0IDIyLjAzMiAxMyAyMS4xMTggMTEuODY3QzIwLjkxNDEgMTEuOTU5MSAyMC42OTIzIDEyLjAwNDQgMjAuNDY4NiAxMS45OTk3QzIwLjI0NSAxMS45OTQ5IDIwLjAyNTMgMTEuOTQwMiAxOS44MjU1IDExLjgzOTVDMTkuNjI1NyAxMS43Mzg5IDE5LjQ1MSAxMS41OTQ4IDE5LjMxNDEgMTEuNDE3OUMxOS4xNzczIDExLjI0MSAxOS4wODE3IDExLjAzNTcgMTkuMDM0NCAxMC44MTdDMTguOTg3MSAxMC41OTg0IDE4Ljk4OTMgMTAuMzcyIDE5LjA0MDkgMTAuMTU0M0MxOS4wOTI0IDkuOTM2NjQgMTkuMTkyIDkuNzMzMjYgMTkuMzMyMyA5LjU1OTA1QzE5LjQ3MjcgOS4zODQ4NSAxOS42NTAyIDkuMjQ0MjMgMTkuODUxOCA5LjE0NzVDMjAuMDUzNSA5LjA1MDc3IDIwLjI3NDMgOS4wMDAzNyAyMC40OTggOUMyMC43MTI4IDguOTk5MTcgMjAuOTI1MyA5LjA0NDU4IDIxLjEyMSA5LjEzMzE1QzIxLjMxNjcgOS4yMjE3MiAyMS40OTExIDkuMzUxMzggMjEuNjMyMyA5LjUxMzMyQzIxLjc3MzQgOS42NzUyNSAyMS44NzgxIDkuODY1NjcgMjEuOTM5MSAxMC4wNzE2QzIyLjAwMDEgMTAuMjc3NiAyMi4wMTYxIDEwLjQ5NDMgMjEuOTg2IDEwLjcwN0MyMy4yODUyIDEyLjE2MzcgMjQuMDAxOSAxNC4wNDgxIDIzLjk5OSAxNkMyMy45OTkgMjAuNDEzIDIwLjQxNCAyNCAxNiAyNFpNOS44OCAyMS40MjdDOS44OCAyMS4zMzMgOS44ODYgMjEuMjUzIDkuOSAyMS4xNzNDOC42NzIyNCAxOS43MjkxIDcuOTk4NjkgMTcuODk1MyA4IDE2QzggMTEuNTg3IDExLjU4NSA4IDE1Ljk5OSA4VjguMDEzQzE2LjE5ODggOC4wMTU2MyAxNi4zODk2IDguMDk2ODYgMTYuNTMgOC4yMzkxQzE2LjY3MDMgOC4zODEzNSAxNi43NDkgOC41NzMxNiAxNi43NDkgOC43NzNWMTEuMjRDMTYuNzQ5IDExLjQzODkgMTYuNjcgMTEuNjI5NyAxNi41MjkzIDExLjc3MDNDMTYuMzg4NyAxMS45MTEgMTYuMTk3OSAxMS45OSAxNS45OTkgMTEuOTlDMTUuODAwMSAxMS45OSAxNS42MDkzIDExLjkxMSAxNS40Njg3IDExLjc3MDNDMTUuMzI4IDExLjYyOTcgMTUuMjQ5IDExLjQzODkgMTUuMjQ5IDExLjI0TDE1LjI0NyA5LjQ1M0MxMy42NDIxIDkuNjQxMDggMTIuMTYyMSAxMC40MTE1IDExLjA4NzUgMTEuNjE4M0MxMC4wMTI5IDEyLjgyNSA5LjQxODUxIDE0LjM4NDIgOS40MTcgMTZDOS40MTcgMTcuNTIgOS45MzMgMTguOTIgMTAuNzk5IDIwLjA0QzExLjAwMzkgMTkuOTUyNyAxMS4yMjU3IDE5LjkxMjIgMTEuNDQ4MiAxOS45MjEzQzExLjY3MDcgMTkuOTMwNCAxMS44ODg0IDE5Ljk4ODkgMTIuMDg1NSAyMC4wOTI3QzEyLjI4MjYgMjAuMTk2NCAxMi40NTQxIDIwLjM0MjcgMTIuNTg3NiAyMC41MjFDMTIuNzIxMSAyMC42OTkzIDEyLjgxMzIgMjAuOTA1MSAxMi44NTcyIDIxLjEyMzRDMTIuOTAxMyAyMS4zNDE3IDEyLjg5NjEgMjEuNTY3MSAxMi44NDIyIDIxLjc4MzJDMTIuNzg4MyAyMS45OTkzIDEyLjY4NjkgMjIuMjAwNiAxMi41NDU1IDIyLjM3MjdDMTIuNDA0IDIyLjU0NDcgMTIuMjI2IDIyLjY4MzEgMTIuMDI0NSAyMi43Nzc4QzExLjgyMjkgMjIuODcyNCAxMS42MDI3IDIyLjkyMSAxMS4zOCAyMi45MkMxMC45ODMxIDIyLjkyMDggMTAuNjAyMiAyMi43NjQgMTAuMzIwOSAyMi40ODRDMTAuMDM5NyAyMi4yMDQxIDkuODgxMDYgMjEuODIzOSA5Ljg4IDIxLjQyN1pNMTMuNSAxNkMxMy40OTQyIDE1LjY2NzYgMTMuNTU0OCAxNS4zMzczIDEzLjY3ODIgMTUuMDI4NkMxMy44MDE1IDE0LjcxOTggMTMuOTg1MyAxNC40Mzg4IDE0LjIxODYgMTQuMjAyQzE0LjQ1MTkgMTMuOTY1MSAxNC43MzAxIDEzLjc3NzEgMTUuMDM3IDEzLjY0OTFDMTUuMzQzOCAxMy41MjExIDE1LjY3MzEgMTMuNDU1NiAxNi4wMDU2IDEzLjQ1NjRDMTYuMzM4MSAxMy40NTcyIDE2LjY2NzEgMTMuNTI0MyAxNi45NzMzIDEzLjY1MzhDMTcuMjc5NSAxMy43ODMzIDE3LjU1NjkgMTMuOTcyNSAxNy43ODkgMTQuMjEwNUMxOC4wMjEyIDE0LjQ0ODUgMTguMjAzNiAxNC43MzA0IDE4LjMyNTUgMTUuMDM5N0MxOC40NDc0IDE1LjM0OTEgMTguNTA2NCAxNS42Nzk2IDE4LjQ5OSAxNi4wMTJDMTguNDg0NCAxNi42NjYzIDE4LjIxMzkgMTcuMjg4OCAxNy43NDU1IDE3Ljc0NThDMTcuMjc3IDE4LjIwMjggMTYuNjQ4MSAxOC40NTc5IDE1Ljk5MzYgMTguNDU2NEMxNS4zMzkyIDE4LjQ1NDggMTQuNzExNCAxOC4xOTY3IDE0LjI0NTIgMTcuNzM3NEMxMy43NzkgMTcuMjc4MSAxMy41MTE0IDE2LjY1NDMgMTMuNSAxNloiIGZpbGw9IndoaXRlIi8+JiN4YTs8L3N2Zz4=;" parent="1" vertex="1">
          <mxGeometry x="27" y="482" width="32" height="32" as="geometry" />
        </mxCell>
        <mxCell id="mW3zMy_77x5YiZytnxg1-82" value="&lt;font style=&quot;font-size: 22.58px;&quot;&gt;Cluster LB&lt;/font&gt;&lt;div&gt;&lt;span style=&quot;font-size: 22.58px;&quot;&gt;(HAProxy)&lt;/span&gt;&lt;/div&gt;" style="text;html=1;align=center;verticalAlign=middle;whiteSpace=wrap;rounded=0;fontSize=22.58;" parent="1" vertex="1">
          <mxGeometry x="80" y="483" width="133" height="30" as="geometry" />
        </mxCell>
        <mxCell id="mW3zMy_77x5YiZytnxg1-83" style="rounded=0;orthogonalLoop=1;jettySize=auto;html=1;edgeStyle=orthogonalEdgeStyle;entryX=0.482;entryY=0.002;entryDx=0;entryDy=0;entryPerimeter=0;" parent="1" target="mW3zMy_77x5YiZytnxg1-50" edge="1">
          <mxGeometry relative="1" as="geometry">
            <mxPoint x="56" y="710" as="sourcePoint" />
            <mxPoint x="148" y="844" as="targetPoint" />
            <Array as="points">
              <mxPoint x="56" y="711" />
              <mxPoint x="55" y="711" />
              <mxPoint x="55" y="751" />
              <mxPoint x="236" y="751" />
              <mxPoint x="236" y="863" />
            </Array>
          </mxGeometry>
        </mxCell>
        <mxCell id="mW3zMy_77x5YiZytnxg1-84" style="rounded=0;orthogonalLoop=1;jettySize=auto;html=1;edgeStyle=orthogonalEdgeStyle;endArrow=none;endFill=0;" parent="1" edge="1">
          <mxGeometry relative="1" as="geometry">
            <mxPoint x="226" y="710" as="sourcePoint" />
            <mxPoint x="236" y="862" as="targetPoint" />
            <Array as="points">
              <mxPoint x="226" y="711" />
              <mxPoint x="225" y="711" />
              <mxPoint x="225" y="751" />
              <mxPoint x="236" y="751" />
            </Array>
          </mxGeometry>
        </mxCell>
        <mxCell id="HlJHgFVcDTPW6L8RVwm2-1" value="Чтение/Запись,&amp;nbsp;&lt;div&gt;&lt;div&gt;TCP&lt;/div&gt;&lt;/div&gt;" style="edgeLabel;html=1;align=center;verticalAlign=middle;resizable=0;points=[];fontSize=12;" vertex="1" connectable="0" parent="mW3zMy_77x5YiZytnxg1-84">
          <mxGeometry x="0.222" relative="1" as="geometry">
            <mxPoint x="1" y="-32" as="offset" />
          </mxGeometry>
        </mxCell>
        <mxCell id="mW3zMy_77x5YiZytnxg1-135" style="rounded=0;orthogonalLoop=1;jettySize=auto;html=1;edgeStyle=orthogonalEdgeStyle;entryX=0.165;entryY=0.003;entryDx=0;entryDy=0;entryPerimeter=0;" parent="1" target="mW3zMy_77x5YiZytnxg1-50" edge="1">
          <mxGeometry relative="1" as="geometry">
            <mxPoint x="-388" y="710" as="sourcePoint" />
            <mxPoint x="-192" y="894" as="targetPoint" />
            <Array as="points">
              <mxPoint x="-388" y="751" />
              <mxPoint x="-222" y="751" />
              <mxPoint x="-222" y="819" />
              <mxPoint x="196" y="819" />
            </Array>
          </mxGeometry>
        </mxCell>
        <mxCell id="HlJHgFVcDTPW6L8RVwm2-3" value="Запись, TCP" style="edgeLabel;html=1;align=center;verticalAlign=middle;resizable=0;points=[];fontSize=12;" vertex="1" connectable="0" parent="mW3zMy_77x5YiZytnxg1-135">
          <mxGeometry x="0.0404" relative="1" as="geometry">
            <mxPoint as="offset" />
          </mxGeometry>
        </mxCell>
        <mxCell id="mW3zMy_77x5YiZytnxg1-137" style="rounded=0;orthogonalLoop=1;jettySize=auto;html=1;edgeStyle=orthogonalEdgeStyle;entryX=0.756;entryY=0.005;entryDx=0;entryDy=0;entryPerimeter=0;" parent="1" target="mW3zMy_77x5YiZytnxg1-50" edge="1">
          <mxGeometry relative="1" as="geometry">
            <mxPoint x="834" y="717" as="sourcePoint" />
            <mxPoint x="937" y="854" as="targetPoint" />
            <Array as="points">
              <mxPoint x="834" y="819" />
              <mxPoint x="272" y="819" />
            </Array>
          </mxGeometry>
        </mxCell>
        <mxCell id="HlJHgFVcDTPW6L8RVwm2-2" value="&lt;div&gt;Запись, TCP&lt;br&gt;&lt;/div&gt;" style="edgeLabel;html=1;align=center;verticalAlign=middle;resizable=0;points=[];fontSize=12;" vertex="1" connectable="0" parent="mW3zMy_77x5YiZytnxg1-137">
          <mxGeometry x="0.1116" y="2" relative="1" as="geometry">
            <mxPoint x="-99" y="-3" as="offset" />
          </mxGeometry>
        </mxCell>
        <mxCell id="mW3zMy_77x5YiZytnxg1-129" style="rounded=0;orthogonalLoop=1;jettySize=auto;html=1;edgeStyle=orthogonalEdgeStyle;" parent="1" edge="1">
          <mxGeometry relative="1" as="geometry">
            <mxPoint x="-388" y="710" as="sourcePoint" />
            <mxPoint x="-526" y="863" as="targetPoint" />
            <Array as="points">
              <mxPoint x="-388" y="751" />
              <mxPoint x="-526" y="751" />
            </Array>
          </mxGeometry>
        </mxCell>
        <mxCell id="mW3zMy_77x5YiZytnxg1-130" value="Чтение, TCP" style="edgeLabel;html=1;align=center;verticalAlign=middle;resizable=0;points=[];fontSize=12;" parent="mW3zMy_77x5YiZytnxg1-129" vertex="1" connectable="0">
          <mxGeometry x="0.8054" relative="1" as="geometry">
            <mxPoint x="1" y="-23" as="offset" />
          </mxGeometry>
        </mxCell>
        <mxCell id="mW3zMy_77x5YiZytnxg1-133" style="rounded=0;orthogonalLoop=1;jettySize=auto;html=1;exitX=0.155;exitY=1;exitDx=0;exitDy=0;exitPerimeter=0;entryX=0.53;entryY=-0.001;entryDx=0;entryDy=0;entryPerimeter=0;horizontal=1;" parent="1" edge="1">
          <mxGeometry relative="1" as="geometry">
            <mxPoint x="172" y="278" as="sourcePoint" />
            <mxPoint x="171" y="397" as="targetPoint" />
          </mxGeometry>
        </mxCell>
        <mxCell id="xm-ctFpzYZ5bEvGxBskp-32" value="" style="group" parent="1" vertex="1" connectable="0">
          <mxGeometry x="770" y="841" width="320" height="136.70999999999998" as="geometry" />
        </mxCell>
        <mxCell id="xm-ctFpzYZ5bEvGxBskp-33" style="vsdxID=6;fillColor=none;gradientColor=none;shape=stencil(vVNdD4IgFP01POIQms1nq//BEpVF4q6U9u/DoFJxPdjm2/04cO65cBDL2oo3AlHSGtAX0cncVIgdEKWyrgRIYyPEjohlhQZRgr7VucsbPiCH6Krvww29O0eGE5Q8XJaSaPcqnByWw9k2wWNZRFMHhzc+SlwhQHhATDxBj3kvWwzacCN1PSFXHEqBLRcuFC8nrbYTognKfjol65GSNIn28SL5SjGf2efL2UBMwO1nWykl3M1mzxJ8ib/eZHkrG8j47RMbfA1WSKWcP8f9uSFtyZmZHZ8=);strokeColor=#5282ff;spacingTop=-3;spacingBottom=-3;spacingLeft=-3;spacingRight=-3;points=[];labelBackgroundColor=none;rounded=0;html=1;whiteSpace=wrap;container=0;" parent="xm-ctFpzYZ5bEvGxBskp-32" vertex="1">
          <mxGeometry y="3" width="320" height="133.70999999999998" as="geometry" />
        </mxCell>
        <mxCell id="xm-ctFpzYZ5bEvGxBskp-34" value="" style="shape=image;verticalLabelPosition=bottom;verticalAlign=top;imageAspect=0;aspect=fixed;image=data:image/svg+xml,PHN2ZyB4bWxucz0iaHR0cDovL3d3dy53My5vcmcvMjAwMC9zdmciIHdpZHRoPSIzMiIgaGVpZ2h0PSIzMiIgdmlld0JveD0iMCAwIDMyIDMyIiBmaWxsPSJub25lIj4mI3hhOzxwYXRoIGQ9Ik0wIDE2QzAgNy4xNjM0NCA3LjE2MzQ0IDAgMTYgMFYwQzI0LjgzNjYgMCAzMiA3LjE2MzQ0IDMyIDE2VjE2QzMyIDI0LjgzNjYgMjQuODM2NiAzMiAxNiAzMlYzMkM3LjE2MzQ0IDMyIDAgMjQuODM2NiAwIDE2VjE2WiIgZmlsbD0iIzUyODJGRiIvPiYjeGE7PHBhdGggZD0iTTI0IDE1VjEzSDIyVjExQzIyIDEwLjQgMjEuNiAxMCAyMSAxMEgxOVY4SDE3VjEwSDE1VjhIMTNWMTBIMTFDMTAuNCAxMCAxMCAxMC40IDEwIDExVjEzSDhWMTVIMTBWMTdIOFYxOUgxMFYyMUMxMCAyMS42IDEwLjQgMjIgMTEgMjJIMTNWMjRIMTVWMjJIMTdWMjRIMTlWMjJIMjFDMjEuNiAyMiAyMiAyMS42IDIyIDIxVjE5SDI0VjE3SDIyVjE1SDI0Wk0xOSAxOUgxM1YxM0gxOVYxOVoiIGZpbGw9IndoaXRlIi8+JiN4YTs8L3N2Zz4=;container=0;" parent="xm-ctFpzYZ5bEvGxBskp-32" vertex="1">
          <mxGeometry x="38.55515151515151" y="40" width="25.09090909090909" height="25.09090909090909" as="geometry" />
        </mxCell>
        <mxCell id="xm-ctFpzYZ5bEvGxBskp-35" value="&lt;div style=&quot;font-size: 1px&quot;&gt;&lt;font style=&quot;font-size:22.58px;font-family:Arial;color:#000000;direction:ltr;letter-spacing:0px;line-height:120%;opacity:1&quot;&gt;VM 3&lt;br&gt;&lt;/font&gt;&lt;/div&gt;" style="verticalAlign=middle;align=center;overflow=width;vsdxID=7;fillColor=none;gradientColor=none;shape=stencil(nZBLDoAgDERP0z3SIyjew0SURgSD+Lu9kMZoXLhwN9O+tukAlrNpJg1SzDH4QW/URgNYgZTkjA4UkwJUgGXng+6DX1zLfmoymdXo17xh5zmRJ6Q42BWCfc2oJfdAr+Yv+AP9Cb7OJ3H/2JG1HNGz/84klThPVCc=);strokeColor=none;points=[];labelBackgroundColor=none;rounded=0;html=1;whiteSpace=wrap;container=0;" parent="xm-ctFpzYZ5bEvGxBskp-32" vertex="1">
          <mxGeometry x="8.630303030303008" width="93.29454545454544" height="45.88999999999999" as="geometry" />
        </mxCell>
        <mxCell id="mW3zMy_77x5YiZytnxg1-134" style="rounded=0;orthogonalLoop=1;jettySize=auto;html=1;exitX=0.155;exitY=1;exitDx=0;exitDy=0;exitPerimeter=0;entryX=0.53;entryY=-0.001;entryDx=0;entryDy=0;entryPerimeter=0;horizontal=1;" parent="1" edge="1">
          <mxGeometry relative="1" as="geometry">
            <mxPoint x="962" y="279" as="sourcePoint" />
            <mxPoint x="961" y="398" as="targetPoint" />
          </mxGeometry>
        </mxCell>
        <mxCell id="xm-ctFpzYZ5bEvGxBskp-29" style="vsdxID=5;fillColor=none;gradientColor=none;shape=stencil(vVPLEoIgFP0aljgEVuPa6j+YRGUica6U9vdhUKk4LWzG3X0cOPdcOIilTclrgShpDOiLaGVmSsQOiFJZlQKksRFiR8TSXIMoQN+qzOU175F9dNX3/obOnSP9CUoeLktIFL8KJ4flcLZN8NhtRJiDwxsf7VwhQHjAhniCDvNONhi04UbqakSuOBQCWy6cK16MWk0rRB2U/XRKVgMlSRwl+1nyhWI+s0+Xs4KYgNvPtlBKuJvVniX4En+9yfxWVpDx2yc2+Bosl0o5fw77U0PakjMzOz4B);strokeColor=#ff5958;spacingTop=-3;spacingBottom=-3;spacingLeft=-3;spacingRight=-3;points=[];labelBackgroundColor=none;rounded=0;html=1;whiteSpace=wrap;container=0;" parent="1" vertex="1">
          <mxGeometry x="953" y="863.11" width="130" height="105.5" as="geometry" />
        </mxCell>
        <mxCell id="xm-ctFpzYZ5bEvGxBskp-30" value="&lt;div style=&quot;font-size: 1px&quot;&gt;&lt;font style=&quot;font-size:22.58px;font-family:Arial;color:#000000;direction:ltr;letter-spacing:0px;line-height:120%;opacity:1&quot;&gt;PosrgreSQL&lt;br&gt;&lt;/font&gt;&lt;/div&gt;&lt;div style=&quot;font-size: 1px&quot;&gt;&lt;font style=&quot;font-size:22.58px;font-family:Arial;color:#000000;direction:ltr;letter-spacing:0px;line-height:120%;opacity:1&quot;&gt;(replica)&lt;/font&gt;&lt;/div&gt;" style="verticalAlign=bottom;align=center;overflow=width;vsdxID=6;fillColor=none;gradientColor=none;strokeColor=none;spacingTop=-3;spacingBottom=-3;spacingLeft=-3;spacingRight=-3;points=[];labelBackgroundColor=none;rounded=0;html=1;whiteSpace=wrap;container=0;" parent="1" vertex="1">
          <mxGeometry x="953" y="908.11" width="130" height="53.21" as="geometry" />
        </mxCell>
        <mxCell id="xm-ctFpzYZ5bEvGxBskp-31" value="" style="shape=image;verticalLabelPosition=bottom;verticalAlign=top;imageAspect=0;aspect=fixed;image=data:image/svg+xml,PHN2ZyB4bWxucz0iaHR0cDovL3d3dy53My5vcmcvMjAwMC9zdmciIHdpZHRoPSIzMiIgaGVpZ2h0PSIzMiIgdmlld0JveD0iMCAwIDMyIDMyIiBmaWxsPSJub25lIj4mI3hhOzxwYXRoIGQ9Ik0wIDE2QzAgNy4xNjM0NCA3LjE2MzQ0IDAgMTYgMFYwQzI0LjgzNjYgMCAzMiA3LjE2MzQ0IDMyIDE2VjE2QzMyIDI0LjgzNjYgMjQuODM2NiAzMiAxNiAzMlYzMkM3LjE2MzQ0IDMyIDAgMjQuODM2NiAwIDE2VjE2WiIgZmlsbD0iIzUyODJGRiIvPiYjeGE7PHBhdGggZmlsbC1ydWxlPSJldmVub2RkIiBjbGlwLXJ1bGU9ImV2ZW5vZGQiIGQ9Ik0xMyA4SDE4QzIxLjMgOCAyNCAxMC43IDI0IDE0VjI0SDIwVjIwSDIyVjE5SDE4LjZDMTUuNSAxOSAxMyAxNi41IDEzIDEzLjRWOFpNMTkgMTdIMjFWMTVIMTlWMTdaTTEyIDkuMDk5OThWMTMuNEMxMiAxNi44IDE0LjYgMTkuNyAxOCAyMC4xVjIwLjZDMTggMjIgMTUuOCAyMy4xIDEzIDIzLjFDMTAuMiAyMy4xIDggMjIgOCAyMC42VjExLjZDOCAxMC4zIDkuNyA5LjI5OTk4IDEyIDkuMDk5OThaIiBmaWxsPSJ3aGl0ZSIvPiYjeGE7PC9zdmc+;container=0;" parent="1" vertex="1">
          <mxGeometry x="997.5" y="867.11" width="36.26923076923077" height="36.26923076923077" as="geometry" />
        </mxCell>
        <mxCell id="HlJHgFVcDTPW6L8RVwm2-4" style="rounded=0;orthogonalLoop=1;jettySize=auto;html=1;exitX=0.997;exitY=0.684;exitDx=0;exitDy=0;exitPerimeter=0;horizontal=1;entryX=0.006;entryY=0.662;entryDx=0;entryDy=0;entryPerimeter=0;" edge="1" parent="1" source="mW3zMy_77x5YiZytnxg1-51" target="xm-ctFpzYZ5bEvGxBskp-30">
          <mxGeometry relative="1" as="geometry">
            <mxPoint x="562" y="863.11" as="sourcePoint" />
            <mxPoint x="561" y="982.11" as="targetPoint" />
          </mxGeometry>
        </mxCell>
        <mxCell id="HlJHgFVcDTPW6L8RVwm2-5" value="Репликация, TCP" style="edgeLabel;html=1;align=center;verticalAlign=middle;resizable=0;points=[];fontSize=12;" vertex="1" connectable="0" parent="HlJHgFVcDTPW6L8RVwm2-4">
          <mxGeometry x="-0.2153" y="-3" relative="1" as="geometry">
            <mxPoint y="-4" as="offset" />
          </mxGeometry>
        </mxCell>
        <mxCell id="HlJHgFVcDTPW6L8RVwm2-6" style="rounded=0;orthogonalLoop=1;jettySize=auto;html=1;horizontal=1;startArrow=classic;startFill=1;endArrow=none;endFill=0;" edge="1" parent="1">
          <mxGeometry relative="1" as="geometry">
            <mxPoint x="-475" y="947" as="sourcePoint" />
            <mxPoint x="174" y="946" as="targetPoint" />
          </mxGeometry>
        </mxCell>
        <mxCell id="HlJHgFVcDTPW6L8RVwm2-7" value="Репликация, TCP" style="edgeLabel;html=1;align=center;verticalAlign=middle;resizable=0;points=[];fontSize=12;" vertex="1" connectable="0" parent="HlJHgFVcDTPW6L8RVwm2-6">
          <mxGeometry x="-0.2153" y="-3" relative="1" as="geometry">
            <mxPoint y="-4" as="offset" />
          </mxGeometry>
        </mxCell>
        <mxCell id="mW3zMy_77x5YiZytnxg1-30" style="vsdxID=5;fillColor=none;gradientColor=none;shape=stencil(vVPLEoIgFP0aljgEVuPa6j+YRGUica6U9vdhUKk4LWzG3X0cOPdcOIilTclrgShpDOiLaGVmSsQOiFJZlQKksRFiR8TSXIMoQN+qzOU175F9dNX3/obOnSP9CUoeLktIFL8KJ4flcLZN8NhtRJiDwxsf7VwhQHjAhniCDvNONhi04UbqakSuOBQCWy6cK16MWk0rRB2U/XRKVgMlSRwl+1nyhWI+s0+Xs4KYgNvPtlBKuJvVniX4En+9yfxWVpDx2yc2+Bosl0o5fw77U0PakjMzOz4B);strokeColor=#ff5958;spacingTop=-3;spacingBottom=-3;spacingLeft=-3;spacingRight=-3;points=[];labelBackgroundColor=none;rounded=0;html=1;whiteSpace=wrap;container=0;movable=1;resizable=1;rotatable=1;deletable=1;editable=1;locked=0;connectable=1;" parent="1" vertex="1">
          <mxGeometry x="409" y="162" width="696" height="100" as="geometry" />
        </mxCell>
        <mxCell id="HlJHgFVcDTPW6L8RVwm2-8" value="&lt;div style=&quot;font-size: 14px;&quot;&gt;&lt;font style=&quot;font-size: 14px;&quot;&gt;- Cluster 1 LB: /health&lt;/font&gt;&lt;/div&gt;&lt;div style=&quot;font-size: 14px;&quot;&gt;&lt;font style=&quot;font-size: 14px;&quot;&gt;- Cluster 2 LB: /health&lt;/font&gt;&lt;/div&gt;&lt;div style=&quot;font-size: 14px;&quot;&gt;&lt;font style=&quot;font-size: 14px;&quot;&gt;&amp;nbsp;- Cluster 3 LB: /health&amp;nbsp;&lt;/font&gt;&lt;/div&gt;" style="text;html=1;align=center;verticalAlign=middle;whiteSpace=wrap;rounded=0;" vertex="1" parent="1">
          <mxGeometry x="526" y="188" width="149" height="52" as="geometry" />
        </mxCell>
        <mxCell id="mW3zMy_77x5YiZytnxg1-99" style="vsdxID=5;fillColor=none;gradientColor=none;shape=stencil(vVPLEoIgFP0aljgEVuPa6j+YRGUica6U9vdhUKk4LWzG3X0cOPdcOIilTclrgShpDOiLaGVmSsQOiFJZlQKksRFiR8TSXIMoQN+qzOU175F9dNX3/obOnSP9CUoeLktIFL8KJ4flcLZN8NhtRJiDwxsf7VwhQHjAhniCDvNONhi04UbqakSuOBQCWy6cK16MWk0rRB2U/XRKVgMlSRwl+1nyhWI+s0+Xs4KYgNvPtlBKuJvVniX4En+9yfxWVpDx2yc2+Bosl0o5fw77U0PakjMzOz4B);strokeColor=#ff5958;spacingTop=-3;spacingBottom=-3;spacingLeft=-3;spacingRight=-3;points=[];labelBackgroundColor=none;rounded=0;html=1;whiteSpace=wrap;container=0;movable=1;resizable=1;rotatable=1;deletable=1;editable=1;locked=0;connectable=1;" parent="1" vertex="1">
          <mxGeometry x="-547" y="451" width="217" height="100" as="geometry" />
        </mxCell>
        <mxCell id="mW3zMy_77x5YiZytnxg1-100" value="&lt;div style=&quot;font-size: 22.58px;&quot;&gt;&lt;font face=&quot;Arial&quot;&gt;Health Check&lt;/font&gt;&lt;/div&gt;" style="verticalAlign=bottom;align=center;overflow=width;vsdxID=6;fillColor=none;gradientColor=none;strokeColor=none;spacingTop=-3;spacingBottom=-3;spacingLeft=-3;spacingRight=-3;points=[];labelBackgroundColor=none;rounded=0;html=1;whiteSpace=wrap;container=0;" parent="1" vertex="1">
          <mxGeometry x="-547" y="491" width="130" height="54" as="geometry" />
        </mxCell>
        <mxCell id="mW3zMy_77x5YiZytnxg1-101" value="" style="image;aspect=fixed;html=1;points=[];align=center;fontSize=12;image=img/lib/azure2/general/Service_Health.svg;" parent="1" vertex="1">
          <mxGeometry x="-497.40999999999997" y="458" width="28.69" height="27" as="geometry" />
        </mxCell>
        <mxCell id="HlJHgFVcDTPW6L8RVwm2-9" value="&lt;div style=&quot;font-size: 10px;&quot;&gt;&lt;font style=&quot;font-size: 10px;&quot;&gt;Pods:&lt;/font&gt;&lt;/div&gt;&lt;div style=&quot;font-size: 10px;&quot;&gt;&lt;font style=&quot;font-size: 10px;&quot;&gt;- /ready&lt;/font&gt;&lt;/div&gt;&lt;div style=&quot;font-size: 10px;&quot;&gt;&lt;font style=&quot;font-size: 10px;&quot;&gt;- /live&lt;/font&gt;&lt;/div&gt;&lt;div style=&quot;font-size: 10px;&quot;&gt;&lt;font style=&quot;font-size: 10px;&quot;&gt;&lt;br&gt;&lt;/font&gt;&lt;/div&gt;&lt;div style=&quot;font-size: 10px;&quot;&gt;&lt;font style=&quot;font-size: 10px;&quot;&gt;При ошибке запросы перенаправляются на другой под&lt;/font&gt;&lt;/div&gt;" style="text;html=1;align=left;verticalAlign=middle;whiteSpace=wrap;rounded=0;" vertex="1" parent="1">
          <mxGeometry x="-433" y="486" width="60" height="30" as="geometry" />
        </mxCell>
        <mxCell id="mW3zMy_77x5YiZytnxg1-55" style="vsdxID=5;fillColor=none;gradientColor=none;shape=stencil(vVPLEoIgFP0aljgEVuPa6j+YRGUica6U9vdhUKk4LWzG3X0cOPdcOIilTclrgShpDOiLaGVmSsQOiFJZlQKksRFiR8TSXIMoQN+qzOU175F9dNX3/obOnSP9CUoeLktIFL8KJ4flcLZN8NhtRJiDwxsf7VwhQHjAhniCDvNONhi04UbqakSuOBQCWy6cK16MWk0rRB2U/XRKVgMlSRwl+1nyhWI+s0+Xs4KYgNvPtlBKuJvVniX4En+9yfxWVpDx2yc2+Bosl0o5fw77U0PakjMzOz4B);strokeColor=#ff5958;spacingTop=-3;spacingBottom=-3;spacingLeft=-3;spacingRight=-3;points=[];labelBackgroundColor=none;rounded=0;html=1;whiteSpace=wrap;container=0;movable=1;resizable=1;rotatable=1;deletable=1;editable=1;locked=0;connectable=1;" parent="1" vertex="1">
          <mxGeometry x="237" y="451" width="216" height="100" as="geometry" />
        </mxCell>
        <mxCell id="mW3zMy_77x5YiZytnxg1-56" value="&lt;div style=&quot;font-size: 22.58px;&quot;&gt;&lt;font face=&quot;Arial&quot;&gt;Health Check&lt;/font&gt;&lt;/div&gt;" style="verticalAlign=bottom;align=center;overflow=width;vsdxID=6;fillColor=none;gradientColor=none;strokeColor=none;spacingTop=-3;spacingBottom=-3;spacingLeft=-3;spacingRight=-3;points=[];labelBackgroundColor=none;rounded=0;html=1;whiteSpace=wrap;container=0;" parent="1" vertex="1">
          <mxGeometry x="237" y="491" width="130" height="54" as="geometry" />
        </mxCell>
        <mxCell id="mW3zMy_77x5YiZytnxg1-57" value="" style="image;aspect=fixed;html=1;points=[];align=center;fontSize=12;image=img/lib/azure2/general/Service_Health.svg;" parent="1" vertex="1">
          <mxGeometry x="286.59000000000003" y="458" width="28.69" height="27" as="geometry" />
        </mxCell>
        <mxCell id="HlJHgFVcDTPW6L8RVwm2-10" value="&lt;div style=&quot;font-size: 14px;&quot;&gt;&lt;div style=&quot;text-align: left; font-size: 10px;&quot;&gt;Pods:&lt;/div&gt;&lt;div style=&quot;text-align: left; font-size: 10px;&quot;&gt;- /ready&lt;/div&gt;&lt;div style=&quot;text-align: left; font-size: 10px;&quot;&gt;- /live&lt;/div&gt;&lt;div style=&quot;text-align: left; font-size: 10px;&quot;&gt;&lt;br&gt;&lt;/div&gt;&lt;div style=&quot;text-align: left; font-size: 10px;&quot;&gt;При ошибке запросы перенаправляются на другой под&lt;/div&gt;&lt;/div&gt;" style="text;html=1;align=center;verticalAlign=middle;whiteSpace=wrap;rounded=0;" vertex="1" parent="1">
          <mxGeometry x="372" y="486" width="60" height="30" as="geometry" />
        </mxCell>
        <mxCell id="mW3zMy_77x5YiZytnxg1-18" value="" style="group" parent="1" vertex="1" connectable="0">
          <mxGeometry x="1001" y="451" width="224" height="100" as="geometry" />
        </mxCell>
        <mxCell id="mW3zMy_77x5YiZytnxg1-19" style="vsdxID=5;fillColor=none;gradientColor=none;shape=stencil(vVPLEoIgFP0aljgEVuPa6j+YRGUica6U9vdhUKk4LWzG3X0cOPdcOIilTclrgShpDOiLaGVmSsQOiFJZlQKksRFiR8TSXIMoQN+qzOU175F9dNX3/obOnSP9CUoeLktIFL8KJ4flcLZN8NhtRJiDwxsf7VwhQHjAhniCDvNONhi04UbqakSuOBQCWy6cK16MWk0rRB2U/XRKVgMlSRwl+1nyhWI+s0+Xs4KYgNvPtlBKuJvVniX4En+9yfxWVpDx2yc2+Bosl0o5fw77U0PakjMzOz4B);strokeColor=#ff5958;spacingTop=-3;spacingBottom=-3;spacingLeft=-3;spacingRight=-3;points=[];labelBackgroundColor=none;rounded=0;html=1;whiteSpace=wrap;container=0;movable=1;resizable=1;rotatable=1;deletable=1;editable=1;locked=0;connectable=1;" parent="mW3zMy_77x5YiZytnxg1-18" vertex="1">
          <mxGeometry width="224" height="100" as="geometry" />
        </mxCell>
        <mxCell id="mW3zMy_77x5YiZytnxg1-20" value="&lt;div style=&quot;font-size: 22.58px;&quot;&gt;&lt;font face=&quot;Arial&quot;&gt;Health Check&lt;/font&gt;&lt;/div&gt;" style="verticalAlign=bottom;align=center;overflow=width;vsdxID=6;fillColor=none;gradientColor=none;strokeColor=none;spacingTop=-3;spacingBottom=-3;spacingLeft=-3;spacingRight=-3;points=[];labelBackgroundColor=none;rounded=0;html=1;whiteSpace=wrap;container=0;" parent="mW3zMy_77x5YiZytnxg1-18" vertex="1">
          <mxGeometry y="40" width="130" height="54" as="geometry" />
        </mxCell>
        <mxCell id="mW3zMy_77x5YiZytnxg1-27" value="" style="image;aspect=fixed;html=1;points=[];align=center;fontSize=12;image=img/lib/azure2/general/Service_Health.svg;" parent="mW3zMy_77x5YiZytnxg1-18" vertex="1">
          <mxGeometry x="49.59" y="7" width="28.69" height="27" as="geometry" />
        </mxCell>
        <mxCell id="HlJHgFVcDTPW6L8RVwm2-11" value="&lt;div style=&quot;font-size: 14px;&quot;&gt;&lt;div style=&quot;text-align: left; font-size: 10px;&quot;&gt;Pods:&lt;/div&gt;&lt;div style=&quot;text-align: left; font-size: 10px;&quot;&gt;- /ready&lt;/div&gt;&lt;div style=&quot;text-align: left; font-size: 10px;&quot;&gt;- /live&lt;/div&gt;&lt;div style=&quot;text-align: left; font-size: 10px;&quot;&gt;&lt;br&gt;&lt;/div&gt;&lt;div style=&quot;text-align: left; font-size: 10px;&quot;&gt;При ошибке запросы перенаправляются на другой под&lt;/div&gt;&lt;/div&gt;" style="text;html=1;align=center;verticalAlign=middle;whiteSpace=wrap;rounded=0;" vertex="1" parent="mW3zMy_77x5YiZytnxg1-18">
          <mxGeometry x="142" y="35" width="60" height="30" as="geometry" />
        </mxCell>
        <mxCell id="HlJHgFVcDTPW6L8RVwm2-12" value="&lt;p class=&quot;MsoNormal&quot;&gt;&lt;b&gt;План балансировки нагрузки между географически распределёнными кластерами&lt;/b&gt;&lt;/p&gt;&lt;p class=&quot;MsoNormal&quot;&gt;Для обеспечения отказоустойчивости, равномерного&lt;br&gt;распределения нагрузки и минимизации задержек в обработке запросов&lt;br&gt;пользователей используется двухуровневая схема балансировки нагрузки.&lt;/p&gt;&lt;p class=&quot;MsoNormal&quot;&gt;&lt;br&gt;&lt;/p&gt;&lt;div class=&quot;MsoNormal&quot; align=&quot;center&quot; style=&quot;text-align:center&quot;&gt;&lt;hr size=&quot;2&quot; width=&quot;100%&quot; align=&quot;center&quot;&gt;&lt;/div&gt;&lt;p class=&quot;MsoNormal&quot;&gt;&lt;b&gt;&lt;br&gt;&lt;/b&gt;&lt;/p&gt;&lt;p class=&quot;MsoNormal&quot;&gt;&lt;b&gt;Подход к балансировке нагрузки&lt;/b&gt;&lt;/p&gt;&lt;p class=&quot;MsoNormal&quot;&gt;&lt;b&gt;1. Глобальный балансировщик нагрузки&lt;/b&gt;&lt;/p&gt;&lt;ul style=&quot;margin-top:0cm&quot; type=&quot;disc&quot;&gt;&lt;li class=&quot;MsoNormal&quot; style=&quot;mso-list:l1 level1 lfo1;tab-stops:list 36.0pt&quot;&gt;&lt;b&gt;Функция&lt;/b&gt;:&lt;/li&gt;&lt;ul style=&quot;margin-top:0cm&quot; type=&quot;circle&quot;&gt;&lt;br&gt;  &lt;li class=&quot;MsoNormal&quot; style=&quot;mso-list:l1 level2 lfo1;tab-stops:list 72.0pt&quot;&gt;Маршрутизация пользовательского трафика между региональными кластерами.&lt;/li&gt;&lt;br&gt;  &lt;li class=&quot;MsoNormal&quot; style=&quot;mso-list:l1 level2 lfo1;tab-stops:list 72.0pt&quot;&gt;Определение ближайшего доступного региона для минимизации задержек.&lt;/li&gt;&lt;br&gt;  &lt;li class=&quot;MsoNormal&quot; style=&quot;mso-list:l1 level2 lfo1;tab-stops:list 72.0pt&quot;&gt;Перенаправление трафика в соседний регион при недоступности основного.&lt;/li&gt;&lt;br&gt; &lt;/ul&gt;&lt;li class=&quot;MsoNormal&quot; style=&quot;mso-list:l1 level1 lfo1;tab-stops:list 36.0pt&quot;&gt;&lt;b&gt;Технологии&lt;/b&gt;:&lt;/li&gt;&lt;ul style=&quot;margin-top:0cm&quot; type=&quot;circle&quot;&gt;&lt;br&gt;  &lt;li class=&quot;MsoNormal&quot; style=&quot;mso-list:l1 level2 lfo1;tab-stops:list 72.0pt&quot;&gt;GeoDNS.&lt;/li&gt;&lt;br&gt;  &lt;li class=&quot;MsoNormal&quot; style=&quot;mso-list:l1 level2 lfo1;tab-stops:list 72.0pt&quot;&gt;Глобальные балансировщики, такие как AWS Global Accelerator, Cloudflare, Google&lt;br&gt;      Cloud Load Balancer.&lt;/li&gt;&lt;/ul&gt;&lt;br&gt; &lt;li class=&quot;MsoNormal&quot; style=&quot;mso-list:l1 level1 lfo1;tab-stops:list 36.0pt&quot;&gt;&lt;b&gt;Health Checks&lt;/b&gt;:&lt;/li&gt;&lt;ul style=&quot;margin-top:0cm&quot; type=&quot;circle&quot;&gt;&lt;br&gt;  &lt;li class=&quot;MsoNormal&quot; style=&quot;mso-list:l1 level2 lfo1;tab-stops:list 72.0pt&quot;&gt;Проверка доступности региональных балансировщиков:&lt;/li&gt;&lt;ul style=&quot;margin-top:0cm&quot; type=&quot;square&quot;&gt;&lt;br&gt;   &lt;li class=&quot;MsoNormal&quot; style=&quot;mso-list:l1 level3 lfo1;tab-stops:list 108.0pt&quot;&gt;HTTP/HTTPS-запросы к /health.&lt;/li&gt;&lt;br&gt;   &lt;li class=&quot;MsoNormal&quot; style=&quot;mso-list:l1 level3 lfo1;tab-stops:list 108.0pt&quot;&gt;Проверка порта TCP (например, 443).&lt;/li&gt;&lt;/ul&gt;&lt;/ul&gt;&lt;/ul&gt;&lt;p class=&quot;MsoNormal&quot;&gt;&lt;b&gt;&lt;br&gt;&lt;/b&gt;&lt;/p&gt;&lt;p class=&quot;MsoNormal&quot;&gt;&lt;b&gt;2. Локальные балансировщики нагрузки&lt;/b&gt;&lt;/p&gt;&lt;ul style=&quot;margin-top:0cm&quot; type=&quot;disc&quot;&gt;&lt;li class=&quot;MsoNormal&quot; style=&quot;mso-list:l0 level1 lfo2;tab-stops:list 36.0pt&quot;&gt;&lt;b&gt;Функция&lt;/b&gt;:&lt;/li&gt;&lt;ul style=&quot;margin-top:0cm&quot; type=&quot;circle&quot;&gt;&lt;br&gt;  &lt;li class=&quot;MsoNormal&quot; style=&quot;mso-list:l0 level2 lfo2;tab-stops:list 72.0pt&quot;&gt;Управление распределением трафика внутри регионального кластера.&lt;/li&gt;&lt;br&gt;  &lt;li class=&quot;MsoNormal&quot; style=&quot;mso-list:l0 level2 lfo2;tab-stops:list 72.0pt&quot;&gt;Направление запросов к приложениям, работающим в подах.&lt;/li&gt;&lt;br&gt;  &lt;li class=&quot;MsoNormal&quot; style=&quot;mso-list:l0 level2 lfo2;tab-stops:list 72.0pt&quot;&gt;Исключение недоступных подов из обработки запросов.&lt;/li&gt;&lt;/ul&gt;&lt;br&gt; &lt;li class=&quot;MsoNormal&quot; style=&quot;mso-list:l0 level1 lfo2;tab-stops:list 36.0pt&quot;&gt;&lt;b&gt;Технологии&lt;/b&gt;:&lt;/li&gt;&lt;ul style=&quot;margin-top:0cm&quot; type=&quot;circle&quot;&gt;&lt;br&gt;  &lt;li class=&quot;MsoNormal&quot; style=&quot;mso-list:l0 level2 lfo2;tab-stops:list 72.0pt&quot;&gt;Kubernetes Ingress Controller.&lt;/li&gt;&lt;br&gt;  &lt;li class=&quot;MsoNormal&quot; style=&quot;mso-list:l0 level2 lfo2;tab-stops:list 72.0pt&quot;&gt;HAProxy или NGINX.&lt;/li&gt;&lt;/ul&gt;&lt;br&gt; &lt;li class=&quot;MsoNormal&quot; style=&quot;mso-list:l0 level1 lfo2;tab-stops:list 36.0pt&quot;&gt;&lt;b&gt;Health Checks&lt;/b&gt;:&lt;/li&gt;&lt;ul style=&quot;margin-top:0cm&quot; type=&quot;circle&quot;&gt;&lt;br&gt;  &lt;li class=&quot;MsoNormal&quot; style=&quot;mso-list:l0 level2 lfo2;tab-stops:list 72.0pt&quot;&gt;Проверка доступности приложений на уровне подов:&lt;/li&gt;&lt;ul style=&quot;margin-top:0cm&quot; type=&quot;square&quot;&gt;&lt;br&gt;   &lt;li class=&quot;MsoNormal&quot; style=&quot;mso-list:l0 level3 lfo2;tab-stops:list 108.0pt&quot;&gt;&lt;b&gt;Readiness Probe&lt;/b&gt;: Проверяет, готово ли приложение обрабатывать запросы.&lt;/li&gt;&lt;br&gt;   &lt;li class=&quot;MsoNormal&quot; style=&quot;mso-list:l0 level3 lfo2;tab-stops:list 108.0pt&quot;&gt;&lt;b&gt;Liveness Probe&lt;/b&gt;: Проверяет, работает ли приложение корректно.&lt;/li&gt;&lt;br&gt;  &lt;/ul&gt;&lt;/ul&gt;&lt;/ul&gt;&lt;div class=&quot;MsoNormal&quot; align=&quot;center&quot; style=&quot;text-align:center&quot;&gt;&lt;br&gt;&lt;hr size=&quot;2&quot; width=&quot;100%&quot; align=&quot;center&quot;&gt;&lt;/div&gt;&lt;br&gt;&lt;p class=&quot;MsoNormal&quot;&gt;&lt;b&gt;Детали Health Checks&lt;/b&gt;&lt;/p&gt;&lt;p class=&quot;MsoNormal&quot;&gt;&lt;b&gt;1. Глобальный балансировщик&lt;/b&gt;&lt;/p&gt;&lt;ul style=&quot;margin-top:0cm&quot; type=&quot;disc&quot;&gt;&lt;li class=&quot;MsoNormal&quot; style=&quot;mso-list:l2 level1 lfo3;tab-stops:list 36.0pt&quot;&gt;Проверяет доступность локальных балансировщиков в каждом регионе:&lt;/li&gt;&lt;ul style=&quot;margin-top:0cm&quot; type=&quot;circle&quot;&gt;&lt;br&gt;  &lt;li class=&quot;MsoNormal&quot; style=&quot;mso-list:l2 level2 lfo3;tab-stops:list 72.0pt&quot;&gt;&lt;b&gt;HTTP/HTTPS&lt;/b&gt;: Запрос к эндпоинту /health.&lt;/li&gt;&lt;br&gt;  &lt;li class=&quot;MsoNormal&quot; style=&quot;mso-list:l2 level2 lfo3;tab-stops:list 72.0pt&quot;&gt;&lt;b&gt;TCP&lt;/b&gt;: Проверка ответа на порту 443 (или другом, если используется&lt;br&gt;      нестандартный).&lt;/li&gt;&lt;br&gt; &lt;/ul&gt;&lt;/ul&gt;&lt;p class=&quot;MsoNormal&quot;&gt;&lt;b&gt;2. Локальные балансировщики&lt;/b&gt;&lt;/p&gt;&lt;ul style=&quot;margin-top:0cm&quot; type=&quot;disc&quot;&gt;&lt;li class=&quot;MsoNormal&quot; style=&quot;mso-list:l3 level1 lfo4;tab-stops:list 36.0pt&quot;&gt;Проверяют доступность подов в кластере:&lt;/li&gt;&lt;ul style=&quot;margin-top:0cm&quot; type=&quot;circle&quot;&gt;&lt;br&gt;  &lt;li class=&quot;MsoNormal&quot; style=&quot;mso-list:l3 level2 lfo4;tab-stops:list 72.0pt&quot;&gt;&lt;b&gt;Readiness Probe&lt;/b&gt;:&lt;/li&gt;&lt;ul style=&quot;margin-top:0cm&quot; type=&quot;square&quot;&gt;&lt;br&gt;   &lt;li class=&quot;MsoNormal&quot; style=&quot;mso-list:l3 level3 lfo4;tab-stops:list 108.0pt&quot;&gt;Проверяет, готово ли приложение обрабатывать запросы (например, доступность баз данных, внешних API).&lt;/li&gt;&lt;/ul&gt;&lt;br&gt;  &lt;li class=&quot;MsoNormal&quot; style=&quot;mso-list:l3 level2 lfo4;tab-stops:list 72.0pt&quot;&gt;&lt;b&gt;Liveness Probe&lt;/b&gt;:&lt;/li&gt;&lt;ul style=&quot;margin-top:0cm&quot; type=&quot;square&quot;&gt;&lt;br&gt;   &lt;li class=&quot;MsoNormal&quot; style=&quot;mso-list:l3 level3 lfo4;tab-stops:list 108.0pt&quot;&gt;Проверяет, работает ли приложение корректно. Если приложение зависло, Kubernetes инициирует перезапуск пода.&lt;/li&gt;&lt;/ul&gt;&lt;/ul&gt;&lt;/ul&gt;&lt;div class=&quot;MsoNormal&quot; align=&quot;center&quot; style=&quot;text-align:center&quot;&gt;&lt;br&gt;&lt;hr size=&quot;2&quot; width=&quot;100%&quot; align=&quot;center&quot;&gt;&lt;/div&gt;&lt;p class=&quot;MsoNormal&quot;&gt;&lt;b&gt;&lt;br&gt;&lt;/b&gt;&lt;/p&gt;&lt;p class=&quot;MsoNormal&quot;&gt;&lt;b&gt;Распределение нагрузки&amp;nbsp;&lt;/b&gt;&lt;/p&gt;&lt;ol style=&quot;margin-top:0cm&quot; start=&quot;1&quot; type=&quot;1&quot;&gt;&lt;li class=&quot;MsoNormal&quot; style=&quot;mso-list:l4 level1 lfo5;tab-stops:list 36.0pt&quot;&gt;&lt;b&gt;Глобальный уровень&lt;/b&gt;:&lt;/li&gt;&lt;ul style=&quot;margin-top:0cm&quot; type=&quot;circle&quot;&gt;&lt;br&gt;  &lt;li class=&quot;MsoNormal&quot; style=&quot;mso-list:l4 level2 lfo5;tab-stops:list 72.0pt&quot;&gt;Глобальный балансировщик направляет запросы в ближайший доступный региональный кластер на основе:&lt;/li&gt;&lt;ul style=&quot;margin-top:0cm&quot; type=&quot;square&quot;&gt;&lt;br&gt;   &lt;li class=&quot;MsoNormal&quot; style=&quot;mso-list:l4 level3 lfo5;tab-stops:list 108.0pt&quot;&gt;Географической близости (GeoDNS).&lt;/li&gt;&lt;br&gt;   &lt;li class=&quot;MsoNormal&quot; style=&quot;mso-list:l4 level3 lfo5;tab-stops:list 108.0pt&quot;&gt;Задержки (RTT).&lt;/li&gt;&lt;br&gt;   &lt;li class=&quot;MsoNormal&quot; style=&quot;mso-list:l4 level3 lfo5;tab-stops:list 108.0pt&quot;&gt;Доступности (результаты Health Checks).&lt;/li&gt;&lt;/ul&gt;&lt;/ul&gt;&lt;br&gt; &lt;li class=&quot;MsoNormal&quot; style=&quot;mso-list:l4 level1 lfo5;tab-stops:list 36.0pt&quot;&gt;&lt;b&gt;Локальный уровень&lt;/b&gt;:&lt;/li&gt;&lt;ul style=&quot;margin-top:0cm&quot; type=&quot;circle&quot;&gt;&lt;br&gt;  &lt;li class=&quot;MsoNormal&quot; style=&quot;mso-list:l4 level2 lfo5;tab-stops:list 72.0pt&quot;&gt;Локальный балансировщик направляет трафик между приложениями в регионе.&lt;/li&gt;&lt;br&gt;  &lt;li class=&quot;MsoNormal&quot; style=&quot;mso-list:l4 level2 lfo5;tab-stops:list 72.0pt&quot;&gt;Исключает недоступные приложения (поды) из маршрутизации.&lt;/li&gt;&lt;/ul&gt;&lt;/ol&gt;&lt;div class=&quot;MsoNormal&quot; align=&quot;center&quot; style=&quot;text-align:center&quot;&gt;&lt;br&gt;&lt;hr size=&quot;2&quot; width=&quot;100%&quot; align=&quot;center&quot;&gt;&lt;/div&gt;&lt;p class=&quot;MsoNormal&quot;&gt;&lt;b&gt;&lt;br&gt;&lt;/b&gt;&lt;/p&gt;&lt;p class=&quot;MsoNormal&quot;&gt;&lt;b&gt;Почему этот подход оптимален?&lt;/b&gt;&lt;/p&gt;&lt;ol style=&quot;margin-top:0cm&quot; start=&quot;1&quot; type=&quot;1&quot;&gt;&lt;br&gt; &lt;li class=&quot;MsoNormal&quot; style=&quot;mso-list:l5 level1 lfo6;tab-stops:list 36.0pt&quot;&gt;&lt;b&gt;Географическая доступность&lt;/b&gt;:&lt;/li&gt;&lt;ul style=&quot;margin-top:0cm&quot; type=&quot;circle&quot;&gt;&lt;br&gt;  &lt;li class=&quot;MsoNormal&quot; style=&quot;mso-list:l5 level2 lfo6;tab-stops:list 72.0pt&quot;&gt;Пользователи направляются в ближайший регион, минимизируя задержки.&lt;/li&gt;&lt;/ul&gt;&lt;br&gt; &lt;li class=&quot;MsoNormal&quot; style=&quot;mso-list:l5 level1 lfo6;tab-stops:list 36.0pt&quot;&gt;&lt;b&gt;Высокая доступность&lt;/b&gt;:&lt;/li&gt;&lt;ul style=&quot;margin-top:0cm&quot; type=&quot;circle&quot;&gt;&lt;br&gt;  &lt;li class=&quot;MsoNormal&quot; style=&quot;mso-list:l5 level2 lfo6;tab-stops:list 72.0pt&quot;&gt;Если один региональный кластер недоступен, трафик перенаправляется в другой.&lt;/li&gt;&lt;/ul&gt;&lt;br&gt; &lt;li class=&quot;MsoNormal&quot; style=&quot;mso-list:l5 level1 lfo6;tab-stops:list 36.0pt&quot;&gt;&lt;b&gt;Локальная оптимизация&lt;/b&gt;:&lt;/li&gt;&lt;br&gt; &lt;ul style=&quot;margin-top:0cm&quot; type=&quot;circle&quot;&gt;&lt;li class=&quot;MsoNormal&quot; style=&quot;mso-list:l5 level2 lfo6;tab-stops:list 72.0pt&quot;&gt;Локальные балансировщики гарантируют, что запросы направляются только на доступные приложения.&lt;/li&gt;&lt;/ul&gt;&lt;br&gt; &lt;li class=&quot;MsoNormal&quot; style=&quot;mso-list:l5 level1 lfo6;tab-stops:list 36.0pt&quot;&gt;&lt;b&gt;Гибкость и масштабируемость&lt;/b&gt;:&lt;/li&gt;&lt;ul style=&quot;margin-top:0cm&quot; type=&quot;circle&quot;&gt;&lt;br&gt;  &lt;li class=&quot;MsoNormal&quot; style=&quot;mso-list:l5 level2 lfo6;tab-stops:list 72.0pt&quot;&gt;Кластеры работают независимо, что упрощает управление и масштабирование.&lt;/li&gt;&lt;/ul&gt;&lt;/ol&gt;" style="text;whiteSpace=wrap;html=1;" vertex="1" parent="1">
          <mxGeometry x="-263.4101627604159" y="1159.003414713542" width="550" height="4099" as="geometry" />
        </mxCell>
        <mxCell id="HlJHgFVcDTPW6L8RVwm2-13" value="&lt;p class=&quot;MsoNormal&quot;&gt;&lt;b&gt;Фейловер-стратегия для обеспечения отказоустойчивости&lt;/b&gt;&lt;/p&gt;&lt;p class=&quot;MsoNormal&quot;&gt;Для обеспечения отказоустойчивости и выполнения требований&lt;br&gt;(99.9% доступности, RTO ≤ 45 минут, RPO ≤ 15 минут) реализуется многоуровневая&lt;br&gt;стратегия фейловера. Она обеспечивает автоматическое перенаправление запросов&lt;br&gt;при сбоях, чтобы пользователи не заметили замедления работы сервиса.&lt;/p&gt;&lt;p class=&quot;MsoNormal&quot;&gt;&lt;br&gt;&lt;/p&gt;&lt;div class=&quot;MsoNormal&quot; align=&quot;center&quot; style=&quot;text-align:center&quot;&gt;&lt;hr size=&quot;2&quot; width=&quot;100%&quot; align=&quot;center&quot;&gt;&lt;/div&gt;&lt;br&gt;&lt;p class=&quot;MsoNormal&quot;&gt;&lt;b&gt;Выбранная стратегия: Многоуровневый фейловер&lt;/b&gt;&lt;/p&gt;&lt;p class=&quot;MsoNormal&quot;&gt;&lt;b&gt;1. На уровне глобального балансировщика&lt;/b&gt;&lt;/p&gt;&lt;ul style=&quot;margin-top:0cm&quot; type=&quot;disc&quot;&gt;&lt;li class=&quot;MsoNormal&quot; style=&quot;mso-list:l6 level1 lfo1;tab-stops:list 36.0pt&quot;&gt;&lt;b&gt;Что происходит при сбое регионального кластера&lt;/b&gt;:&lt;/li&gt;&lt;ul style=&quot;margin-top:0cm&quot; type=&quot;circle&quot;&gt;&lt;br&gt;  &lt;li class=&quot;MsoNormal&quot; style=&quot;mso-list:l6 level2 lfo1;tab-stops:list 72.0pt&quot;&gt;Если один из региональных кластеров становится недоступным, глобальный&lt;br&gt;      балансировщик исключает его из маршрутов.&lt;/li&gt;&lt;br&gt;  &lt;li class=&quot;MsoNormal&quot; style=&quot;mso-list:l6 level2 lfo1;tab-stops:list 72.0pt&quot;&gt;Трафик автоматически перенаправляется на ближайший доступный региональный&lt;br&gt;      кластер.&lt;/li&gt;&lt;br&gt;  &lt;li class=&quot;MsoNormal&quot; style=&quot;mso-list:l6 level2 lfo1;tab-stops:list 72.0pt&quot;&gt;Пользователи региона не замечают задержек, так как перенаправление происходит мгновенно.&lt;/li&gt;&lt;br&gt; &lt;/ul&gt;&lt;li class=&quot;MsoNormal&quot; style=&quot;mso-list:l6 level1 lfo1;tab-stops:list 36.0pt&quot;&gt;&lt;b&gt;Как работает&lt;/b&gt;:&lt;/li&gt;&lt;ul style=&quot;margin-top:0cm&quot; type=&quot;circle&quot;&gt;&lt;br&gt;  &lt;li class=&quot;MsoNormal&quot; style=&quot;mso-list:l6 level2 lfo1;tab-stops:list 72.0pt&quot;&gt;Глобальный балансировщик использует Health Checks для регулярной проверки&lt;br&gt;      доступности региональных кластеров.&lt;/li&gt;&lt;br&gt;  &lt;li class=&quot;MsoNormal&quot; style=&quot;mso-list:l6 level2 lfo1;tab-stops:list 72.0pt&quot;&gt;Если запросы к /health возвращают ошибку или отсутствует отклик, регион&lt;br&gt;      помечается как недоступный.&lt;/li&gt;&lt;/ul&gt;&lt;/ul&gt;&lt;div&gt;&lt;b style=&quot;background-color: initial;&quot;&gt;2. На уровне локального балансировщика&lt;/b&gt;&lt;br&gt;&lt;/div&gt;&lt;br&gt;&lt;ul style=&quot;margin-top:0cm&quot; type=&quot;disc&quot;&gt;&lt;li class=&quot;MsoNormal&quot; style=&quot;mso-list:l3 level1 lfo2;tab-stops:list 36.0pt&quot;&gt;&lt;b&gt;Что происходит при сбое подов или узлов&lt;/b&gt;:&lt;/li&gt;&lt;ul style=&quot;margin-top:0cm&quot; type=&quot;circle&quot;&gt;&lt;br&gt;  &lt;li class=&quot;MsoNormal&quot; style=&quot;mso-list:l3 level2 lfo2;tab-stops:list 72.0pt&quot;&gt;Локальный балансировщик исключает недоступные поды из обработки запросов.&lt;/li&gt;&lt;br&gt;  &lt;li class=&quot;MsoNormal&quot; style=&quot;mso-list:l3 level2 lfo2;tab-stops:list 72.0pt&quot;&gt;Kubernetes автоматически перезапускает поды, если они зависли или не готовы&lt;br&gt;      обрабатывать запросы.&lt;/li&gt;&lt;br&gt; &lt;/ul&gt;&lt;li class=&quot;MsoNormal&quot; style=&quot;mso-list:l3 level1 lfo2;tab-stops:list 36.0pt&quot;&gt;&lt;b&gt;Как работает&lt;/b&gt;:&lt;/li&gt;&lt;br&gt; &lt;ul style=&quot;margin-top:0cm&quot; type=&quot;circle&quot;&gt;&lt;li class=&quot;MsoNormal&quot; style=&quot;mso-list:l3 level2 lfo2;tab-stops:list 72.0pt&quot;&gt;Локальный балансировщик маршрутизирует трафик только на поды, прошедшие &lt;b&gt;readiness&amp;nbsp;&lt;/b&gt;и &lt;b&gt;liveness probes&lt;/b&gt;.&lt;/li&gt;&lt;br&gt;  &lt;li class=&quot;MsoNormal&quot; style=&quot;mso-list:l3 level2 lfo2;tab-stops:list 72.0pt&quot;&gt;Если все поды региона становятся недоступны, управление передаётся глобальному балансировщику для перенаправления трафика в соседний регион.&lt;/li&gt;&lt;/ul&gt;&lt;/ul&gt;&lt;div class=&quot;MsoNormal&quot; align=&quot;center&quot; style=&quot;text-align:center&quot;&gt;&lt;br&gt;&lt;hr size=&quot;2&quot; width=&quot;100%&quot; align=&quot;center&quot;&gt;&lt;/div&gt;&lt;br&gt;&lt;p class=&quot;MsoNormal&quot;&gt;&lt;b&gt;Детали стратегии&lt;/b&gt;&lt;/p&gt;&lt;p class=&quot;MsoNormal&quot;&gt;&lt;b&gt;1. Глобальный уровень&lt;/b&gt;&lt;/p&gt;&lt;ul style=&quot;margin-top:0cm&quot; type=&quot;disc&quot;&gt;&lt;li class=&quot;MsoNormal&quot; style=&quot;mso-list:l4 level1 lfo3;tab-stops:list 36.0pt&quot;&gt;&lt;b&gt;Что проверяет&lt;/b&gt;:&lt;/li&gt;&lt;ul style=&quot;margin-top:0cm&quot; type=&quot;circle&quot;&gt;&lt;br&gt;  &lt;li class=&quot;MsoNormal&quot; style=&quot;mso-list:l4 level2 lfo3;tab-stops:list 72.0pt&quot;&gt;Доступность региональных кластеров.&lt;/li&gt;&lt;/ul&gt;&lt;br&gt; &lt;li class=&quot;MsoNormal&quot; style=&quot;mso-list:l4 level1 lfo3;tab-stops:list 36.0pt&quot;&gt;&lt;b&gt;Действия при сбое&lt;/b&gt;:&lt;/li&gt;&lt;ul style=&quot;margin-top:0cm&quot; type=&quot;circle&quot;&gt;&lt;br&gt;  &lt;li class=&quot;MsoNormal&quot; style=&quot;mso-list:l4 level2 lfo3;tab-stops:list 72.0pt&quot;&gt;Если кластер недоступен (по результатам Health Checks), глобальный&lt;br&gt;      балансировщик перенаправляет запросы в ближайший доступный региональный&lt;br&gt;      кластер.&lt;/li&gt;&lt;br&gt;  &lt;li class=&quot;MsoNormal&quot; style=&quot;mso-list:l4 level2 lfo3;tab-stops:list 72.0pt&quot;&gt;Это обеспечивает мгновенное переключение, чтобы пользователи региона не&lt;br&gt;      заметили замедления работы сервиса.&lt;/li&gt;&lt;br&gt; &lt;/ul&gt;&lt;/ul&gt;&lt;p class=&quot;MsoNormal&quot;&gt;&lt;b&gt;2. Региональный уровень&lt;/b&gt;&lt;/p&gt;&lt;ul style=&quot;margin-top:0cm&quot; type=&quot;disc&quot;&gt;&lt;br&gt; &lt;li class=&quot;MsoNormal&quot; style=&quot;mso-list:l1 level1 lfo4;tab-stops:list 36.0pt&quot;&gt;&lt;b&gt;Что проверяет&lt;/b&gt;:&lt;/li&gt;&lt;ul style=&quot;margin-top:0cm&quot; type=&quot;circle&quot;&gt;&lt;br&gt;  &lt;li class=&quot;MsoNormal&quot; style=&quot;mso-list:l1 level2 lfo4;tab-stops:list 72.0pt&quot;&gt;Доступность приложений в подах.&lt;/li&gt;&lt;/ul&gt;&lt;br&gt; &lt;li class=&quot;MsoNormal&quot; style=&quot;mso-list:l1 level1 lfo4;tab-stops:list 36.0pt&quot;&gt;&lt;b&gt;Действия при сбое&lt;/b&gt;:&lt;/li&gt;&lt;ul style=&quot;margin-top:0cm&quot; type=&quot;circle&quot;&gt;&lt;br&gt;  &lt;li class=&quot;MsoNormal&quot; style=&quot;mso-list:l1 level2 lfo4;tab-stops:list 72.0pt&quot;&gt;Если отдельные поды становятся недоступными, локальный балансировщик&lt;br&gt;      перенаправляет запросы на доступные поды.&lt;/li&gt;&lt;br&gt;  &lt;li class=&quot;MsoNormal&quot; style=&quot;mso-list:l1 level2 lfo4;tab-stops:list 72.0pt&quot;&gt;Если все поды в регионе недоступны, запросы передаются глобальному&lt;br&gt;      балансировщику.&lt;/li&gt;&lt;/ul&gt;&lt;/ul&gt;&lt;p class=&quot;MsoNormal&quot;&gt;&lt;b&gt;3. Автоматическое восстановление&lt;/b&gt;&lt;/p&gt;&lt;ul style=&quot;margin-top:0cm&quot; type=&quot;disc&quot;&gt;&lt;li class=&quot;MsoNormal&quot; style=&quot;mso-list:l2 level1 lfo5;tab-stops:list 36.0pt&quot;&gt;Kubernetes автоматически перезапускает поды и узлы, если они становятся недоступными.&lt;/li&gt;&lt;/ul&gt;&lt;div class=&quot;MsoNormal&quot; align=&quot;center&quot; style=&quot;text-align:center&quot;&gt;&lt;br&gt;&lt;hr size=&quot;2&quot; width=&quot;100%&quot; align=&quot;center&quot;&gt;&lt;/div&gt;&lt;br&gt;&lt;p class=&quot;MsoNormal&quot;&gt;&lt;b&gt;Пример сценария фейловера&lt;/b&gt;&lt;/p&gt;&lt;ol style=&quot;margin-top:0cm&quot; start=&quot;1&quot; type=&quot;1&quot;&gt;&lt;li class=&quot;MsoNormal&quot; style=&quot;mso-list:l0 level1 lfo6;tab-stops:list 36.0pt&quot;&gt;&lt;b&gt;Сбой в регионе&lt;/b&gt;:&lt;/li&gt;&lt;ul style=&quot;margin-top:0cm&quot; type=&quot;circle&quot;&gt;&lt;br&gt;  &lt;li class=&quot;MsoNormal&quot; style=&quot;mso-list:l0 level2 lfo6;tab-stops:list 72.0pt&quot;&gt;Московский кластер недоступен (например, проблемы с сетью или инфраструктурой).&lt;/li&gt;&lt;br&gt;  &lt;li class=&quot;MsoNormal&quot; style=&quot;mso-list:l0 level2 lfo6;tab-stops:list 72.0pt&quot;&gt;Глобальный балансировщик мгновенно перенаправляет трафик на Новосибирский кластер.&lt;/li&gt;&lt;br&gt; &lt;/ul&gt;&lt;li class=&quot;MsoNormal&quot; style=&quot;mso-list:l0 level1 lfo6;tab-stops:list 36.0pt&quot;&gt;&lt;b&gt;Сбой пода&lt;/b&gt;:&lt;/li&gt;&lt;ul style=&quot;margin-top:0cm&quot; type=&quot;circle&quot;&gt;&lt;br&gt;  &lt;li class=&quot;MsoNormal&quot; style=&quot;mso-list:l0 level2 lfo6;tab-stops:list 72.0pt&quot;&gt;Один из подов в Новосибирском кластере завис.&lt;/li&gt;&lt;br&gt;  &lt;li class=&quot;MsoNormal&quot; style=&quot;mso-list:l0 level2 lfo6;tab-stops:list 72.0pt&quot;&gt;Локальный балансировщик исключает под из маршрутизации.&lt;/li&gt;&lt;br&gt;  &lt;li class=&quot;MsoNormal&quot; style=&quot;mso-list:l0 level2 lfo6;tab-stops:list 72.0pt&quot;&gt;Kubernetes перезапускает под.&lt;/li&gt;&lt;br&gt; &lt;/ul&gt;&lt;li class=&quot;MsoNormal&quot; style=&quot;mso-list:l0 level1 lfo6;tab-stops:list 36.0pt&quot;&gt;&lt;b&gt;Полный сбой регионального приложения&lt;/b&gt;:&lt;/li&gt;&lt;ul style=&quot;margin-top:0cm&quot; type=&quot;circle&quot;&gt;&lt;br&gt;  &lt;li class=&quot;MsoNormal&quot; style=&quot;mso-list:l0 level2 lfo6;tab-stops:list 72.0pt&quot;&gt;Все поды приложения в Новосибирске недоступны.&lt;/li&gt;&lt;br&gt;  &lt;li class=&quot;MsoNormal&quot; style=&quot;mso-list:l0 level2 lfo6;tab-stops:list 72.0pt&quot;&gt;Глобальный балансировщик перенаправляет трафик на Владивостокский кластер.&lt;/li&gt;&lt;/ul&gt;&lt;/ol&gt;&lt;div class=&quot;MsoNormal&quot; align=&quot;center&quot; style=&quot;text-align:center&quot;&gt;&lt;br&gt;&lt;hr size=&quot;2&quot; width=&quot;100%&quot; align=&quot;center&quot;&gt;&lt;/div&gt;&lt;br&gt;&lt;p class=&quot;MsoNormal&quot;&gt;&lt;b&gt;Почему эта стратегия эффективна&lt;/b&gt;&lt;/p&gt;&lt;ol style=&quot;margin-top:0cm&quot; start=&quot;1&quot; type=&quot;1&quot;&gt;&lt;li class=&quot;MsoNormal&quot; style=&quot;mso-list:l5 level1 lfo7;tab-stops:list 36.0pt&quot;&gt;&lt;b&gt;Мгновенное переключение&lt;/b&gt;:&lt;/li&gt;&lt;ul style=&quot;margin-top:0cm&quot; type=&quot;circle&quot;&gt;&lt;br&gt;  &lt;li class=&quot;MsoNormal&quot; style=&quot;mso-list:l5 level2 lfo7;tab-stops:list 72.0pt&quot;&gt;Пользовательский трафик автоматически перенаправляется на ближайший доступный кластер при сбое, что исключает заметное замедление работы.&lt;/li&gt;&lt;/ul&gt;&lt;br&gt; &lt;li class=&quot;MsoNormal&quot; style=&quot;mso-list:l5 level1 lfo7;tab-stops:list 36.0pt&quot;&gt;&lt;b&gt;Высокая доступность&lt;/b&gt;:&lt;/li&gt;&lt;br&gt; &lt;ul style=&quot;margin-top:0cm&quot; type=&quot;circle&quot;&gt;&lt;li class=&quot;MsoNormal&quot; style=&quot;mso-list:l5 level2 lfo7;tab-stops:list 72.0pt&quot;&gt;Локальные сбои обрабатываются локальными балансировщиками.&lt;/li&gt;&lt;br&gt;  &lt;li class=&quot;MsoNormal&quot; style=&quot;mso-list:l5 level2 lfo7;tab-stops:list 72.0pt&quot;&gt;Глобальный балансировщик управляет большими отказами (например, недоступностью всего региона).&lt;/li&gt;&lt;br&gt; &lt;/ul&gt;&lt;li class=&quot;MsoNormal&quot; style=&quot;mso-list:l5 level1 lfo7;tab-stops:list 36.0pt&quot;&gt;&lt;b&gt;Автоматическое восстановление&lt;/b&gt;:&lt;/li&gt;&lt;ul style=&quot;margin-top:0cm&quot; type=&quot;circle&quot;&gt;&lt;br&gt;  &lt;li class=&quot;MsoNormal&quot; style=&quot;mso-list:l5 level2 lfo7;tab-stops:list 72.0pt&quot;&gt;Kubernetes и балансировщики минимизируют время простоя приложений.&lt;/li&gt;&lt;/ul&gt;&lt;br&gt; &lt;li class=&quot;MsoNormal&quot; style=&quot;mso-list:l5 level1 lfo7;tab-stops:list 36.0pt&quot;&gt;&lt;b&gt;Простота для пользователя&lt;/b&gt;:&lt;/li&gt;&lt;ul style=&quot;margin-top:0cm&quot; type=&quot;circle&quot;&gt;&lt;br&gt;  &lt;li class=&quot;MsoNormal&quot; style=&quot;mso-list:l5 level2 lfo7;tab-stops:list 72.0pt&quot;&gt;Пользователи не замечают сбоев благодаря многоуровневой системе маршрутизации.&lt;/li&gt;&lt;/ul&gt;&lt;/ol&gt;" style="text;whiteSpace=wrap;html=1;" vertex="1" parent="1">
          <mxGeometry x="438.00004882812505" y="1153.99990234375" width="550" height="4221" as="geometry" />
        </mxCell>
        <mxCell id="HlJHgFVcDTPW6L8RVwm2-14" value="&lt;p class=&quot;MsoNormal&quot;&gt;&lt;b&gt;Конфигурация базы данных для обеспечения RTO и RPO&lt;/b&gt;&lt;/p&gt;&lt;p class=&quot;MsoNormal&quot;&gt;Для выполнения требований отказоустойчивости базы данных&lt;br&gt;(RTO ≤ 45 минут, RPO ≤ 15 минут), необходимо обеспечить:&lt;/p&gt;&lt;ol style=&quot;margin-top:0cm&quot; start=&quot;1&quot; type=&quot;1&quot;&gt;&lt;li class=&quot;MsoNormal&quot; style=&quot;mso-list:l3 level1 lfo1;tab-stops:list 36.0pt&quot;&gt;&lt;b&gt;Репликацию данных&lt;/b&gt; для высокой доступности и минимизации потерь данных.&lt;/li&gt;&lt;br&gt; &lt;li class=&quot;MsoNormal&quot; style=&quot;mso-list:l3 level1 lfo1;tab-stops:list 36.0pt&quot;&gt;&lt;b&gt;Резервное копирование&lt;/b&gt; для восстановления данных в случае серьёзных сбоев.&lt;/li&gt;&lt;/ol&gt;&lt;div class=&quot;MsoNormal&quot; align=&quot;center&quot; style=&quot;text-align:center&quot;&gt;&lt;br&gt;&lt;hr size=&quot;2&quot; width=&quot;100%&quot; align=&quot;center&quot;&gt;&lt;/div&gt;&lt;br&gt;&lt;p class=&quot;MsoNormal&quot;&gt;&lt;b&gt;Выбранная архитектура базы данных&lt;/b&gt;&lt;/p&gt;&lt;p class=&quot;MsoNormal&quot;&gt;&lt;b&gt;1. Репликация базы данных&lt;/b&gt;&lt;/p&gt;&lt;ul style=&quot;margin-top:0cm&quot; type=&quot;disc&quot;&gt;&lt;li class=&quot;MsoNormal&quot; style=&quot;mso-list:l0 level1 lfo2;tab-stops:list 36.0pt&quot;&gt;&lt;b&gt;Тип репликации&lt;/b&gt;: Асинхронная репликация.&lt;/li&gt;&lt;ul style=&quot;margin-top:0cm&quot; type=&quot;circle&quot;&gt;&lt;br&gt;  &lt;li class=&quot;MsoNormal&quot; style=&quot;mso-list:l0 level2 lfo2;tab-stops:list 72.0pt&quot;&gt;Асинхронная репликация обеспечивает баланс между производительностью и низкими задержками. В большинстве случаев задержка репликации минимальна, и её достаточно для выполнения RPO ≤ 15 минут.&lt;/li&gt;&lt;/ul&gt;&lt;br&gt; &lt;li class=&quot;MsoNormal&quot; style=&quot;mso-list:l0 level1 lfo2;tab-stops:list 36.0pt&quot;&gt;&lt;b&gt;Роль мастер-базы&lt;/b&gt;:&lt;/li&gt;&lt;ul style=&quot;margin-top:0cm&quot; type=&quot;circle&quot;&gt;&lt;br&gt;  &lt;li class=&quot;MsoNormal&quot; style=&quot;mso-list:l0 level2 lfo2;tab-stops:list 72.0pt&quot;&gt;Единственный мастер для операций записи.&lt;/li&gt;&lt;br&gt;  &lt;li class=&quot;MsoNormal&quot; style=&quot;mso-list:l0 level2 lfo2;tab-stops:list 72.0pt&quot;&gt;Мастер-база расположена в центральном регионе (например, Москва).&lt;/li&gt;&lt;br&gt; &lt;/ul&gt;&lt;li class=&quot;MsoNormal&quot; style=&quot;mso-list:l0 level1 lfo2;tab-stops:list 36.0pt&quot;&gt;&lt;b&gt;Роль реплик&lt;/b&gt;:&lt;/li&gt;&lt;ul style=&quot;margin-top:0cm&quot; type=&quot;circle&quot;&gt;&lt;br&gt;  &lt;li class=&quot;MsoNormal&quot; style=&quot;mso-list:l0 level2 lfo2;tab-stops:list 72.0pt&quot;&gt;Реплики (read replicas) находятся в каждом региональном кластере и обрабатывают операции чтения.&lt;/li&gt;&lt;/ul&gt;&lt;br&gt; &lt;li class=&quot;MsoNormal&quot; style=&quot;mso-list:l0 level1 lfo2;tab-stops:list 36.0pt&quot;&gt;&lt;b&gt;Инструменты репликации&lt;/b&gt;:&lt;/li&gt;&lt;br&gt; &lt;ul style=&quot;margin-top:0cm&quot; type=&quot;circle&quot;&gt;&lt;li class=&quot;MsoNormal&quot; style=&quot;mso-list:l0 level2 lfo2;tab-stops:list 72.0pt&quot;&gt;&lt;b&gt;PostgreSQL Streaming Replication&lt;/b&gt;:&lt;/li&gt;&lt;ul style=&quot;margin-top:0cm&quot; type=&quot;square&quot;&gt;&lt;br&gt;   &lt;li class=&quot;MsoNormal&quot; style=&quot;mso-list:l0 level3 lfo2;tab-stops:list 108.0pt&quot;&gt;Надёжная репликация с использованием WAL (Write-Ahead Log), которая обеспечивает передачу изменений на реплики в режиме реального времени.&lt;/li&gt;&lt;/ul&gt;&lt;/ul&gt;&lt;/ul&gt;&lt;p class=&quot;MsoNormal&quot;&gt;&lt;b&gt;2. Резервное копирование&lt;/b&gt;&lt;/p&gt;&lt;ul style=&quot;margin-top:0cm&quot; type=&quot;disc&quot;&gt;&lt;li class=&quot;MsoNormal&quot; style=&quot;mso-list:l1 level1 lfo3;tab-stops:list 36.0pt&quot;&gt;&lt;b&gt;Подход&lt;/b&gt;:&lt;/li&gt; &lt;ul style=&quot;margin-top:0cm&quot; type=&quot;circle&quot;&gt;&lt;br&gt;  &lt;li class=&quot;MsoNormal&quot; style=&quot;mso-list:l1 level2 lfo3;tab-stops:list 72.0pt&quot;&gt;Регулярное создание резервных копий данных мастер-базы.&lt;/li&gt;&lt;br&gt;  &lt;li class=&quot;MsoNormal&quot; style=&quot;mso-list:l1 level2 lfo3;tab-stops:list 72.0pt&quot;&gt;Использование Point-in-Time Recovery (PITR) для восстановления данных до состояния на любой момент времени.&lt;/li&gt;&lt;/ul&gt;&lt;br&gt; &lt;li class=&quot;MsoNormal&quot; style=&quot;mso-list:l1 level1 lfo3;tab-stops:list 36.0pt&quot;&gt;&lt;b&gt;Частота&lt;/b&gt;:&lt;/li&gt; &lt;ul style=&quot;margin-top:0cm&quot; type=&quot;circle&quot;&gt;&lt;br&gt;  &lt;li class=&quot;MsoNormal&quot; style=&quot;mso-list:l1 level2 lfo3;tab-stops:list 72.0pt&quot;&gt;Полные резервные копии — каждые 24 часа.&lt;/li&gt;&lt;br&gt;  &lt;li class=&quot;MsoNormal&quot; style=&quot;mso-list:l1 level2 lfo3;tab-stops:list 72.0pt&quot;&gt;Инкрементальные резервные копии (WAL-архивы) — каждые 5 минут.&lt;/li&gt;&lt;br&gt; &lt;/ul&gt;&lt;li class=&quot;MsoNormal&quot; style=&quot;mso-list:l1 level1 lfo3;tab-stops:list 36.0pt&quot;&gt;&lt;b&gt;Инструменты&lt;/b&gt;:&amp;nbsp;&lt;/li&gt; &lt;ul style=&quot;margin-top:0cm&quot; type=&quot;circle&quot;&gt;&lt;br&gt;  &lt;li class=&quot;MsoNormal&quot; style=&quot;mso-list:l1 level2 lfo3;tab-stops:list 72.0pt&quot;&gt;&lt;b&gt;pgBackRest&lt;/b&gt;:&lt;/li&gt;&lt;ul style=&quot;margin-top:0cm&quot; type=&quot;square&quot;&gt;&lt;br&gt;   &lt;li class=&quot;MsoNormal&quot; style=&quot;mso-list:l1 level3 lfo3;tab-stops:list 108.0pt&quot;&gt;Поддержка полного и инкрементального резервного копирования.&lt;/li&gt;&lt;br&gt;   &lt;li class=&quot;MsoNormal&quot; style=&quot;mso-list:l1 level3 lfo3;tab-stops:list 108.0pt&quot;&gt;Архивация WAL для восстановления данных на определённый момент времени.&lt;/li&gt;&lt;/ul&gt;&lt;br&gt;  &lt;li class=&quot;MsoNormal&quot; style=&quot;mso-list:l1 level2 lfo3;tab-stops:list 72.0pt&quot;&gt;&lt;b&gt;Облачное хранилище&lt;/b&gt;:&lt;/li&gt;&lt;ul style=&quot;margin-top:0cm&quot; type=&quot;square&quot;&gt;&lt;br&gt;   &lt;li class=&quot;MsoNormal&quot; style=&quot;mso-list:l1 level3 lfo3;tab-stops:list 108.0pt&quot;&gt;AWS S3, GCP Storage или локальное S3-совместимое хранилище для хранения резервных копий.&lt;/li&gt;&lt;/ul&gt;&lt;/ul&gt;&lt;/ul&gt;&lt;div class=&quot;MsoNormal&quot; align=&quot;center&quot; style=&quot;text-align:center&quot;&gt;&lt;br&gt;&lt;hr size=&quot;2&quot; width=&quot;100%&quot; align=&quot;center&quot;&gt;&lt;/div&gt;&lt;br&gt;&lt;p class=&quot;MsoNormal&quot;&gt;&lt;b&gt;Конфигурация кластера базы данных&lt;/b&gt;&lt;/p&gt;&lt;ol style=&quot;margin-top:0cm&quot; start=&quot;1&quot; type=&quot;1&quot;&gt;&lt;li class=&quot;MsoNormal&quot; style=&quot;mso-list:l4 level1 lfo4;tab-stops:list 36.0pt&quot;&gt;&lt;b&gt;Основные компоненты&lt;/b&gt;:&lt;/li&gt;&lt;ul style=&quot;margin-top:0cm&quot; type=&quot;circle&quot;&gt;&lt;br&gt;  &lt;li class=&quot;MsoNormal&quot; style=&quot;mso-list:l4 level2 lfo4;tab-stops:list 72.0pt&quot;&gt;&lt;b&gt;Мастер-база&lt;/b&gt;:&lt;/li&gt;  &lt;ul style=&quot;margin-top:0cm&quot; type=&quot;square&quot;&gt;&lt;br&gt;   &lt;li class=&quot;MsoNormal&quot; style=&quot;mso-list:l4 level3 lfo4;tab-stops:list 108.0pt&quot;&gt;Центральная база для записи данных.&lt;/li&gt;&lt;/ul&gt;&lt;br&gt;  &lt;li class=&quot;MsoNormal&quot; style=&quot;mso-list:l4 level2 lfo4;tab-stops:list 72.0pt&quot;&gt;&lt;b&gt;Реплики&lt;/b&gt;:&lt;/li&gt;  &lt;ul style=&quot;margin-top:0cm&quot; type=&quot;square&quot;&gt;&lt;br&gt;   &lt;li class=&quot;MsoNormal&quot; style=&quot;mso-list:l4 level3 lfo4;tab-stops:list 108.0pt&quot;&gt;Читающие реплики в каждом регионе для обработки локальных запросов на чтение.&lt;/li&gt;&lt;/ul&gt;&lt;br&gt;  &lt;li class=&quot;MsoNormal&quot; style=&quot;mso-list:l4 level2 lfo4;tab-stops:list 72.0pt&quot;&gt;&lt;b&gt;Сервис репликации&lt;/b&gt;:&lt;/li&gt;&lt;ul style=&quot;margin-top:0cm&quot; type=&quot;square&quot;&gt;&lt;br&gt;   &lt;li class=&quot;MsoNormal&quot; style=&quot;mso-list:l4 level3 lfo4;tab-stops:list 108.0pt&quot;&gt;PostgreSQL Streaming Replication для передачи изменений на реплики.&lt;/li&gt;&lt;/ul&gt;&lt;br&gt;  &lt;li class=&quot;MsoNormal&quot; style=&quot;mso-list:l4 level2 lfo4;tab-stops:list 72.0pt&quot;&gt;&lt;b&gt;Система резервного копирования&lt;/b&gt;:&lt;/li&gt;&lt;ul style=&quot;margin-top:0cm&quot; type=&quot;square&quot;&gt;&lt;br&gt;   &lt;li class=&quot;MsoNormal&quot; style=&quot;mso-list:l4 level3 lfo4;tab-stops:list 108.0pt&quot;&gt;Регулярное копирование данных мастер-базы в централизованное хранилище.&lt;/li&gt;&lt;/ul&gt;&lt;/ul&gt;&lt;/ol&gt;&lt;div class=&quot;MsoNormal&quot; align=&quot;center&quot; style=&quot;text-align:center&quot;&gt;&lt;br&gt;&lt;hr size=&quot;2&quot; width=&quot;100%&quot; align=&quot;center&quot;&gt;&lt;/div&gt;&lt;br&gt;&lt;p class=&quot;MsoNormal&quot;&gt;&lt;b&gt;Почему эта конфигурация оптимальна&lt;/b&gt;&lt;/p&gt;&lt;ol style=&quot;margin-top:0cm&quot; start=&quot;1&quot; type=&quot;1&quot;&gt;&lt;li class=&quot;MsoNormal&quot; style=&quot;mso-list:l2 level1 lfo5;tab-stops:list 36.0pt&quot;&gt;&lt;b&gt;Высокая доступность&lt;/b&gt;:&lt;/li&gt;&lt;ul style=&quot;margin-top:0cm&quot; type=&quot;circle&quot;&gt;&lt;br&gt;  &lt;li class=&quot;MsoNormal&quot; style=&quot;mso-list:l2 level2 lfo5;tab-stops:list 72.0pt&quot;&gt;Реплики в каждом регионе обрабатывают локальные запросы на чтение.&lt;/li&gt;&lt;br&gt;  &lt;li class=&quot;MsoNormal&quot; style=&quot;mso-list:l2 level2 lfo5;tab-stops:list 72.0pt&quot;&gt;В случае сбоя реплики или мастер-базы фейловер обеспечивает продолжение&lt;br&gt;      работы.&lt;/li&gt;&lt;/ul&gt;&lt;br&gt; &lt;li class=&quot;MsoNormal&quot; style=&quot;mso-list:l2 level1 lfo5;tab-stops:list 36.0pt&quot;&gt;&lt;b&gt;Минимизация потерь данных&lt;/b&gt;:&lt;/li&gt;&lt;ul style=&quot;margin-top:0cm&quot; type=&quot;circle&quot;&gt;&lt;br&gt;  &lt;li class=&quot;MsoNormal&quot; style=&quot;mso-list:l2 level2 lfo5;tab-stops:list 72.0pt&quot;&gt;Асинхронная репликация и резервное копирование каждые 5 минут позволяют достичь RPO ≤ 15 минут.&lt;/li&gt;&lt;/ul&gt;&lt;br&gt; &lt;li class=&quot;MsoNormal&quot; style=&quot;mso-list:l2 level1 lfo5;tab-stops:list 36.0pt&quot;&gt;&lt;b&gt;Гибкость восстановления&lt;/b&gt;:&lt;/li&gt;&lt;ul style=&quot;margin-top:0cm&quot; type=&quot;circle&quot;&gt;&lt;br&gt;  &lt;li class=&quot;MsoNormal&quot; style=&quot;mso-list:l2 level2 lfo5;tab-stops:list 72.0pt&quot;&gt;Поддержка Point-in-Time Recovery позволяет восстановить данные до конкретного&lt;br&gt;      момента времени&lt;/li&gt; &lt;/ul&gt;&lt;br&gt; &lt;li class=&quot;MsoNormal&quot; style=&quot;mso-list:l2 level1 lfo5;tab-stops:list 36.0pt&quot;&gt;&lt;b&gt;Масштабируемость&lt;/b&gt;:&lt;/li&gt;&lt;ul style=&quot;margin-top:0cm&quot; type=&quot;circle&quot;&gt;&lt;br&gt;  &lt;li class=&quot;MsoNormal&quot; style=&quot;mso-list:l2 level2 lfo5;tab-stops:list 72.0pt&quot;&gt;Новые реплики могут быть добавлены в любом регионе при увеличении нагрузки.&lt;/li&gt;&lt;br&gt; &lt;/ul&gt;&lt;br&gt;&lt;/ol&gt;&lt;br&gt;&lt;br&gt;&lt;p class=&quot;MsoNormal&quot;&gt;&amp;nbsp;&lt;/p&gt;" style="text;whiteSpace=wrap;html=1;" vertex="1" parent="1">
          <mxGeometry x="1139.000048828125" y="1148.999951171875" width="550" height="3569" as="geometry" />
        </mxCell>
        <mxCell id="HlJHgFVcDTPW6L8RVwm2-15" value="&lt;p class=&quot;MsoNormal&quot;&gt;&lt;b&gt;Применение шардирования в базе данных&lt;/b&gt;&lt;/p&gt;&lt;p class=&quot;MsoNormal&quot;&gt;Шардирование — это горизонтальное разделение данных между&lt;br&gt;несколькими базами для увеличения производительности и масштабируемости.&lt;br&gt;Решение о применении шардирования зависит от объёма данных и требований к&lt;br&gt;производительности.&lt;/p&gt;&lt;div class=&quot;MsoNormal&quot; align=&quot;center&quot; style=&quot;text-align:center&quot;&gt;&lt;br&gt;&lt;hr size=&quot;2&quot; width=&quot;100%&quot; align=&quot;center&quot;&gt;&lt;/div&gt;&lt;p class=&quot;MsoNormal&quot;&gt;&lt;b&gt;&lt;br&gt;&lt;/b&gt;&lt;/p&gt;&lt;p class=&quot;MsoNormal&quot;&gt;&lt;b&gt;Решение: Не применять шардирование на данном этапе&lt;/b&gt;&lt;/p&gt;&lt;p class=&quot;MsoNormal&quot;&gt;&lt;b&gt;Обоснование&lt;/b&gt;&lt;/p&gt;&lt;ol style=&quot;margin-top:0cm&quot; start=&quot;1&quot; type=&quot;1&quot;&gt;&lt;br&gt; &lt;li class=&quot;MsoNormal&quot; style=&quot;mso-list:l1 level1 lfo1;tab-stops:list 36.0pt&quot;&gt;&lt;b&gt;Объём данных&lt;/b&gt;:&lt;/li&gt;&lt;br&gt; &lt;ul style=&quot;margin-top:0cm&quot; type=&quot;circle&quot;&gt;&lt;li class=&quot;MsoNormal&quot; style=&quot;mso-list:l1 level2 lfo1;tab-stops:list 72.0pt&quot;&gt;В задании указан текущий объём данных — &lt;b&gt;50 ГБ&lt;/b&gt;, который можно легко&lt;br&gt;      обслуживать одной мастер-базой и репликами.&lt;/li&gt;&lt;br&gt;  &lt;li class=&quot;MsoNormal&quot; style=&quot;mso-list:l1 level2 lfo1;tab-stops:list 72.0pt&quot;&gt;PostgreSQL эффективно работает с такими объёмами без необходимости шардирования.&lt;/li&gt;&lt;/ul&gt;&lt;br&gt; &lt;li class=&quot;MsoNormal&quot; style=&quot;mso-list:l1 level1 lfo1;tab-stops:list 36.0pt&quot;&gt;&lt;b&gt;Простота управления&lt;/b&gt;:&lt;/li&gt;&lt;ul style=&quot;margin-top:0cm&quot; type=&quot;circle&quot;&gt;&lt;br&gt;  &lt;li class=&quot;MsoNormal&quot; style=&quot;mso-list:l1 level2 lfo1;tab-stops:list 72.0pt&quot;&gt;Отказ от шардирования упрощает архитектуру базы данных и процессы резервного копирования, репликации и восстановления.&lt;/li&gt;&lt;/ul&gt;&lt;br&gt; &lt;li class=&quot;MsoNormal&quot; style=&quot;mso-list:l1 level1 lfo1;tab-stops:list 36.0pt&quot;&gt;&lt;b&gt;Требования к производительности&lt;/b&gt;:&lt;/li&gt;&lt;ul style=&quot;margin-top:0cm&quot; type=&quot;circle&quot;&gt;&lt;br&gt;  &lt;li class=&quot;MsoNormal&quot; style=&quot;mso-list:l1 level2 lfo1;tab-stops:list 72.0pt&quot;&gt;Для текущей нагрузки чтения и записи достаточно масштабирования через&lt;br&gt;      репликацию (read replicas) и мастер-базу для записи.&lt;/li&gt;&lt;/ul&gt;&lt;br&gt; &lt;li class=&quot;MsoNormal&quot; style=&quot;mso-list:l1 level1 lfo1;tab-stops:list 36.0pt&quot;&gt;&lt;b&gt;Гибкость масштабирования&lt;/b&gt;:&lt;/li&gt;&lt;ul style=&quot;margin-top:0cm&quot; type=&quot;circle&quot;&gt;&lt;br&gt;  &lt;li class=&quot;MsoNormal&quot; style=&quot;mso-list:l1 level2 lfo1;tab-stops:list 72.0pt&quot;&gt;Если объём данных или нагрузка существенно вырастут, можно внедрить&lt;br&gt;      шардирование на более поздних этапах.&lt;/li&gt;&lt;/ul&gt;&lt;/ol&gt;&lt;div class=&quot;MsoNormal&quot; align=&quot;center&quot; style=&quot;text-align:center&quot;&gt;&lt;br&gt;&lt;hr size=&quot;2&quot; width=&quot;100%&quot; align=&quot;center&quot;&gt;&lt;/div&gt;&lt;br&gt;&lt;p class=&quot;MsoNormal&quot;&gt;&lt;b&gt;Будущее внедрение шардирования&lt;/b&gt;&lt;/p&gt;&lt;p class=&quot;MsoNormal&quot;&gt;Если нагрузка на систему значительно увеличится или объём&amp;nbsp;данных превысит допустимые пределы одной базы, можно перейти к архитектуре с шардированием.&lt;/p&gt;&lt;p class=&quot;MsoNormal&quot;&gt;&lt;b&gt;&lt;br&gt;&lt;/b&gt;&lt;/p&gt;&lt;p class=&quot;MsoNormal&quot;&gt;&lt;b&gt;Как это будет выглядеть&lt;/b&gt;&lt;/p&gt;&lt;ol style=&quot;margin-top:0cm&quot; start=&quot;1&quot; type=&quot;1&quot;&gt;&lt;br&gt; &lt;li class=&quot;MsoNormal&quot; style=&quot;mso-list:l2 level1 lfo2;tab-stops:list 36.0pt&quot;&gt;&lt;b&gt;Разделение данных&lt;/b&gt;:&lt;/li&gt;&lt;ul style=&quot;margin-top:0cm&quot; type=&quot;circle&quot;&gt;&lt;br&gt;  &lt;li class=&quot;MsoNormal&quot; style=&quot;mso-list:l2 level2 lfo2;tab-stops:list 72.0pt&quot;&gt;Данные распределяются между несколькими базами данных на основе определённого критерия (например, региона, клиента или времени).&lt;/li&gt;&lt;/ul&gt;&lt;br&gt; &lt;li class=&quot;MsoNormal&quot; style=&quot;mso-list:l2 level1 lfo2;tab-stops:list 36.0pt&quot;&gt;&lt;b&gt;Пример архитектуры с шардированием&lt;/b&gt;:&lt;/li&gt;&lt;ul style=&quot;margin-top:0cm&quot; type=&quot;circle&quot;&gt;&lt;br&gt;  &lt;li class=&quot;MsoNormal&quot; style=&quot;mso-list:l2 level2 lfo2;tab-stops:list 72.0pt&quot;&gt;Каждый регион имеет свою базу данных (шард).&lt;/li&gt;&lt;br&gt;  &lt;li class=&quot;MsoNormal&quot; style=&quot;mso-list:l2 level2 lfo2;tab-stops:list 72.0pt&quot;&gt;Центральная база или каталог управляет метаинформацией о размещении данных.&lt;/li&gt;&lt;/ul&gt;&lt;/ol&gt;&lt;p class=&quot;MsoNormal&quot;&gt;&lt;b&gt;Когда внедрять шардирование:&lt;/b&gt;&lt;/p&gt;&lt;ul style=&quot;margin-top:0cm&quot; type=&quot;disc&quot;&gt;&lt;br&gt; &lt;li class=&quot;MsoNormal&quot; style=&quot;mso-list:l0 level1 lfo3;tab-stops:list 36.0pt&quot;&gt;Если объём данных превышает сотни гигабайт или терабайты.&lt;/li&gt;&lt;br&gt; &lt;li class=&quot;MsoNormal&quot; style=&quot;mso-list:l0 level1 lfo3;tab-stops:list 36.0pt&quot;&gt;Если производительность одной базы данных становится узким местом.&lt;/li&gt;&lt;/ul&gt;&lt;div class=&quot;MsoNormal&quot; align=&quot;center&quot; style=&quot;text-align:center&quot;&gt;&lt;br&gt;&lt;hr size=&quot;2&quot; width=&quot;100%&quot; align=&quot;center&quot;&gt;&lt;br&gt;&lt;/div&gt;&lt;p class=&quot;MsoNormal&quot;&gt;&lt;b&gt;Итоговое решение&lt;/b&gt;&lt;/p&gt;&lt;p class=&quot;MsoNormal&quot;&gt;На данном этапе шардирование &lt;b&gt;не применяется&lt;/b&gt;, так как текущий объём данных и нагрузка легко обрабатываются одной мастер-базой и репликами. Однако архитектура подготовлена для внедрения шардирования в будущем при росте нагрузки.&lt;/p&gt;" style="text;whiteSpace=wrap;html=1;" vertex="1" parent="1">
          <mxGeometry x="1788.9998779296875" y="1156.9998779296875" width="550" height="2182" as="geometry" />
        </mxCell>
        <UserObject label="&lt;h3&gt;&lt;strong&gt;Стратегия масштабирования и отказоустойчивости&lt;/strong&gt;&lt;/h3&gt;&lt;p&gt;Для обеспечения отказоустойчивости, соответствующей требованиям (99.9% доступности, RTO ≤ 45 минут, RPO ≤ 15 минут), и эффективного масштабирования будет использован комбинированный подход, включающий как вертикальное, так и горизонтальное масштабирование. При этом основной упор будет сделан на горизонтальное масштабирование.&lt;/p&gt;&lt;hr&gt;&lt;h3&gt;&lt;strong&gt;Анализ масштабирования&lt;/strong&gt;&lt;/h3&gt;&lt;h4&gt;&lt;strong&gt;1. Вертикальное масштабирование&lt;/strong&gt;&lt;/h4&gt;&lt;ul&gt;&lt;li&gt;&lt;p&gt;&lt;strong&gt;Описание&lt;/strong&gt;:&lt;/p&gt;&lt;ul&gt;&lt;li&gt;Увеличение мощности отдельных узлов: добавление CPU, RAM, хранилища.&lt;/li&gt;&lt;li&gt;Используется для масштабирования баз данных или критически важных сервисов.&lt;/li&gt;&lt;/ul&gt;&lt;/li&gt;&lt;li&gt;&lt;p&gt;&lt;strong&gt;Преимущества&lt;/strong&gt;:&lt;/p&gt;&lt;ul&gt;&lt;li&gt;Простота реализации.&lt;/li&gt;&lt;li&gt;Быстрое увеличение производительности одного узла.&lt;/li&gt;&lt;/ul&gt;&lt;/li&gt;&lt;li&gt;&lt;p&gt;&lt;strong&gt;Недостатки&lt;/strong&gt;:&lt;/p&gt;&lt;ul&gt;&lt;li&gt;Ограничено пределами аппаратных возможностей.&lt;/li&gt;&lt;li&gt;Не способствует отказоустойчивости: сбой узла ведёт к недоступности сервисов.&lt;/li&gt;&lt;/ul&gt;&lt;/li&gt;&lt;li&gt;&lt;p&gt;&lt;strong&gt;Применение в системе&lt;/strong&gt;:&lt;/p&gt;&lt;ul&gt;&lt;li&gt;Для временного устранения узких мест, особенно в мастер-базе данных.&lt;/li&gt;&lt;li&gt;Для масштабирования на этапе начальной эксплуатации системы.&lt;/li&gt;&lt;/ul&gt;&lt;/li&gt;&lt;/ul&gt;&lt;hr&gt;&lt;h4&gt;&lt;strong&gt;2. Горизонтальное масштабирование&lt;/strong&gt;&lt;/h4&gt;&lt;ul&gt;&lt;li&gt;&lt;p&gt;&lt;strong&gt;Описание&lt;/strong&gt;:&lt;/p&gt;&lt;ul&gt;&lt;li&gt;Добавление новых узлов или подов для обработки увеличивающегося объёма запросов.&lt;/li&gt;&lt;li&gt;Применимо как для приложений, так и для баз данных (например, создание реплик).&lt;/li&gt;&lt;/ul&gt;&lt;/li&gt;&lt;li&gt;&lt;p&gt;&lt;strong&gt;Преимущества&lt;/strong&gt;:&lt;/p&gt;&lt;ul&gt;&lt;li&gt;Неограниченная масштабируемость (в зависимости от архитектуры).&lt;/li&gt;&lt;li&gt;Обеспечивает отказоустойчивость: сбой одного узла не приводит к полной недоступности.&lt;/li&gt;&lt;/ul&gt;&lt;/li&gt;&lt;li&gt;&lt;p&gt;&lt;strong&gt;Недостатки&lt;/strong&gt;:&lt;/p&gt;&lt;ul&gt;&lt;li&gt;Более сложная настройка и управление (например, репликация данных, балансировка нагрузки).&lt;/li&gt;&lt;/ul&gt;&lt;/li&gt;&lt;li&gt;&lt;p&gt;&lt;strong&gt;Применение в системе&lt;/strong&gt;:&lt;/p&gt;&lt;ul&gt;&lt;li&gt;Для масштабирования приложений через добавление подов в Kubernetes.&lt;/li&gt;&lt;li&gt;Для масштабирования базы данных через создание реплик в каждом регионе.&lt;/li&gt;&lt;/ul&gt;&lt;/li&gt;&lt;/ul&gt;&lt;hr&gt;&lt;h3&gt;&lt;strong&gt;Выбор стратегии масштабирования&lt;/strong&gt;&lt;/h3&gt;&lt;ol&gt;&lt;li&gt;&lt;p&gt;&lt;strong&gt;Основная стратегия: горизонтальное масштабирование&lt;/strong&gt;.&lt;/p&gt;&lt;ul&gt;&lt;li&gt;Добавление подов для увеличения производительности приложений.&lt;/li&gt;&lt;li&gt;Создание реплик базы данных для обработки запросов на чтение.&lt;/li&gt;&lt;/ul&gt;&lt;/li&gt;&lt;li&gt;&lt;p&gt;&lt;strong&gt;Вспомогательная стратегия: вертикальное масштабирование&lt;/strong&gt;.&lt;/p&gt;&lt;ul&gt;&lt;li&gt;Применяется к мастер-базе данных или другим ключевым узлам до перехода на горизонтальное масштабирование.&lt;/li&gt;&lt;/ul&gt;&lt;/li&gt;&lt;/ol&gt;&lt;hr&gt;&lt;h3&gt;&lt;strong&gt;Стратегия отказоустойчивости&lt;/strong&gt;&lt;/h3&gt;&lt;ol&gt;&lt;li&gt;&lt;p&gt;&lt;strong&gt;Приложения&lt;/strong&gt;:&lt;/p&gt;&lt;ul&gt;&lt;li&gt;Использование Kubernetes для автоматического управления подами:&lt;ul&gt;&lt;li&gt;Если под недоступен, Kubernetes перезапускает его.&lt;/li&gt;&lt;li&gt;Если узел недоступен, поды переносятся на другие узлы.&lt;/li&gt;&lt;/ul&gt;&lt;/li&gt;&lt;li&gt;Глобальный балансировщик перенаправляет трафик в ближайший доступный регион.&lt;/li&gt;&lt;/ul&gt;&lt;/li&gt;&lt;li&gt;&lt;p&gt;&lt;strong&gt;Базы данных&lt;/strong&gt;:&lt;/p&gt;&lt;ul&gt;&lt;li&gt;Использование репликации базы данных для обработки запросов на чтение в каждом регионе.&lt;/li&gt;&lt;li&gt;Фейловер: при сбое мастер-базы одна из реплик может быть переведена в режим мастера.&lt;/li&gt;&lt;/ul&gt;&lt;/li&gt;&lt;li&gt;&lt;p&gt;&lt;strong&gt;Инфраструктура&lt;/strong&gt;:&lt;/p&gt;&lt;ul&gt;&lt;li&gt;Развёртывание приложений и баз данных в нескольких зонах доступности (Availability Zones) внутри каждого региона.&lt;/li&gt;&lt;li&gt;Использование автоматического перенаправления трафика между зонами.&lt;/li&gt;&lt;/ul&gt;&lt;/li&gt;&lt;/ol&gt;&lt;hr&gt;&lt;h3&gt;&lt;strong&gt;Роль дополнительных зон доступности&lt;/strong&gt;&lt;/h3&gt;&lt;h4&gt;&lt;strong&gt;Требуется ли использование зон доступности?&lt;/strong&gt;&lt;/h4&gt;&lt;p&gt;Да, использование дополнительных зон доступности необходимо для повышения отказоустойчивости.&lt;/p&gt;&lt;h4&gt;&lt;strong&gt;Что такое зона доступности?&lt;/strong&gt;&lt;/h4&gt;&lt;ul&gt;&lt;li&gt;Зона доступности (Availability Zone) — это независимая физическая инфраструктура (например, дата-центр) в пределах одного региона.&lt;/li&gt;&lt;li&gt;В случае сбоя одной зоны другая продолжает работать.&lt;/li&gt;&lt;/ul&gt;&lt;h4&gt;&lt;strong&gt;Преимущества зон доступности&lt;/strong&gt;:&lt;/h4&gt;&lt;ol&gt;&lt;li&gt;Защита от сбоев на уровне дата-центра.&lt;/li&gt;&lt;li&gt;Поддержка доступности приложений и баз данных.&lt;/li&gt;&lt;li&gt;Минимизация простоев за счёт автоматического фейловера между зонами.&lt;/li&gt;&lt;/ol&gt;&lt;hr&gt;&lt;h3&gt;&lt;strong&gt;Схема стратегии масштабирования и отказоустойчивости&lt;/strong&gt;&lt;/h3&gt;&lt;pre class=&quot;!overflow-visible&quot;&gt;&lt;div class=&quot;contain-inline-size rounded-md border-[0.5px] border-token-border-medium relative bg-token-sidebar-surface-primary dark:bg-gray-950&quot;&gt;&lt;div class=&quot;flex items-center text-token-text-secondary px-4 py-2 text-xs font-sans justify-between rounded-t-md h-9 bg-token-sidebar-surface-primary dark:bg-token-main-surface-secondary select-none&quot;&gt;&lt;strong style=&quot;background-color: initial; font-family: Helvetica; white-space: normal;&quot;&gt;Итоговая стратегия&lt;/strong&gt;&lt;br&gt;&lt;/div&gt;&lt;/div&gt;&lt;/pre&gt;&lt;ol&gt;&lt;li&gt;&lt;p&gt;&lt;strong&gt;Масштабирование&lt;/strong&gt;:&lt;/p&gt;&lt;ul&gt;&lt;li&gt;&lt;strong&gt;Горизонтальное масштабирование&lt;/strong&gt;: добавление подов и реплик для увеличения производительности.&lt;/li&gt;&lt;li&gt;&lt;strong&gt;Вертикальное масштабирование&lt;/strong&gt;: временная мера для ключевых узлов, таких как мастер-база данных.&lt;/li&gt;&lt;/ul&gt;&lt;/li&gt;&lt;li&gt;&lt;p&gt;&lt;strong&gt;Отказоустойчивость&lt;/strong&gt;:&lt;/p&gt;&lt;ul&gt;&lt;li&gt;Использование нескольких зон доступности в каждом регионе.&lt;/li&gt;&lt;li&gt;Автоматическое восстановление через Kubernetes и балансировщики нагрузки.&lt;/li&gt;&lt;/ul&gt;&lt;/li&gt;&lt;li&gt;&lt;p&gt;&lt;strong&gt;Рекомендуемая архитектура&lt;/strong&gt;:&lt;/p&gt;&lt;ul&gt;&lt;li&gt;Комбинированный подход с приоритетом горизонтального масштабирования и использованием зон доступности для обеспечения надёжности и производительности.&lt;/li&gt;&lt;/ul&gt;&lt;/li&gt;&lt;/ol&gt;" link="&lt;h3&gt;&lt;strong&gt;Стратегия масштабирования и отказоустойчивости&lt;/strong&gt;&lt;/h3&gt;&lt;p&gt;Для обеспечения отказоустойчивости, соответствующей требованиям (99.9% доступности, RTO ≤ 45 минут, RPO ≤ 15 минут), и эффективного масштабирования будет использован комбинированный подход, включающий как вертикальное, так и горизонтальное масштабирование. При этом основной упор будет сделан на горизонтальное масштабирование.&lt;/p&gt;&lt;hr&gt;&lt;h3&gt;&lt;strong&gt;Анализ масштабирования&lt;/strong&gt;&lt;/h3&gt;&lt;h4&gt;&lt;strong&gt;1. Вертикальное масштабирование&lt;/strong&gt;&lt;/h4&gt;&lt;ul&gt;&lt;li&gt;&lt;p&gt;&lt;strong&gt;Описание&lt;/strong&gt;:&lt;/p&gt;&lt;ul&gt;&lt;li&gt;Увеличение мощности отдельных узлов: добавление CPU, RAM, хранилища.&lt;/li&gt;&lt;li&gt;Используется для масштабирования баз данных или критически важных сервисов.&lt;/li&gt;&lt;/ul&gt;&lt;/li&gt;&lt;li&gt;&lt;p&gt;&lt;strong&gt;Преимущества&lt;/strong&gt;:&lt;/p&gt;&lt;ul&gt;&lt;li&gt;Простота реализации.&lt;/li&gt;&lt;li&gt;Быстрое увеличение производительности одного узла.&lt;/li&gt;&lt;/ul&gt;&lt;/li&gt;&lt;li&gt;&lt;p&gt;&lt;strong&gt;Недостатки&lt;/strong&gt;:&lt;/p&gt;&lt;ul&gt;&lt;li&gt;Ограничено пределами аппаратных возможностей.&lt;/li&gt;&lt;li&gt;Не способствует отказоустойчивости: сбой узла ведёт к недоступности сервисов.&lt;/li&gt;&lt;/ul&gt;&lt;/li&gt;&lt;li&gt;&lt;p&gt;&lt;strong&gt;Применение в системе&lt;/strong&gt;:&lt;/p&gt;&lt;ul&gt;&lt;li&gt;Для временного устранения узких мест, особенно в мастер-базе данных.&lt;/li&gt;&lt;li&gt;Для масштабирования на этапе начальной эксплуатации системы.&lt;/li&gt;&lt;/ul&gt;&lt;/li&gt;&lt;/ul&gt;&lt;hr&gt;&lt;h4&gt;&lt;strong&gt;2. Горизонтальное масштабирование&lt;/strong&gt;&lt;/h4&gt;&lt;ul&gt;&lt;li&gt;&lt;p&gt;&lt;strong&gt;Описание&lt;/strong&gt;:&lt;/p&gt;&lt;ul&gt;&lt;li&gt;Добавление новых узлов или подов для обработки увеличивающегося объёма запросов.&lt;/li&gt;&lt;li&gt;Применимо как для приложений, так и для баз данных (например, создание реплик).&lt;/li&gt;&lt;/ul&gt;&lt;/li&gt;&lt;li&gt;&lt;p&gt;&lt;strong&gt;Преимущества&lt;/strong&gt;:&lt;/p&gt;&lt;ul&gt;&lt;li&gt;Неограниченная масштабируемость (в зависимости от архитектуры).&lt;/li&gt;&lt;li&gt;Обеспечивает отказоустойчивость: сбой одного узла не приводит к полной недоступности.&lt;/li&gt;&lt;/ul&gt;&lt;/li&gt;&lt;li&gt;&lt;p&gt;&lt;strong&gt;Недостатки&lt;/strong&gt;:&lt;/p&gt;&lt;ul&gt;&lt;li&gt;Более сложная настройка и управление (например, репликация данных, балансировка нагрузки).&lt;/li&gt;&lt;/ul&gt;&lt;/li&gt;&lt;li&gt;&lt;p&gt;&lt;strong&gt;Применение в системе&lt;/strong&gt;:&lt;/p&gt;&lt;ul&gt;&lt;li&gt;Для масштабирования приложений через добавление подов в Kubernetes.&lt;/li&gt;&lt;li&gt;Для масштабирования базы данных через создание реплик в каждом регионе.&lt;/li&gt;&lt;/ul&gt;&lt;/li&gt;&lt;/ul&gt;&lt;hr&gt;&lt;h3&gt;&lt;strong&gt;Выбор стратегии масштабирования&lt;/strong&gt;&lt;/h3&gt;&lt;ol&gt;&lt;li&gt;&lt;p&gt;&lt;strong&gt;Основная стратегия: горизонтальное масштабирование&lt;/strong&gt;.&lt;/p&gt;&lt;ul&gt;&lt;li&gt;Добавление подов для увеличения производительности приложений.&lt;/li&gt;&lt;li&gt;Создание реплик базы данных для обработки запросов на чтение.&lt;/li&gt;&lt;/ul&gt;&lt;/li&gt;&lt;li&gt;&lt;p&gt;&lt;strong&gt;Вспомогательная стратегия: вертикальное масштабирование&lt;/strong&gt;.&lt;/p&gt;&lt;ul&gt;&lt;li&gt;Применяется к мастер-базе данных или другим ключевым узлам до перехода на горизонтальное масштабирование.&lt;/li&gt;&lt;/ul&gt;&lt;/li&gt;&lt;/ol&gt;&lt;hr&gt;&lt;h3&gt;&lt;strong&gt;Стратегия отказоустойчивости&lt;/strong&gt;&lt;/h3&gt;&lt;ol&gt;&lt;li&gt;&lt;p&gt;&lt;strong&gt;Приложения&lt;/strong&gt;:&lt;/p&gt;&lt;ul&gt;&lt;li&gt;Использование Kubernetes для автоматического управления подами:&lt;ul&gt;&lt;li&gt;Если под недоступен, Kubernetes перезапускает его.&lt;/li&gt;&lt;li&gt;Если узел недоступен, поды переносятся на другие узлы.&lt;/li&gt;&lt;/ul&gt;&lt;/li&gt;&lt;li&gt;Глобальный балансировщик перенаправляет трафик в ближайший доступный регион.&lt;/li&gt;&lt;/ul&gt;&lt;/li&gt;&lt;li&gt;&lt;p&gt;&lt;strong&gt;Базы данных&lt;/strong&gt;:&lt;/p&gt;&lt;ul&gt;&lt;li&gt;Использование репликации базы данных для обработки запросов на чтение в каждом регионе.&lt;/li&gt;&lt;li&gt;Фейловер: при сбое мастер-базы одна из реплик может быть переведена в режим мастера.&lt;/li&gt;&lt;/ul&gt;&lt;/li&gt;&lt;li&gt;&lt;p&gt;&lt;strong&gt;Инфраструктура&lt;/strong&gt;:&lt;/p&gt;&lt;ul&gt;&lt;li&gt;Развёртывание приложений и баз данных в нескольких зонах доступности (Availability Zones) внутри каждого региона.&lt;/li&gt;&lt;li&gt;Использование автоматического перенаправления трафика между зонами.&lt;/li&gt;&lt;/ul&gt;&lt;/li&gt;&lt;/ol&gt;&lt;hr&gt;&lt;h3&gt;&lt;strong&gt;Роль дополнительных зон доступности&lt;/strong&gt;&lt;/h3&gt;&lt;h4&gt;&lt;strong&gt;Требуется ли использование зон доступности?&lt;/strong&gt;&lt;/h4&gt;&lt;p&gt;Да, использование дополнительных зон доступности необходимо для повышения отказоустойчивости.&lt;/p&gt;&lt;h4&gt;&lt;strong&gt;Что такое зона доступности?&lt;/strong&gt;&lt;/h4&gt;&lt;ul&gt;&lt;li&gt;Зона доступности (Availability Zone) — это независимая физическая инфраструктура (например, дата-центр) в пределах одного региона.&lt;/li&gt;&lt;li&gt;В случае сбоя одной зоны другая продолжает работать.&lt;/li&gt;&lt;/ul&gt;&lt;h4&gt;&lt;strong&gt;Преимущества зон доступности&lt;/strong&gt;:&lt;/h4&gt;&lt;ol&gt;&lt;li&gt;Защита от сбоев на уровне дата-центра.&lt;/li&gt;&lt;li&gt;Поддержка доступности приложений и баз данных.&lt;/li&gt;&lt;li&gt;Минимизация простоев за счёт автоматического фейловера между зонами.&lt;/li&gt;&lt;/ol&gt;&lt;hr&gt;&lt;h3&gt;&lt;strong&gt;Схема стратегии масштабирования и отказоустойчивости&lt;/strong&gt;&lt;/h3&gt;&lt;pre class=&quot;!overflow-visible&quot;&gt;&lt;div class=&quot;contain-inline-size rounded-md border-[0.5px] border-token-border-medium relative bg-token-sidebar-surface-primary dark:bg-gray-950&quot;&gt;&lt;div class=&quot;flex items-center text-token-text-secondary px-4 py-2 text-xs font-sans justify-between rounded-t-md h-9 bg-token-sidebar-surface-primary dark:bg-token-main-surface-secondary select-none&quot;&gt;plaintext&lt;/div&gt;&lt;div class=&quot;sticky top-9 md:top-[5.75rem]&quot;&gt;&lt;div class=&quot;absolute bottom-0 right-2 flex h-9 items-center&quot;&gt;&lt;div class=&quot;flex items-center rounded bg-token-sidebar-surface-primary px-2 font-sans text-xs text-token-text-secondary dark:bg-token-main-surface-secondary&quot;&gt;&lt;span class=&quot;&quot; data-state=&quot;closed&quot;&gt;&lt;button class=&quot;flex gap-1 items-center select-none py-1&quot;&gt;&lt;svg width=&quot;24&quot; height=&quot;24&quot; viewBox=&quot;0 0 24 24&quot; fill=&quot;none&quot; xmlns=&quot;http://www.w3.org/2000/svg&quot; class=&quot;icon-sm&quot;&gt;&lt;path fill-rule=&quot;evenodd&quot; clip-rule=&quot;evenodd&quot; d=&quot;M7 5C7 3.34315 8.34315 2 10 2H19C20.6569 2 22 3.34315 22 5V14C22 15.6569 20.6569 17 19 17H17V19C17 20.6569 15.6569 22 14 22H5C3.34315 22 2 20.6569 2 19V10C2 8.34315 3.34315 7 5 7H7V5ZM9 7H14C15.6569 7 17 8.34315 17 10V15H19C19.5523 15 20 14.5523 20 14V5C20 4.44772 19.5523 4 19 4H10C9.44772 4 9 4.44772 9 5V7ZM5 9C4.44772 9 4 9.44772 4 10V19C4 19.5523 4.44772 20 5 20H14C14.5523 20 15 19.5523 15 19V10C15 9.44772 14.5523 9 14 9H5Z&quot; fill=&quot;currentColor&quot;&gt;&lt;/path&gt;&lt;/svg&gt;Копировать код&lt;/button&gt;&lt;/span&gt;&lt;/div&gt;&lt;/div&gt;&lt;/div&gt;&lt;div class=&quot;overflow-y-auto p-4&quot; dir=&quot;ltr&quot;&gt;&lt;code class=&quot;!whitespace-pre hljs language-plaintext&quot;&gt;                     ┌────────────────────────────────────────────┐&#xa;                     │         Глобальный балансировщик           │&#xa;                     │  (GeoDNS / AWS Global Accelerator / CF)    │&#xa;                     └────────────────────────────────────────────┘&#xa;                                       │&#xa;         ┌─────────────────────────────┴─────────────────────────────┐&#xa;         │                                                           │&#xa;┌───────────────────────────────┐                          ┌───────────────────────────────┐&#xa;│ Региональный кластер (Москва) │                          │ Региональный кластер (Сибирь) │&#xa;└───────────────────────────────┘                          └───────────────────────────────┘&#xa;            │                                                             │&#xa;  ┌─────────┴───────────────┐                                ┌────────────┴──────────────┐&#xa;  │ Зона доступности A      │                                │ Зона доступности A       │&#xa;  │ ┌─────────────────────┐ │                                │ ┌─────────────────────┐  │&#xa;  │ │ Поды приложения      │ │                                │ │ Поды приложения      │  │&#xa;  │ └─────────────────────┘ │                                │ └─────────────────────┘  │&#xa;  │ ┌─────────────────────┐ │                                │ ┌─────────────────────┐  │&#xa;  │ │ Локальная реплика БД │ │                                │ │ Локальная реплика БД │  │&#xa;  │ └─────────────────────┘ │                                │ └─────────────────────┘  │&#xa;  └─────────────────────────┘                                └──────────────────────────┘&#xa;&lt;/code&gt;&lt;/div&gt;&lt;/div&gt;&lt;/pre&gt;&lt;hr&gt;&lt;h3&gt;&lt;strong&gt;Итоговая стратегия&lt;/strong&gt;&lt;/h3&gt;&lt;ol&gt;&lt;li&gt;&lt;p&gt;&lt;strong&gt;Масштабирование&lt;/strong&gt;:&lt;/p&gt;&lt;ul&gt;&lt;li&gt;&lt;strong&gt;Горизонтальное масштабирование&lt;/strong&gt;: добавление подов и реплик для увеличения производительности.&lt;/li&gt;&lt;li&gt;&lt;strong&gt;Вертикальное масштабирование&lt;/strong&gt;: временная мера для ключевых узлов, таких как мастер-база данных.&lt;/li&gt;&lt;/ul&gt;&lt;/li&gt;&lt;li&gt;&lt;p&gt;&lt;strong&gt;Отказоустойчивость&lt;/strong&gt;:&lt;/p&gt;&lt;ul&gt;&lt;li&gt;Использование нескольких зон доступности в каждом регионе.&lt;/li&gt;&lt;li&gt;Автоматическое восстановление через Kubernetes и балансировщики нагрузки.&lt;/li&gt;&lt;/ul&gt;&lt;/li&gt;&lt;li&gt;&lt;p&gt;&lt;strong&gt;Рекомендуемая архитектура&lt;/strong&gt;:&lt;/p&gt;&lt;ul&gt;&lt;li&gt;Комбинированный подход с приоритетом горизонтального масштабирования и использованием зон доступности для обеспечения надёжности и производительности.&lt;/li&gt;&lt;/ul&gt;&lt;/li&gt;&lt;/ol&gt;" id="HlJHgFVcDTPW6L8RVwm2-16">
          <mxCell style="text;whiteSpace=wrap;html=1;" vertex="1" parent="1">
            <mxGeometry x="-1705.0043031529017" y="1155.9986411830357" width="550" height="2398" as="geometry" />
          </mxCell>
        </UserObject>
        <mxCell id="HlJHgFVcDTPW6L8RVwm2-17" value="&lt;div style=&quot;font-size: 14px;&quot;&gt;&lt;font style=&quot;font-size: 14px;&quot;&gt;Сценарий при сбое:&lt;/font&gt;&lt;/div&gt;&lt;div style=&quot;font-size: 14px;&quot;&gt;&lt;font style=&quot;font-size: 14px;&quot;&gt;1. Cluster 1 LB: /health - ошибка&lt;/font&gt;&lt;/div&gt;&lt;div style=&quot;font-size: 14px;&quot;&gt;&lt;font style=&quot;font-size: 14px;&quot;&gt;2. Cluster 2 LB: /health - Ок&lt;/font&gt;&lt;/div&gt;&lt;div style=&quot;font-size: 14px;&quot;&gt;&lt;font style=&quot;font-size: 14px;&quot;&gt;3. Запросы перенаправляются в Cluster 2 LB&lt;/font&gt;&lt;/div&gt;" style="text;html=1;align=left;verticalAlign=middle;whiteSpace=wrap;rounded=0;" vertex="1" parent="1">
          <mxGeometry x="734" y="186" width="298" height="52" as="geometry" />
        </mxCell>
        <mxCell id="HlJHgFVcDTPW6L8RVwm2-18" style="rounded=0;orthogonalLoop=1;jettySize=auto;html=1;exitX=0.155;exitY=1;exitDx=0;exitDy=0;exitPerimeter=0;entryX=0.508;entryY=-0.03;entryDx=0;entryDy=0;entryPerimeter=0;horizontal=1;" edge="1" parent="1" target="xm-ctFpzYZ5bEvGxBskp-87">
          <mxGeometry relative="1" as="geometry">
            <mxPoint x="174" y="-184" as="sourcePoint" />
            <mxPoint x="173" y="-65" as="targetPoint" />
          </mxGeometry>
        </mxCell>
      </root>
    </mxGraphModel>
  </diagram>
</mxfile>
